<svg width="116" height="116" viewBox="0 0 116 116" fill="none" xmlns="http://www.w3.org/2000/svg">
<path d="M113.91 74.1662V39.8814C113.91 38.4457 113.339 37.0688 112.324 36.0536C111.309 35.0384 109.932 34.468 108.496 34.468H39.9268C38.491 34.468 37.1141 35.0384 36.0989 36.0536C35.0837 37.0688 34.5134 38.4457 34.5134 39.8814V74.1662H113.91ZM74.2116 68.7528H70.6027C70.1241 68.7528 69.6651 68.5627 69.3267 68.2243C68.9883 67.8859 68.7982 67.427 68.7982 66.9484C68.7982 66.4698 68.9883 66.0108 69.3267 65.6724C69.6651 65.334 70.1241 65.1439 70.6027 65.1439H74.2116C74.6902 65.1439 75.1491 65.334 75.4875 65.6724C75.8259 66.0108 76.016 66.4698 76.016 66.9484C76.016 67.427 75.8259 67.8859 75.4875 68.2243C75.1491 68.5627 74.6902 68.7528 74.2116 68.7528ZM59.7759 57.9261C59.2973 57.9261 58.8383 57.7359 58.4999 57.3975C58.1615 57.0591 57.9714 56.6002 57.9714 56.1216C57.9714 55.643 58.1615 55.184 58.4999 54.8456C58.8383 54.5072 59.2973 54.3171 59.7759 54.3171H79.625C80.1036 54.3171 80.5625 54.5072 80.9009 54.8456C81.2393 55.184 81.4294 55.643 81.4294 56.1216C81.4294 56.6002 81.2393 57.0591 80.9009 57.3975C80.5625 57.7359 80.1036 57.9261 79.625 57.9261H59.7759ZM90.4518 68.7528H81.4294C80.9509 68.7528 80.4919 68.5627 80.1535 68.2243C79.8151 67.8859 79.625 67.427 79.625 66.9484C79.625 66.4698 79.8151 66.0108 80.1535 65.6724C80.4919 65.334 80.9509 65.1439 81.4294 65.1439H90.4518C90.9303 65.1439 91.3893 65.334 91.7277 65.6724C92.0661 66.0108 92.2562 66.4698 92.2562 66.9484C92.2562 67.427 92.0661 67.8859 91.7277 68.2243C91.3893 68.5627 90.9303 68.7528 90.4518 68.7528ZM101.279 68.7528H97.6696C97.191 68.7528 96.7321 68.5627 96.3937 68.2243C96.0553 67.8859 95.8652 67.427 95.8652 66.9484C95.8652 66.4698 96.0553 66.0108 96.3937 65.6724C96.7321 65.334 97.191 65.1439 97.6696 65.1439H101.279C101.757 65.1439 102.216 65.334 102.555 65.6724C102.893 66.0108 103.083 66.4698 103.083 66.9484C103.083 67.427 102.893 67.8859 102.555 68.2243C102.216 68.5627 101.757 68.7528 101.279 68.7528ZM101.279 57.9261H97.6696C97.191 57.9261 96.7321 57.7359 96.3937 57.3975C96.0553 57.0591 95.8652 56.6002 95.8652 56.1216C95.8652 55.643 96.0553 55.184 96.3937 54.8456C96.7321 54.5072 97.191 54.3171 97.6696 54.3171H101.279C101.757 54.3171 102.216 54.5072 102.555 54.8456C102.893 55.184 103.083 55.643 103.083 56.1216C103.083 56.6002 102.893 57.0591 102.555 57.3975C102.216 57.7359 101.757 57.9261 101.279 57.9261ZM92.2562 43.4903H101.279C101.757 43.4903 102.216 43.6805 102.555 44.0189C102.893 44.3573 103.083 44.8162 103.083 45.2948C103.083 45.7734 102.893 46.2324 102.555 46.5708C102.216 46.9092 101.757 47.0993 101.279 47.0993H92.2562C91.7777 47.0993 91.3187 46.9092 90.9803 46.5708C90.6419 46.2324 90.4518 45.7734 90.4518 45.2948C90.4518 44.8162 90.6419 44.3573 90.9803 44.0189C91.3187 43.6805 91.7777 43.4903 92.2562 43.4903ZM92.2562 56.1216C92.2562 56.6002 92.0661 57.0591 91.7277 57.3975C91.3893 57.7359 90.9303 57.9261 90.4518 57.9261H86.8428C86.3643 57.9261 85.9053 57.7359 85.5669 57.3975C85.2285 57.0591 85.0384 56.6002 85.0384 56.1216C85.0384 55.643 85.2285 55.184 85.5669 54.8456C85.9053 54.5072 86.3643 54.3171 86.8428 54.3171H90.4518C90.9303 54.3171 91.3893 54.5072 91.7277 54.8456C92.0661 55.184 92.2562 55.643 92.2562 56.1216ZM76.016 43.4903H85.0384C85.5169 43.4903 85.9759 43.6805 86.3143 44.0189C86.6527 44.3573 86.8428 44.8162 86.8428 45.2948C86.8428 45.7734 86.6527 46.2324 86.3143 46.5708C85.9759 46.9092 85.5169 47.0993 85.0384 47.0993H76.016C75.5375 47.0993 75.0785 46.9092 74.7401 46.5708C74.4017 46.2324 74.2116 45.7734 74.2116 45.2948C74.2116 44.8162 74.4017 44.3573 74.7401 44.0189C75.0785 43.6805 75.5375 43.4903 76.016 43.4903ZM65.1893 43.4903H68.7982C69.2768 43.4903 69.7357 43.6805 70.0741 44.0189C70.4125 44.3573 70.6027 44.8162 70.6027 45.2948C70.6027 45.7734 70.4125 46.2324 70.0741 46.5708C69.7357 46.9092 69.2768 47.0993 68.7982 47.0993H65.1893C64.7107 47.0993 64.2517 46.9092 63.9133 46.5708C63.5749 46.2324 63.3848 45.7734 63.3848 45.2948C63.3848 44.8162 63.5749 44.3573 63.9133 44.0189C64.2517 43.6805 64.7107 43.4903 65.1893 43.4903ZM48.9491 43.4903H57.9714C58.45 43.4903 58.909 43.6805 59.2474 44.0189C59.5858 44.3573 59.7759 44.8162 59.7759 45.2948C59.7759 45.7734 59.5858 46.2324 59.2474 46.5708C58.909 46.9092 58.45 47.0993 57.9714 47.0993H48.9491C48.4705 47.0993 48.0115 46.9092 47.6731 46.5708C47.3347 46.2324 47.1446 45.7734 47.1446 45.2948C47.1446 44.8162 47.3347 44.3573 47.6731 44.0189C48.0115 43.6805 48.4705 43.4903 48.9491 43.4903ZM47.1446 54.3171H52.558C53.0366 54.3171 53.4956 54.5072 53.834 54.8456C54.1724 55.184 54.3625 55.643 54.3625 56.1216C54.3625 56.6002 54.1724 57.0591 53.834 57.3975C53.4956 57.7359 53.0366 57.9261 52.558 57.9261H47.1446C46.666 57.9261 46.2071 57.7359 45.8687 57.3975C45.5303 57.0591 45.3402 56.6002 45.3402 56.1216C45.3402 55.643 45.5303 55.184 45.8687 54.8456C46.2071 54.5072 46.666 54.3171 47.1446 54.3171ZM47.1446 65.1439H63.3848C63.8634 65.1439 64.3223 65.334 64.6607 65.6724C64.9992 66.0108 65.1893 66.4698 65.1893 66.9484C65.1893 67.427 64.9992 67.8859 64.6607 68.2243C64.3223 68.5627 63.8634 68.7528 63.3848 68.7528H47.1446C46.666 68.7528 46.2071 68.5627 45.8687 68.2243C45.5303 67.8859 45.3402 67.427 45.3402 66.9484C45.3402 66.4698 45.5303 66.0108 45.8687 65.6724C46.2071 65.334 46.666 65.1439 47.1446 65.1439ZM90.4518 112.06C90.4518 112.539 90.2617 112.998 89.9233 113.336C89.5848 113.674 89.1259 113.864 88.6473 113.864H59.7759C59.2973 113.864 58.8383 113.674 58.4999 113.336C58.1615 112.998 57.9714 112.539 57.9714 112.06C57.9714 111.581 58.1615 111.122 58.4999 110.784C58.8383 110.446 59.2973 110.256 59.7759 110.256H61.9773L65.5862 95.8198H82.8369L86.4459 110.256H88.6473C89.1259 110.256 89.5848 110.446 89.9233 110.784C90.2617 111.122 90.4518 111.581 90.4518 112.06ZM113.91 77.7752V86.7975C113.91 88.2332 113.339 89.6101 112.324 90.6253C111.309 91.6405 109.932 92.2109 108.496 92.2109H39.9268C38.491 92.2109 37.1141 91.6405 36.0989 90.6253C35.0837 89.6101 34.5134 88.2332 34.5134 86.7975V77.7752H113.91Z" fill="#37B44C" fill-opacity="0.61"/>
<path d="M86.8428 1.98755H7.44641C6.01069 1.98755 4.63377 2.55789 3.61857 3.57309C2.60336 4.5883 2.03302 5.96522 2.03302 7.40094V75.9706C2.03302 77.4063 2.60336 78.7832 3.61857 79.7984C4.63377 80.8136 6.01069 81.384 7.44641 81.384H86.8428C88.2786 81.384 89.6555 80.8136 90.6707 79.7984C91.6859 78.7832 92.2562 77.4063 92.2562 75.9706V7.40094C92.2562 5.96522 91.6859 4.5883 90.6707 3.57309C89.6555 2.55789 88.2786 1.98755 86.8428 1.98755ZM7.44641 5.59648H86.8428C87.3214 5.59648 87.7804 5.78659 88.1188 6.12499C88.4572 6.4634 88.6473 6.92237 88.6473 7.40094V12.8143H5.64195V7.40094C5.64195 6.92237 5.83206 6.4634 6.17046 6.12499C6.50887 5.78659 6.96784 5.59648 7.44641 5.59648ZM86.8428 77.775H7.44641C6.96784 77.775 6.50887 77.5849 6.17046 77.2465C5.83206 76.9081 5.64195 76.4492 5.64195 75.9706V16.4233H88.6473V75.9706C88.6473 76.4492 88.4572 76.9081 88.1188 77.2465C87.7804 77.5849 87.3214 77.775 86.8428 77.775ZM32.33 31.9597L20.5649 47.0992L32.33 62.2386C32.5877 62.6188 32.6908 63.0829 32.6182 63.5365C32.5457 63.99 32.3028 64.3988 31.9393 64.6795C31.5757 64.9603 31.1188 65.0918 30.6617 65.0473C30.2045 65.0028 29.7815 64.7856 29.4789 64.4401L16.8477 48.1999C16.6048 47.8844 16.4731 47.4973 16.4731 47.0992C16.4731 46.701 16.6048 46.314 16.8477 45.9984L29.4789 29.7583C29.6172 29.5544 29.7957 29.3809 30.0035 29.2487C30.2113 29.1164 30.444 29.0281 30.6872 28.9891C30.9305 28.9502 31.1791 28.9615 31.4178 29.0223C31.6565 29.0831 31.8803 29.1921 32.0752 29.3427C32.2702 29.4932 32.4323 29.6821 32.5515 29.8977C32.6707 30.1133 32.7445 30.3509 32.7684 30.5961C32.7923 30.8413 32.7657 31.0888 32.6903 31.3233C32.6149 31.5578 32.4923 31.7744 32.33 31.9597ZM77.4416 45.9984C77.6845 46.314 77.8162 46.701 77.8162 47.0992C77.8162 47.4973 77.6845 47.8844 77.4416 48.1999C64.3231 64.6385 65.0088 65.1438 63.3848 65.1438C62.9861 65.1426 62.599 65.0093 62.2841 64.7649C61.9068 64.4724 61.6608 64.0423 61.5999 63.5688C61.539 63.0953 61.6682 62.617 61.9593 62.2386L73.7244 47.0992L61.9593 31.9597C61.7015 31.5795 61.5984 31.1154 61.671 30.6618C61.7436 30.2083 61.9864 29.7995 62.35 29.5188C62.7135 29.2381 63.1704 29.1065 63.6276 29.151C64.0848 29.1955 64.5077 29.4127 64.8103 29.7583L77.4416 45.9984ZM54.3625 31.4364L43.5357 63.9168C43.3826 64.3714 43.0551 64.7466 42.6253 64.9598C42.1955 65.173 41.6987 65.2067 41.244 65.0536C40.7894 64.9004 40.4142 64.5729 40.201 64.1432C39.9878 63.7134 39.9541 63.2165 40.1072 62.7619L50.934 30.2815C51.0098 30.0564 51.1293 29.8485 51.2855 29.6695C51.4417 29.4905 51.6316 29.3441 51.8444 29.2385C52.0572 29.133 52.2887 29.0703 52.5257 29.0543C52.7627 29.0382 53.0006 29.0689 53.2257 29.1447C53.4508 29.2206 53.6588 29.34 53.8377 29.4962C54.0167 29.6524 54.1631 29.8423 54.2687 30.0551C54.3743 30.2679 54.4369 30.4994 54.453 30.7364C54.4691 30.9734 54.4383 31.2113 54.3625 31.4364Z" fill="#151A6A"/>
</svg>
