<svg width="556" height="556" viewBox="0 0 556 556" fill="none" xmlns="http://www.w3.org/2000/svg">
<path d="M482.608 138.822V237.123H245.708V150.087H266.257V175.04H271.55V160.918H297.682V183.291H301.141V130.782H323.859V145.194H335.502V163.13H339.027V151.844H359.676V185.504H365.715V158.149H384.596V137.365H397.44V125.534H412.296V178.02H417.289V156.114H441.764V187.472H445.145V161.874H469.953V138.822H482.608Z" fill="#EBEBEB"/>
<path d="M251.712 157.993H248.232V153.222H251.712V157.993ZM257.739 153.222H254.259V157.993H257.739V153.222ZM263.766 153.222H260.286V157.993H263.766V153.222ZM251.712 160.406H248.232V165.176H251.712V160.406ZM257.739 160.406H254.259V165.176H257.739V160.406ZM263.766 160.406H260.286V165.176H263.766V160.406ZM251.712 167.59H248.232V172.36H251.712V167.59ZM257.739 167.59H254.259V172.36H257.739V167.59ZM263.766 167.59H260.286V172.36H263.766V167.59ZM251.712 174.762H248.232V179.532H251.712V174.762ZM257.739 174.762H254.259V179.532H257.739V174.762ZM263.766 174.762H260.286V179.532H263.766V174.762ZM372.097 161.551H368.617V165.532H372.097V161.551ZM378.124 161.551H374.644V165.532H378.08L378.124 161.551ZM384.152 161.551H380.671V165.532H384.152V161.551ZM372.097 167.545H368.617V171.526H372.097V167.545ZM378.124 167.545H374.644V171.526H378.08L378.124 167.545ZM384.152 167.545H380.671V171.526H384.152V167.545ZM372.097 173.539H368.617V177.52H372.097V173.539ZM378.124 173.539H374.644V177.52H378.08L378.124 173.539ZM384.152 173.539H380.671V177.52H384.152V173.539ZM372.097 179.521H368.617V183.48H372.097V179.521ZM378.124 179.521H374.644V183.48H378.08L378.124 179.521ZM384.152 179.521H380.671V183.48H384.152V179.521ZM372.097 185.704H368.617V189.685H372.097V185.704ZM378.124 185.704H374.644V189.685H378.08L378.124 185.704ZM384.152 185.704H380.671V189.685H384.152V185.704ZM372.097 191.842H368.617V195.823H372.097V191.842ZM378.124 191.842H374.644V195.823H378.08L378.124 191.842ZM384.152 191.842H380.671V195.823H384.152V191.842ZM372.097 197.936H368.617V201.917H372.097V197.936ZM378.124 197.936H374.644V201.917H378.08L378.124 197.936ZM384.152 197.936H380.671V201.917H384.152V197.936ZM372.097 204.074H368.617V208.055H372.097V204.074ZM378.124 204.074H374.644V208.055H378.08L378.124 204.074ZM384.152 204.074H380.671V208.055H384.152V204.074ZM294.535 163.976H274.519V166.956H294.535V163.976ZM294.535 169.769H274.519V172.749H294.535V169.769ZM294.535 175.551H274.519V178.543H294.535V175.551ZM294.535 181.345H274.519V184.336H294.535V181.345ZM294.535 187.138H274.519V190.152H294.535V187.138ZM294.535 192.932H274.519V195.912H294.535V192.932ZM294.535 198.714H274.519V201.706H294.535V198.714ZM294.535 204.508H274.519V207.499H294.535V204.508ZM438.651 158.916H420.247V161.907H438.651V158.916ZM438.651 164.709H420.247V167.701H438.651V164.709ZM438.651 170.503H420.247V173.472H438.651V170.503ZM438.651 176.296H420.247V179.277H438.651V176.296ZM438.651 182.079H420.247V185.07H438.651V182.079ZM438.651 187.872H420.247V190.853H438.651V187.872ZM438.651 193.666H420.247V196.646H438.651V193.666ZM438.651 199.459H420.247V202.384H438.651V199.459ZM438.651 204.953H420.247V207.944H438.651V204.953ZM438.651 210.513H420.247V213.504H438.651V210.513ZM438.651 216.017H420.247V218.997H438.651V216.017ZM438.651 221.522H420.247V224.502H438.651V221.522ZM438.651 227.082H420.247V230.062H438.651V227.082ZM468.408 166.022H448.97V169.013H468.408V166.022ZM468.408 171.815H448.97V174.806H468.408V171.815ZM468.408 177.609H448.97V180.589H468.408V177.609ZM468.408 183.402H448.97V186.382H468.408V183.402ZM468.408 189.185H448.97V192.176H468.408V189.185ZM468.408 194.978H448.97V197.958H468.408V194.978ZM468.408 200.772H448.97V203.752H468.408V200.772ZM468.408 206.565H448.97V209.545H468.408V206.565ZM468.408 211.747H448.97V214.616H468.408V211.747ZM468.408 216.929H448.97V219.909H468.408V216.929ZM468.408 222.111H448.97V225.091H468.408V222.111ZM351.247 154.568H345.065V157.459H351.247V154.568ZM351.247 160.128H345.065V163.019H351.247V160.128ZM351.247 165.688H345.065V168.568H351.247V165.688ZM351.247 171.248H345.065V174.128H351.247V171.248ZM351.247 176.808H345.065V179.688H351.247V176.808ZM351.247 182.368H345.065V185.248H351.247V182.368ZM351.247 187.928H345.065V190.808H351.247V187.928ZM351.247 193.488H345.065V196.368H351.247V193.488ZM359.665 154.568H353.483V157.459H359.665V154.568ZM359.665 160.128H353.483V163.019H359.665V160.128ZM359.665 165.688H353.483V168.568H359.665V165.688ZM359.665 171.248H353.483V174.128H359.665V171.248ZM359.665 176.808H353.483V179.688H359.665V176.808ZM359.665 182.368H353.483V185.248H359.665V182.368ZM359.665 187.928H353.483V190.808H359.665V187.928ZM359.665 193.488H353.483V196.368H359.665V193.488ZM311.026 133.807H304.588V138.355H311.026V133.807ZM320.634 133.807H314.196V138.355H320.634V133.807ZM311.026 140.479H304.588V145.027H311.026V140.479ZM320.634 140.479H314.196V145.027H320.634V140.479ZM311.026 147.151H304.588V151.688H311.026V147.151ZM320.634 147.151H314.196V151.688H320.634V147.151ZM311.026 153.823H304.588V158.371H311.026V153.823ZM320.634 153.823H314.196V158.371H320.634V153.823ZM311.026 160.495H304.588V165.043H311.026V160.495ZM320.634 160.495H314.196V165.043H320.634V160.495ZM311.026 167.167H304.588V171.715H311.026V167.167ZM320.634 167.167H314.196V171.715H320.634V167.167ZM311.026 173.839H304.588V178.387H311.026V173.839ZM320.634 173.839H314.196V178.387H320.634V173.839ZM311.026 180.511H304.588V185.048H311.026V180.511ZM320.634 180.511H314.196V185.048H320.634V180.511ZM332.532 147.151H326.094V151.688H332.488L332.532 147.151ZM332.532 153.823H326.094V158.371H332.488L332.532 153.823ZM332.532 160.495H326.094V165.043H332.488L332.532 160.495ZM332.532 167.167H326.094V171.715H332.488L332.532 167.167ZM332.532 173.839H326.094V178.387H332.488L332.532 173.839ZM332.532 180.511H326.094V185.048H332.488L332.532 180.511ZM311.026 187.105H304.588V191.653H311.026V187.105ZM320.634 187.105H314.196V191.653H320.634V187.105ZM332.532 187.105H326.094V191.653H332.488L332.532 187.105ZM311.026 193.699H304.588V198.247H311.026V193.699ZM320.634 193.699H314.196V198.247H320.634V193.699ZM332.532 193.699H326.094V198.247H332.488L332.532 193.699ZM311.026 200.293H304.588V204.842H311.026V200.293ZM320.634 200.293H314.196V204.842H320.634V200.293ZM332.532 200.293H326.094V204.842H332.488L332.532 200.293ZM311.026 206.899H304.588V211.436H311.026V206.899ZM320.634 206.899H314.196V211.436H320.634V206.899ZM332.532 206.899H326.094V211.436H332.488L332.532 206.899ZM311.026 213.504H304.588V218.052H311.026V213.504ZM320.634 213.504H314.196V218.052H320.634V213.504ZM332.532 213.504H326.094V218.052H332.488L332.532 213.504ZM390.701 140.268H387.221V144.249H390.701V140.268ZM396.728 140.268H393.248V144.249H396.728V140.268ZM390.701 146.261H387.221V150.242H390.701V146.261ZM396.728 146.261H393.248V150.242H396.728V146.261ZM390.701 152.244H387.221V156.236H390.701V152.244ZM396.728 152.244H393.248V156.236H396.728V152.244ZM390.701 158.238H387.221V162.219H390.701V158.238ZM396.728 158.238H393.248V162.219H396.728V158.238ZM390.701 164.376H387.221V168.357H390.701V164.376ZM396.728 164.376H393.248V168.357H396.728V164.376ZM390.701 170.514H387.221V174.495H390.701V170.514ZM396.728 170.514H393.248V174.495H396.728V170.514ZM390.701 176.652H387.221V180.633H390.701V176.652ZM396.728 176.652H393.248V180.633H396.728V176.652ZM390.701 182.791H387.221V186.816H390.701V182.791ZM396.728 182.791H393.248V186.816H396.728V182.791ZM390.701 189.04H387.221V193.021H390.701V189.04ZM396.728 189.04H393.248V193.021H396.728V189.04ZM390.701 195.245H387.221V199.226H390.701V195.245ZM396.728 195.245H393.248V199.226H396.728V195.245ZM390.701 201.45H387.221V205.431H390.701V201.45ZM396.728 201.45H393.248V205.431H396.728V201.45ZM390.701 207.655H387.221V211.636H390.701V207.655ZM396.728 207.655H393.248V211.636H396.728V207.655ZM475.614 140.935H472.133V145.672H475.614V140.935ZM481.641 140.935H478.16V145.672H481.641V140.935ZM475.614 147.996H472.133V152.689H475.614V147.996ZM481.641 147.996H478.16V152.689H481.641V147.996ZM475.614 155.057H472.133V159.739H475.614V155.057ZM481.641 155.057H478.16V159.739H481.641V155.057ZM475.614 162.107H472.133V166.8H475.614V162.107ZM481.641 162.107H478.16V166.8H481.641V162.107ZM475.614 169.346H472.133V174.028H475.614V169.346ZM481.641 169.346H478.16V174.028H481.641V169.346ZM475.614 176.574H472.133V181.256H475.614V176.574ZM481.641 176.574H478.16V181.256H481.641V176.574ZM475.614 183.802H472.133V188.495H475.614V183.802ZM481.641 183.802H478.16V188.495H481.641V183.802ZM475.614 191.03H472.133V195.712H475.614V191.03ZM481.641 191.03H478.16V195.712H481.641V191.03ZM475.614 198.347H472.133V203.029H475.614V198.347ZM481.641 198.347H478.16V203.029H481.641V198.347ZM475.614 205.653H472.133V210.346H475.614V205.653ZM481.641 205.653H478.16V210.346H481.641V205.653ZM475.614 212.959H472.133V217.652H475.614V212.959ZM481.641 212.959H478.16V217.652H481.641V212.959ZM475.614 220.265H472.133V224.958H475.614V220.265ZM481.641 220.265H478.16V224.958H481.641V220.265ZM403.589 140.29H400.109V144.271H403.589V140.29ZM409.616 140.29H406.136V144.271H409.616V140.29ZM403.589 134.152H400.109V138.133H403.589V134.152ZM409.616 134.152H406.136V138.133H409.616V134.152ZM403.589 128.013H400.109V131.994H403.589V128.013ZM409.616 128.013H406.136V131.994H409.616V128.013ZM403.589 146.284H400.109V150.265H403.589V146.284ZM409.616 146.284H406.136V150.265H409.616V146.284ZM403.589 152.266H400.109V156.258H403.589V152.266ZM409.616 152.266H406.136V156.258H409.616V152.266ZM403.589 158.26H400.109V162.241H403.589V158.26ZM409.616 158.26H406.136V162.241H409.616V158.26ZM403.589 164.398H400.109V168.379H403.589V164.398ZM409.616 164.398H406.136V168.379H409.616V164.398ZM403.589 170.536H400.109V174.517H403.589V170.536ZM409.616 170.536H406.136V174.517H409.616V170.536ZM403.589 176.675H400.109V180.656H403.589V176.675ZM409.616 176.675H406.136V180.656H409.616V176.675ZM403.589 182.813H400.109V186.816H403.589V182.813ZM409.616 182.813H406.136V186.816H409.616V182.813ZM403.589 189.04H400.109V193.021H403.589V189.04ZM409.616 189.04H406.136V193.021H409.616V189.04ZM403.589 195.245H400.109V199.226H403.589V195.245ZM409.616 195.245H406.136V199.226H409.616V195.245ZM403.589 201.45H400.109V205.431H403.589V201.45ZM409.616 201.45H406.136V205.431H409.616V201.45ZM403.589 207.655H400.109V211.636H403.589V207.655ZM409.616 207.655H406.136V211.636H409.616V207.655Z" fill="white"/>
<path d="M245.708 237.123H74.1259V150.087H94.6757V175.04H99.9688V160.918H126.101V183.291H129.559V130.782H152.266V145.194H163.92V163.13H167.445V151.844H188.095V185.504H194.122V158.149H213.015V137.365H225.847L240.704 137.432V178.02H245.708V237.123Z" fill="#EBEBEB"/>
<path d="M80.1196 157.993H76.6391V153.222H80.1196V157.993ZM86.1467 153.222H82.6661V157.993H86.1467V153.222ZM92.1737 153.222H88.6931V157.993H92.1737V153.222ZM80.1196 160.406H76.6391V165.176H80.1196V160.406ZM86.1467 160.406H82.6661V165.176H86.1467V160.406ZM92.1737 160.406H88.6931V165.176H92.1737V160.406ZM80.1196 167.59H76.6391V172.36H80.1196V167.59ZM86.1467 167.59H82.6661V172.36H86.1467V167.59ZM92.1737 167.59H88.6931V172.36H92.1737V167.59ZM80.1196 174.762H76.6391V179.532H80.1196V174.762ZM86.1467 174.762H82.6661V179.532H86.1467V174.762ZM92.1737 174.762H88.6931V179.532H92.1737V174.762ZM200.505 161.551H197.024V165.532H200.505V161.551ZM206.532 161.551H203.051V165.532H206.532V161.551ZM212.559 161.551H209.056V165.532H212.537L212.559 161.551ZM200.505 167.545H197.024V171.526H200.505V167.545ZM206.532 167.545H203.051V171.526H206.532V167.545ZM212.559 167.545H209.056V171.526H212.537L212.559 167.545ZM200.505 173.539H197.024V177.52H200.505V173.539ZM206.532 173.539H203.051V177.52H206.532V173.539ZM212.559 173.539H209.056V177.52H212.537L212.559 173.539ZM200.505 179.521H197.024V183.48H200.505V179.521ZM206.532 179.521H203.051V183.48H206.532V179.521ZM212.559 179.521H209.056V183.48H212.537L212.559 179.521ZM200.505 185.704H197.024V189.685H200.505V185.704ZM206.532 185.704H203.051V189.685H206.532V185.704ZM212.559 185.704H209.056V189.685H212.537L212.559 185.704ZM200.505 191.842H197.024V195.823H200.505V191.842ZM206.532 191.842H203.051V195.823H206.532V191.842ZM212.559 191.842H209.056V195.823H212.537L212.559 191.842ZM200.505 197.936H197.024V201.917H200.505V197.936ZM206.532 197.936H203.051V201.917H206.532V197.936ZM212.559 197.936H209.056V201.917H212.537L212.559 197.936ZM200.505 204.074H197.024V208.055H200.505V204.074ZM206.532 204.074H203.051V208.055H206.532V204.074ZM212.559 204.074H209.056V208.055H212.537L212.559 204.074ZM122.954 163.976H102.938V166.956H122.954V163.976ZM122.954 169.769H102.938V172.749H122.954V169.769ZM122.954 175.551H102.938V178.543H122.954V175.551ZM122.954 181.345H102.938V184.336H122.954V181.345ZM122.954 187.138H102.938V190.152H122.954V187.138ZM122.954 192.932H102.938V195.912H122.954V192.932ZM122.954 198.714H102.938V201.706H122.954V198.714ZM122.954 204.508H102.938V207.499H122.954V204.508ZM179.666 154.546H173.472V157.437H179.655L179.666 154.546ZM179.666 160.106H173.472V162.997H179.655L179.666 160.106ZM179.666 165.666H173.472V168.546H179.655L179.666 165.666ZM179.666 171.226H173.472V174.106H179.655L179.666 171.226ZM179.666 176.786H173.472V179.666H179.655L179.666 176.786ZM179.666 182.346H173.472V185.226H179.655L179.666 182.346ZM179.666 187.906H173.472V190.786H179.655L179.666 187.906ZM179.666 193.466H173.472V196.346H179.655L179.666 193.466ZM188.073 154.568H181.89V157.459H188.073V154.568ZM188.073 160.128H181.89V163.019H188.073V160.128ZM188.073 165.688H181.89V168.568H188.073V165.688ZM188.073 171.248H181.89V174.128H188.073V171.248ZM188.073 176.808H181.89V179.688H188.073V176.808ZM188.073 182.368H181.89V185.248H188.073V182.368ZM188.073 187.928H181.89V190.808H188.073V187.928ZM188.073 193.488H181.89V196.368H188.073V193.488ZM139.445 133.807H133.006V138.355H139.445V133.807ZM149.041 133.807H142.603V138.355H149.008L149.041 133.807ZM139.445 140.479H133.006V145.027H139.445V140.479ZM149.041 140.479H142.603V145.027H149.008L149.041 140.479ZM139.445 147.151H133.006V151.688H139.445V147.151ZM149.041 147.151H142.603V151.688H149.008L149.041 147.151ZM139.445 153.823H133.006V158.371H139.445V153.823ZM149.041 153.823H142.603V158.371H149.008L149.041 153.823ZM139.445 160.495H133.006V165.043H139.445V160.495ZM149.041 160.495H142.603V165.043H149.008L149.041 160.495ZM139.445 167.167H133.006V171.715H139.445V167.167ZM149.041 167.167H142.603V171.715H149.008L149.041 167.167ZM139.445 173.839H133.006V178.387H139.445V173.839ZM149.041 173.839H142.603V178.387H149.008L149.041 173.839ZM139.445 180.511H133.006V185.048H139.445V180.511ZM149.041 180.511H142.603V185.048H149.008L149.041 180.511ZM160.94 147.151H154.501V151.688H160.94V147.151ZM160.94 153.823H154.501V158.371H160.94V153.823ZM160.94 160.495H154.501V165.043H160.94V160.495ZM160.94 167.167H154.501V171.715H160.94V167.167ZM160.94 173.839H154.501V178.387H160.94V173.839ZM160.94 180.511H154.501V185.048H160.94V180.511ZM139.445 187.105H133.006V191.653H139.445V187.105ZM149.041 187.105H142.603V191.653H149.008L149.041 187.105ZM160.94 187.105H154.501V191.653H160.94V187.105ZM139.445 193.699H133.006V198.247H139.445V193.699ZM149.041 193.699H142.603V198.247H149.008L149.041 193.699ZM160.94 193.699H154.501V198.247H160.94V193.699ZM139.445 200.293H133.006V204.841H139.445V200.293ZM149.041 200.293H142.603V204.841H149.008L149.041 200.293ZM160.94 200.293H154.501V204.841H160.94V200.293ZM139.445 206.899H133.006V211.436H139.445V206.899ZM149.041 206.899H142.603V211.436H149.008L149.041 206.899ZM160.94 206.899H154.501V211.436H160.94V206.899ZM139.445 213.504H133.006V218.052H139.445V213.504ZM149.041 213.504H142.603V218.052H149.008L149.041 213.504ZM160.94 213.504H154.501V218.052H160.94V213.504ZM219.064 140.29H215.595V144.271H219.064V140.29ZM225.091 140.29H221.622V144.271H225.091V140.29ZM219.064 146.284H215.595V150.265H219.064V146.284ZM225.091 146.284H221.622V150.265H225.091V146.284ZM219.064 152.266H215.595V156.258H219.064V152.266ZM225.091 152.266H221.622V156.258H225.091V152.266ZM219.064 158.26H215.595V162.241H219.064V158.26ZM225.091 158.26H221.622V162.241H225.091V158.26ZM219.064 164.398H215.595V168.379H219.064V164.398ZM225.091 164.398H221.622V168.379H225.091V164.398ZM219.064 170.536H215.595V174.517H219.064V170.536ZM225.091 170.536H221.622V174.517H225.091V170.536ZM219.064 176.675H215.595V180.656H219.064V176.675ZM225.091 176.675H221.622V180.656H225.091V176.675ZM219.064 182.813H215.595V186.816H219.064V182.813ZM225.091 182.813H221.622V186.816H225.091V182.813ZM219.064 189.04H215.595V193.021H219.064V189.04ZM225.091 189.04H221.622V193.021H225.091V189.04ZM219.064 195.223H215.595V199.204H219.064V195.223ZM225.091 195.223H221.622V199.204H225.091V195.223ZM219.064 201.428H215.595V205.409H219.064V201.428ZM225.091 201.428H221.622V205.409H225.091V201.428ZM219.064 207.633H215.595V211.614H219.064V207.633ZM225.091 207.633H221.622V211.614H225.091V207.633ZM231.952 140.29H228.483V144.271H231.952V140.29ZM237.979 140.29H234.51V144.271H237.979V140.29ZM231.952 146.284H228.483V150.265H231.952V146.284ZM237.979 146.284H234.51V150.265H237.979V146.284ZM231.952 152.266H228.483V156.258H231.952V152.266ZM237.979 152.266H234.51V156.258H237.979V152.266ZM231.952 158.26H228.483V162.241H231.952V158.26ZM237.979 158.26H234.51V162.241H237.979V158.26ZM231.952 164.398H228.483V168.379H231.952V164.398ZM237.979 164.398H234.51V168.379H237.979V164.398ZM231.952 170.536H228.483V174.517H231.952V170.536ZM237.979 170.536H234.51V174.517H237.979V170.536ZM231.952 176.675H228.483V180.656H231.952V176.675ZM237.979 176.675H234.51V180.656H237.979V176.675ZM231.952 182.813H228.483V186.816H231.952V182.813ZM237.979 182.813H234.51V186.816H237.979V182.813ZM231.997 189.04H228.527V193.021H231.997V189.04ZM238.024 189.04H234.554V193.021H238.024V189.04ZM231.997 195.245H228.527V199.226H231.997V195.245ZM238.024 195.245H234.554V199.226H238.024V195.245ZM231.997 201.45H228.527V205.431H231.997V201.45ZM238.024 201.45H234.554V205.431H238.024V201.45ZM231.997 207.655H228.527V211.636H231.997V207.655ZM238.024 207.655H234.554V211.636H238.024V207.655Z" fill="white"/>
<path d="M484.721 239.236H71.2792V104.117H484.721V239.236ZM75.5048 235.021H480.506V108.331H75.4937L75.5048 235.021Z" fill="#DBDBDB"/>
<path d="M280.113 108.331H275.898V235.01H280.113V108.331Z" fill="#DBDBDB"/>
<path d="M155.914 352.404L153.256 368.361L135.23 465.694H132.328L145.438 368.361L147.373 352.404H155.914Z" fill="#DBDBDB"/>
<path d="M147.373 352.404H155.914L153.256 368.361H145.438L147.373 352.404Z" fill="#C7C7C7"/>
<path d="M212.525 465.694H209.612L191.586 368.361L188.929 352.404H197.48L199.415 368.361L212.525 465.694Z" fill="#DBDBDB"/>
<path d="M197.48 352.404L199.415 368.361H191.586L188.929 352.404H197.48Z" fill="#C7C7C7"/>
<path d="M266.58 465.694H263.677L245.652 368.361L242.994 352.404H251.546L253.48 368.361L266.58 465.694Z" fill="#DBDBDB"/>
<path d="M253.48 368.361H245.652L242.994 352.404H251.546L253.48 368.361Z" fill="#C7C7C7"/>
<path d="M261.976 359.899H129.904V349.19L179.343 345.988L195.957 250.133H256.939L261.976 359.899Z" fill="#DBDBDB"/>
<path d="M261.976 359.899H254.781L250.089 250.133H256.939L261.976 359.899Z" fill="#C7C7C7"/>
<path d="M184.481 0H183.369V57.6461H184.481V0Z" fill="#C7C7C7"/>
<path d="M187.85 53.2092H179.999V61.7049H187.85V53.2092Z" fill="#DBDBDB"/>
<path d="M199.993 88.8376H167.912C168.557 76.6056 174.384 57.0233 183.98 57.0233C193.577 57.0233 199.348 76.6056 199.993 88.8376Z" fill="#DBDBDB"/>
<path d="M247.198 0H246.086V57.6461H247.198V0Z" fill="#C7C7C7"/>
<path d="M250.567 53.2092H242.716V61.7049H250.567V53.2092Z" fill="#DBDBDB"/>
<path d="M262.71 88.8376H230.573C231.218 76.6056 237.056 57.0233 246.642 57.0233C256.227 57.0233 262.065 76.6056 262.71 88.8376Z" fill="#DBDBDB"/>
<path d="M309.914 0H308.802V57.6461H309.914V0Z" fill="#C7C7C7"/>
<path d="M313.284 53.2092H305.433V61.7049H313.284V53.2092Z" fill="#DBDBDB"/>
<path d="M325.427 88.8376H293.29C293.946 76.6056 299.773 57.0233 309.358 57.0233C318.944 57.0233 324.782 76.6056 325.427 88.8376Z" fill="#DBDBDB"/>
<path d="M372.631 0H371.519V57.6461H372.631V0Z" fill="#C7C7C7"/>
<path d="M376.001 53.2092H368.15V61.7049H376.001V53.2092Z" fill="#DBDBDB"/>
<path d="M388.144 88.8376H356.007C356.663 76.6056 362.49 57.0233 372.075 57.0233C381.661 57.0233 387.499 76.6056 388.144 88.8376Z" fill="#DBDBDB"/>
<path d="M284.127 529.523C363.351 529.523 427.575 520.283 427.575 508.885C427.575 497.486 363.351 488.246 284.127 488.246C204.903 488.246 140.679 497.486 140.679 508.885C140.679 520.283 204.903 529.523 284.127 529.523Z" fill="#EBEBEB"/>
<path d="M103.516 509.507C137.939 509.507 165.844 504.165 165.844 497.576C165.844 490.986 137.939 485.644 103.516 485.644C69.0935 485.644 41.1885 490.986 41.1885 497.576C41.1885 504.165 69.0935 509.507 103.516 509.507Z" fill="#EBEBEB"/>
<path d="M38.3306 465.694L98.2452 465.428L158.16 465.327L278 465.15L397.84 465.327L457.755 465.428L517.669 465.694L457.755 465.972L397.84 466.073L278 466.25L158.16 466.073L98.2452 465.972L38.3306 465.694Z" fill="#263238"/>
<path d="M443.232 296.548H345.109V476.814H443.232V296.548Z" fill="#455A64"/>
<path d="M443.232 296.548H345.109V308.302H443.232V296.548Z" fill="#263238"/>
<path d="M485.355 287.074H70.6342V296.559H485.355V287.074Z" fill="#455A64"/>
<path d="M91.5621 296.548L91.2507 308.302L87.1141 476.814H79.6192V296.548H91.5621Z" fill="#455A64"/>
<path d="M79.6192 296.548H91.5621L91.2507 308.302H79.6192V296.548Z" fill="#263238"/>
<path d="M476.481 296.548H443.232V476.814H476.481V296.548Z" fill="#37474F"/>
<path d="M476.481 296.548H443.232V308.302H476.481V296.548Z" fill="#263238"/>
<path d="M465.895 286.896H420.214L412.229 253.747H457.91L465.895 286.896Z" fill="#A6A6A6"/>
<path d="M404.123 286.896H449.793L457.777 253.747H412.096L404.123 286.896Z" fill="#EBEBEB"/>
<path d="M452.295 258.195L451.183 262.832L451.116 263.11L450.004 267.925L449.937 268.214L448.825 273.018L448.759 273.307L447.647 278.122L447.58 278.411L446.468 283.126H409.772L410.884 278.411L410.951 278.122L412.063 273.307L412.141 273.018L413.253 268.214L413.319 267.925L414.431 263.11L414.509 262.832L415.621 258.195H452.295ZM420.67 258.195L419.558 262.832L419.491 263.11L418.379 267.925L418.312 268.214L417.2 273.018L417.133 273.307L416.021 278.122L415.955 278.411L414.843 283.126H415.143L416.255 278.411L416.322 278.122L417.434 273.307L417.5 273.018L418.612 268.214L418.679 267.925L419.791 263.11L419.858 262.832L420.97 258.195H420.67ZM425.896 258.195L424.784 262.832L424.717 263.11L423.605 267.925L423.539 268.214L422.427 273.018L422.36 273.307L421.248 278.122L421.181 278.411L420.069 283.126H420.369L421.481 278.411L421.559 278.122L422.671 273.307L422.738 273.018L423.85 268.214L423.928 267.925L425.04 263.11L425.106 262.832L426.218 258.195H425.896ZM431.133 258.195L430.021 262.832L429.955 263.11L428.843 267.925L428.776 268.214L427.664 273.018L427.597 273.307L426.485 278.122L426.419 278.411L425.307 283.126H425.596L426.708 278.411L426.774 278.122L427.886 273.307L427.953 273.018L429.065 268.214L429.132 267.925L430.244 263.11L430.311 262.832L431.423 258.195H431.133ZM436.36 258.195L435.248 262.832L435.181 263.11L434.069 267.925L434.002 268.214L432.89 273.018L432.824 273.307L431.712 278.122L431.645 278.411L430.533 283.126H430.833L431.945 278.411L432.012 278.122L433.124 273.307L433.202 273.018L434.314 268.214L434.381 267.925L435.493 263.11L435.559 262.832L436.671 258.195H436.36ZM441.597 258.195L440.485 262.832L440.419 263.11L439.307 267.925L439.229 268.214L438.117 273.018L438.05 273.307L436.938 278.122L436.871 278.411L435.759 283.126H435.904L437.016 278.411L437.083 278.122L438.195 273.307L438.261 273.018L439.373 268.214L439.44 267.925L440.552 263.11L440.619 262.832L441.731 258.195H441.597ZM446.824 258.195L445.712 262.832L445.645 263.11L444.533 267.925L444.466 268.214L443.354 273.018L443.288 273.307L442.176 278.122L442.109 278.411L440.997 283.126H441.286L442.398 278.411L442.465 278.122L443.577 273.307L443.643 273.018L444.755 268.214L444.822 267.925L445.934 263.11L446.001 262.832L447.113 258.195H446.824ZM414.476 262.832L414.398 263.11H451.094L451.161 262.832H414.476ZM413.253 267.925L413.186 268.214H449.882L449.949 267.925H413.253ZM412.029 273.018L411.951 273.307H448.647L448.714 273.018H412.029ZM410.795 278.122L410.728 278.411H447.424L447.491 278.122H410.795Z" fill="white"/>
<path d="M413.531 256.016C413.362 256.008 413.197 255.965 413.046 255.891C412.895 255.816 412.761 255.711 412.652 255.582C412.439 255.293 412.305 254.953 412.264 254.596C412.223 254.239 412.276 253.877 412.419 253.547C412.73 252.513 413.531 252.079 414.075 252.19C414.62 252.302 415.021 252.735 414.932 253.736C414.926 253.811 414.891 253.88 414.835 253.93C414.779 253.98 414.706 254.006 414.631 254.003C414.556 253.995 414.486 253.958 414.437 253.9C414.387 253.842 414.361 253.768 414.365 253.692C414.365 253.169 414.253 252.813 413.964 252.758C413.675 252.702 413.175 253.002 412.963 253.714C412.859 253.953 412.816 254.214 412.837 254.474C412.858 254.734 412.944 254.985 413.086 255.204C413.14 255.28 413.212 255.341 413.295 255.382C413.379 255.422 413.471 255.442 413.564 255.438C413.604 255.426 413.646 255.423 413.686 255.43C413.727 255.436 413.767 255.451 413.801 255.473C413.836 255.496 413.865 255.526 413.888 255.561C413.91 255.596 413.924 255.635 413.93 255.676C413.935 255.717 413.932 255.759 413.92 255.799C413.908 255.838 413.888 255.875 413.861 255.906C413.833 255.937 413.8 255.962 413.762 255.979C413.724 255.996 413.683 256.005 413.642 256.005L413.531 256.016Z" fill="#A6A6A6"/>
<path d="M417 256.016C416.832 256.008 416.667 255.965 416.515 255.891C416.364 255.816 416.23 255.711 416.122 255.582C415.909 255.29 415.776 254.948 415.735 254.59C415.694 254.231 415.747 253.868 415.888 253.536C416.211 252.502 417 252.068 417.545 252.179C418.09 252.291 418.49 252.724 418.412 253.725C418.404 253.801 418.367 253.87 418.309 253.92C418.251 253.969 418.177 253.995 418.101 253.992C418.063 253.989 418.027 253.979 417.993 253.962C417.96 253.944 417.93 253.92 417.906 253.891C417.882 253.862 417.865 253.828 417.854 253.792C417.844 253.756 417.841 253.718 417.845 253.681C417.845 253.158 417.734 252.802 417.445 252.746C417.156 252.691 416.655 252.991 416.444 253.703C416.338 253.941 416.293 254.202 416.312 254.462C416.332 254.722 416.415 254.973 416.555 255.193C416.612 255.269 416.686 255.33 416.771 255.371C416.856 255.411 416.95 255.43 417.045 255.426C417.084 255.415 417.126 255.412 417.167 255.419C417.208 255.425 417.247 255.44 417.282 255.462C417.317 255.485 417.346 255.515 417.368 255.55C417.39 255.585 417.405 255.624 417.41 255.665C417.416 255.706 417.413 255.748 417.401 255.788C417.389 255.827 417.369 255.864 417.341 255.895C417.314 255.926 417.28 255.951 417.243 255.968C417.205 255.985 417.164 255.994 417.122 255.994L417 256.016Z" fill="#A6A6A6"/>
<path d="M420.569 256.016C420.399 256.008 420.233 255.966 420.08 255.891C419.927 255.817 419.791 255.711 419.68 255.582C419.471 255.29 419.341 254.95 419.303 254.594C419.264 254.237 419.317 253.877 419.457 253.547C419.769 252.513 420.569 252.079 421.114 252.19C421.659 252.302 422.059 252.735 421.971 253.736C421.979 253.778 421.978 253.821 421.967 253.863C421.957 253.904 421.938 253.943 421.91 253.976C421.883 254.009 421.849 254.036 421.811 254.054C421.772 254.072 421.73 254.082 421.687 254.082C421.644 254.082 421.602 254.072 421.563 254.054C421.525 254.036 421.491 254.009 421.463 253.976C421.436 253.943 421.417 253.904 421.407 253.863C421.396 253.821 421.395 253.778 421.403 253.736C421.403 253.214 421.292 252.858 421.003 252.802C420.714 252.746 420.214 253.047 420.002 253.758C419.896 253.997 419.851 254.257 419.871 254.517C419.89 254.777 419.973 255.029 420.114 255.248C420.17 255.324 420.245 255.384 420.33 255.425C420.415 255.465 420.508 255.485 420.603 255.482C420.643 255.471 420.684 255.468 420.725 255.474C420.766 255.48 420.805 255.495 420.84 255.518C420.875 255.541 420.904 255.57 420.926 255.605C420.949 255.64 420.963 255.68 420.969 255.721C420.974 255.762 420.971 255.804 420.959 255.843C420.947 255.883 420.927 255.92 420.9 255.951C420.872 255.982 420.839 256.007 420.801 256.024C420.763 256.041 420.722 256.049 420.681 256.049L420.569 256.016Z" fill="#A6A6A6"/>
<path d="M424.083 256.016C423.915 256.008 423.75 255.965 423.599 255.891C423.448 255.816 423.314 255.711 423.205 255.582C422.995 255.291 422.863 254.952 422.822 254.595C422.781 254.239 422.833 253.878 422.971 253.547C423.283 252.513 424.083 252.079 424.628 252.19C425.173 252.302 425.574 252.735 425.496 253.736C425.487 253.812 425.45 253.882 425.393 253.931C425.335 253.981 425.26 254.006 425.184 254.003C425.147 254 425.11 253.99 425.077 253.973C425.043 253.955 425.014 253.931 424.99 253.902C424.966 253.873 424.948 253.839 424.937 253.803C424.927 253.767 424.924 253.729 424.929 253.692C424.929 253.169 424.817 252.813 424.528 252.758C424.239 252.702 423.739 253.002 423.516 253.714C423.415 253.954 423.373 254.215 423.394 254.474C423.416 254.733 423.499 254.984 423.639 255.204C423.695 255.28 423.769 255.341 423.854 255.382C423.939 255.422 424.033 255.442 424.128 255.438C424.198 255.438 424.265 255.463 424.317 255.509C424.369 255.555 424.403 255.618 424.413 255.687C424.422 255.756 424.407 255.826 424.368 255.885C424.33 255.943 424.273 255.986 424.206 256.005L424.083 256.016Z" fill="#A6A6A6"/>
<path d="M427.597 256.016C427.429 256.008 427.264 255.965 427.113 255.891C426.962 255.816 426.828 255.711 426.719 255.582C426.508 255.291 426.377 254.951 426.338 254.594C426.299 254.237 426.354 253.876 426.496 253.547C426.808 252.513 427.608 252.079 428.153 252.19C428.698 252.302 429.099 252.735 429.01 253.736C429.018 253.778 429.017 253.821 429.006 253.863C428.996 253.904 428.977 253.943 428.95 253.976C428.922 254.009 428.888 254.036 428.85 254.054C428.811 254.072 428.769 254.082 428.726 254.082C428.683 254.082 428.641 254.072 428.602 254.054C428.564 254.036 428.53 254.009 428.503 253.976C428.475 253.943 428.456 253.904 428.446 253.863C428.435 253.821 428.434 253.778 428.442 253.736C428.442 253.214 428.331 252.858 428.042 252.802C427.753 252.746 427.253 253.047 427.041 253.758C426.935 253.997 426.89 254.257 426.91 254.517C426.929 254.777 427.012 255.029 427.153 255.248C427.209 255.324 427.284 255.384 427.369 255.425C427.454 255.465 427.548 255.485 427.642 255.482C427.682 255.471 427.723 255.468 427.764 255.474C427.805 255.48 427.845 255.495 427.879 255.518C427.914 255.541 427.943 255.57 427.965 255.605C427.988 255.64 428.002 255.68 428.008 255.721C428.013 255.762 428.01 255.804 427.998 255.843C427.986 255.883 427.966 255.92 427.939 255.951C427.911 255.982 427.878 256.007 427.84 256.024C427.802 256.041 427.761 256.049 427.72 256.049L427.597 256.016Z" fill="#A6A6A6"/>
<path d="M431.122 256.016C430.954 256.008 430.789 255.965 430.638 255.891C430.487 255.816 430.353 255.711 430.244 255.582C430.031 255.293 429.897 254.953 429.856 254.596C429.815 254.239 429.868 253.877 430.01 253.547C430.322 252.513 431.122 252.079 431.667 252.19C432.212 252.302 432.612 252.735 432.535 253.736C432.526 253.812 432.489 253.882 432.432 253.931C432.374 253.981 432.299 254.006 432.223 254.003C432.148 253.995 432.078 253.958 432.028 253.9C431.979 253.842 431.953 253.768 431.956 253.692C431.956 253.169 431.856 252.813 431.567 252.758C431.278 252.702 430.778 253.002 430.555 253.714C430.451 253.953 430.408 254.214 430.429 254.474C430.45 254.734 430.536 254.985 430.678 255.204C430.731 255.28 430.803 255.341 430.887 255.382C430.97 255.422 431.063 255.442 431.156 255.438C431.196 255.426 431.237 255.423 431.278 255.43C431.319 255.436 431.358 255.451 431.393 255.473C431.428 255.496 431.457 255.526 431.479 255.561C431.502 255.596 431.516 255.635 431.522 255.676C431.527 255.717 431.524 255.759 431.512 255.799C431.5 255.838 431.48 255.875 431.453 255.906C431.425 255.937 431.392 255.962 431.354 255.979C431.316 255.996 431.275 256.005 431.234 256.005L431.122 256.016Z" fill="#A6A6A6"/>
<path d="M434.636 256.016C434.468 256.008 434.303 255.965 434.152 255.891C434.001 255.816 433.866 255.711 433.758 255.582C433.547 255.291 433.416 254.951 433.377 254.594C433.338 254.237 433.393 253.876 433.535 253.547C433.847 252.513 434.647 252.079 435.192 252.19C435.737 252.302 436.138 252.735 436.049 253.736C436.057 253.778 436.056 253.821 436.045 253.863C436.035 253.904 436.016 253.943 435.988 253.976C435.961 254.009 435.927 254.036 435.889 254.054C435.85 254.072 435.808 254.082 435.765 254.082C435.722 254.082 435.68 254.072 435.641 254.054C435.603 254.036 435.569 254.009 435.541 253.976C435.514 253.943 435.495 253.904 435.485 253.863C435.474 253.821 435.473 253.778 435.481 253.736C435.481 253.214 435.37 252.858 435.081 252.802C434.792 252.746 434.292 253.047 434.08 253.758C433.974 253.997 433.929 254.257 433.948 254.517C433.968 254.777 434.051 255.029 434.192 255.248C434.248 255.324 434.322 255.385 434.407 255.426C434.492 255.467 434.586 255.486 434.681 255.482C434.721 255.471 434.762 255.468 434.803 255.474C434.844 255.48 434.883 255.495 434.918 255.518C434.953 255.541 434.982 255.57 435.004 255.605C435.027 255.64 435.041 255.68 435.047 255.721C435.052 255.762 435.049 255.804 435.037 255.843C435.025 255.883 435.005 255.92 434.978 255.951C434.95 255.982 434.917 256.007 434.879 256.024C434.841 256.041 434.8 256.049 434.759 256.049L434.636 256.016Z" fill="#A6A6A6"/>
<path d="M438.128 256.016C437.96 256.008 437.795 255.965 437.643 255.891C437.492 255.816 437.358 255.711 437.25 255.582C437.034 255.292 436.899 254.95 436.858 254.59C436.817 254.231 436.872 253.868 437.016 253.536C437.327 252.502 438.128 252.068 438.673 252.179C439.218 252.291 439.618 252.724 439.529 253.725C439.523 253.8 439.489 253.869 439.433 253.919C439.377 253.969 439.304 253.995 439.229 253.992C439.153 253.984 439.084 253.947 439.034 253.889C438.984 253.831 438.959 253.757 438.962 253.681C438.962 253.158 438.851 252.802 438.562 252.746C438.273 252.691 437.772 252.991 437.561 253.703C437.457 253.942 437.413 254.203 437.434 254.463C437.456 254.723 437.541 254.974 437.683 255.193C437.737 255.269 437.809 255.33 437.892 255.371C437.976 255.411 438.068 255.431 438.161 255.426C438.201 255.415 438.243 255.412 438.284 255.419C438.325 255.425 438.364 255.44 438.399 255.462C438.433 255.485 438.463 255.515 438.485 255.55C438.507 255.585 438.522 255.624 438.527 255.665C438.533 255.706 438.53 255.748 438.518 255.788C438.506 255.827 438.485 255.864 438.458 255.895C438.431 255.926 438.397 255.951 438.359 255.968C438.322 255.985 438.281 255.994 438.239 255.994L438.128 256.016Z" fill="#A6A6A6"/>
<path d="M441.675 256.016C441.507 256.008 441.342 255.965 441.191 255.891C441.04 255.816 440.905 255.711 440.797 255.582C440.587 255.291 440.455 254.952 440.414 254.595C440.373 254.239 440.424 253.878 440.563 253.547C440.886 252.513 441.675 252.079 442.22 252.19C442.765 252.302 443.165 252.735 443.087 253.736C443.079 253.812 443.042 253.882 442.984 253.931C442.927 253.981 442.852 254.006 442.776 254.003C442.701 253.995 442.633 253.957 442.585 253.899C442.537 253.841 442.514 253.767 442.52 253.692C442.52 253.169 442.409 252.813 442.12 252.758C441.831 252.702 441.331 253.002 441.119 253.714C441.013 253.952 440.968 254.213 440.987 254.473C441.007 254.733 441.09 254.984 441.23 255.204C441.287 255.28 441.361 255.341 441.446 255.382C441.531 255.422 441.625 255.442 441.72 255.438C441.76 255.426 441.801 255.423 441.842 255.43C441.883 255.436 441.922 255.451 441.957 255.473C441.992 255.496 442.021 255.526 442.043 255.561C442.066 255.596 442.08 255.635 442.086 255.676C442.091 255.717 442.088 255.759 442.076 255.799C442.064 255.838 442.044 255.875 442.017 255.906C441.989 255.937 441.956 255.962 441.918 255.979C441.88 255.996 441.839 256.005 441.798 256.005L441.675 256.016Z" fill="#A6A6A6"/>
<path d="M445.2 256.016C445.03 256.008 444.864 255.966 444.711 255.891C444.558 255.817 444.422 255.711 444.311 255.582C444.102 255.29 443.972 254.95 443.933 254.594C443.894 254.237 443.948 253.877 444.088 253.547C444.4 252.513 445.2 252.079 445.745 252.19C446.29 252.302 446.69 252.735 446.601 253.736C446.61 253.778 446.609 253.821 446.598 253.863C446.588 253.904 446.569 253.943 446.541 253.976C446.514 254.009 446.48 254.036 446.442 254.054C446.403 254.072 446.361 254.082 446.318 254.082C446.275 254.082 446.233 254.072 446.194 254.054C446.156 254.036 446.122 254.009 446.094 253.976C446.067 253.943 446.048 253.904 446.037 253.863C446.027 253.821 446.026 253.778 446.034 253.736C446.034 253.214 445.923 252.858 445.634 252.802C445.345 252.746 444.844 253.047 444.633 253.758C444.527 253.997 444.482 254.257 444.501 254.517C444.521 254.777 444.604 255.029 444.744 255.248C444.801 255.324 444.875 255.384 444.961 255.425C445.046 255.465 445.139 255.485 445.234 255.482C445.274 255.471 445.315 255.468 445.356 255.474C445.397 255.48 445.436 255.495 445.471 255.518C445.506 255.541 445.535 255.57 445.557 255.605C445.58 255.64 445.594 255.68 445.6 255.721C445.605 255.762 445.602 255.804 445.59 255.843C445.578 255.883 445.558 255.92 445.53 255.951C445.503 255.982 445.47 256.007 445.432 256.024C445.394 256.041 445.353 256.049 445.312 256.049L445.2 256.016Z" fill="#A6A6A6"/>
<path d="M448.714 256.016C448.546 256.008 448.381 255.965 448.23 255.891C448.078 255.816 447.944 255.711 447.836 255.582C447.625 255.291 447.494 254.952 447.453 254.595C447.412 254.239 447.463 253.878 447.602 253.547C447.914 252.513 448.714 252.079 449.259 252.19C449.804 252.302 450.204 252.735 450.126 253.736C450.118 253.812 450.081 253.882 450.023 253.931C449.966 253.981 449.891 254.006 449.815 254.003C449.778 254 449.741 253.99 449.707 253.973C449.674 253.955 449.644 253.931 449.62 253.902C449.597 253.873 449.579 253.839 449.568 253.803C449.558 253.767 449.555 253.729 449.559 253.692C449.559 253.169 449.448 252.813 449.159 252.758C448.87 252.702 448.369 253.002 448.147 253.714C448.046 253.954 448.004 254.215 448.025 254.474C448.046 254.733 448.13 254.984 448.269 255.204C448.326 255.28 448.4 255.341 448.485 255.382C448.57 255.422 448.664 255.442 448.759 255.438C448.834 255.428 448.91 255.448 448.97 255.494C449.03 255.54 449.07 255.607 449.081 255.682C449.088 255.757 449.067 255.831 449.021 255.891C448.976 255.95 448.91 255.991 448.837 256.005L448.714 256.016Z" fill="#A6A6A6"/>
<path d="M452.228 256.016C452.06 256.008 451.895 255.965 451.744 255.891C451.592 255.816 451.458 255.711 451.35 255.582C451.139 255.291 451.008 254.951 450.969 254.594C450.93 254.237 450.985 253.876 451.127 253.547C451.439 252.513 452.239 252.079 452.784 252.19C453.329 252.302 453.729 252.735 453.64 253.736C453.649 253.778 453.648 253.821 453.637 253.863C453.627 253.904 453.607 253.943 453.58 253.976C453.553 254.009 453.519 254.036 453.48 254.054C453.442 254.072 453.4 254.082 453.357 254.082C453.314 254.082 453.272 254.072 453.233 254.054C453.195 254.036 453.16 254.009 453.133 253.976C453.106 253.943 453.087 253.904 453.076 253.863C453.066 253.821 453.065 253.778 453.073 253.736C453.073 253.214 452.962 252.858 452.673 252.802C452.384 252.746 451.883 253.047 451.672 253.758C451.566 253.997 451.521 254.257 451.54 254.517C451.56 254.777 451.643 255.029 451.783 255.248C451.84 255.324 451.914 255.384 452 255.425C452.085 255.465 452.178 255.485 452.273 255.482C452.312 255.471 452.354 255.468 452.395 255.474C452.436 255.48 452.475 255.495 452.51 255.518C452.545 255.541 452.574 255.57 452.596 255.605C452.618 255.64 452.633 255.68 452.638 255.721C452.644 255.762 452.641 255.804 452.629 255.843C452.617 255.883 452.597 255.92 452.569 255.951C452.542 255.982 452.508 256.007 452.471 256.024C452.433 256.041 452.392 256.049 452.35 256.049L452.228 256.016Z" fill="#A6A6A6"/>
<path d="M455.753 256.016C455.585 256.008 455.42 255.965 455.269 255.891C455.117 255.816 454.983 255.711 454.875 255.582C454.661 255.293 454.528 254.953 454.487 254.596C454.446 254.239 454.499 253.877 454.641 253.547C454.953 252.513 455.753 252.079 456.298 252.19C456.843 252.302 457.243 252.735 457.165 253.736C457.157 253.812 457.12 253.882 457.062 253.931C457.005 253.981 456.93 254.006 456.854 254.003C456.778 253.995 456.709 253.958 456.659 253.9C456.61 253.842 456.584 253.768 456.587 253.692C456.587 253.169 456.487 252.813 456.198 252.758C455.909 252.702 455.408 253.002 455.186 253.714C455.082 253.953 455.038 254.214 455.06 254.474C455.081 254.734 455.166 254.985 455.308 255.204C455.362 255.28 455.434 255.341 455.518 255.382C455.601 255.422 455.694 255.442 455.787 255.438C455.862 255.428 455.937 255.448 455.998 255.494C456.058 255.54 456.098 255.607 456.109 255.682C456.115 255.72 456.114 255.758 456.105 255.795C456.096 255.831 456.079 255.866 456.056 255.896C456.033 255.926 456.005 255.952 455.972 255.97C455.939 255.989 455.902 256.001 455.864 256.005L455.753 256.016Z" fill="#A6A6A6"/>
<path d="M181.034 284.45H123.877V287.018H181.034V284.45Z" fill="#37474F"/>
<path d="M152.644 284.45H123.877V287.018H152.644V284.45Z" fill="#263238"/>
<path d="M149.553 287.018H93.8528L86.5692 249.188H142.269L149.553 287.018Z" fill="#37474F"/>
<path d="M121.453 268.103C121.5 268.535 121.455 268.971 121.321 269.384C121.186 269.797 120.965 270.176 120.673 270.497C120.381 270.818 120.023 271.073 119.625 271.245C119.226 271.417 118.795 271.502 118.361 271.495C117.438 271.478 116.553 271.124 115.872 270.499C115.192 269.874 114.764 269.022 114.669 268.103C114.63 267.676 114.682 267.245 114.82 266.839C114.958 266.433 115.18 266.061 115.472 265.746C115.763 265.432 116.118 265.182 116.512 265.013C116.906 264.845 117.332 264.761 117.761 264.767C118.676 264.78 119.556 265.126 120.235 265.74C120.915 266.353 121.347 267.194 121.453 268.103Z" fill="white"/>
<path d="M357.33 511.52C354.772 512.343 282.081 511.409 279.345 509.607C278.233 508.951 277.811 498.343 277.6 485.521C277.6 485.388 277.6 485.255 277.6 485.121C277.6 482.475 277.522 479.75 277.511 476.992C277.511 476.614 277.511 476.236 277.511 475.88L281.013 438.128L329.641 438.617L324.849 475.969L324.793 477.448L324.493 485.232V486.033C324.493 486.033 352.148 498.843 354.961 501.134C357.775 503.425 359.877 510.73 357.33 511.52Z" fill="#AD6359"/>
<path d="M357.33 511.52C354.772 512.343 282.081 511.409 279.345 509.607C278.233 508.951 277.811 498.343 277.6 485.521C277.6 485.388 277.6 485.255 277.6 485.121C277.6 482.475 277.522 479.75 277.511 476.992C277.511 476.614 277.511 476.236 277.511 475.88L324.871 476.014L324.815 477.493L324.515 485.277V486.077C324.515 486.077 352.17 498.888 354.984 501.178C357.797 503.469 359.877 510.73 357.33 511.52Z" fill="#EBEBEB"/>
<path d="M357.33 511.52C356.018 511.943 336.269 511.898 316.964 511.52C313.084 511.442 309.18 511.353 305.544 511.253C291.778 510.875 280.402 510.308 279.346 509.618C278.289 508.929 277.822 498.654 277.611 486.066C277.611 485.888 277.611 485.71 277.611 485.533C277.611 485.355 277.611 485.255 277.611 485.121H277.666L324.515 485.21V486.011C324.515 486.011 352.182 498.81 354.984 501.101C357.786 503.391 359.877 510.73 357.33 511.52Z" fill="#A6A6A6"/>
<path d="M356.541 508.718C344.309 508.262 294.836 507.606 282.693 508.039C282.593 508.039 282.593 508.106 282.693 508.117C294.825 508.829 344.286 509.129 356.541 508.918C356.796 508.918 356.796 508.729 356.541 508.718Z" fill="#263238"/>
<path d="M329.719 485.433C324.904 484.465 318.999 485.132 315.263 488.513C315.119 488.646 315.263 488.846 315.474 488.802C320.1 487.38 324.864 486.451 329.686 486.033C329.765 486.037 329.844 486.01 329.903 485.957C329.962 485.904 329.998 485.829 330.003 485.749C330.007 485.67 329.98 485.592 329.927 485.532C329.873 485.473 329.799 485.437 329.719 485.433Z" fill="#263238"/>
<path d="M333.166 487.567C328.362 486.611 322.447 487.267 318.71 490.659C318.566 490.792 318.71 490.992 318.91 490.948C323.542 489.516 328.314 488.584 333.144 488.168C333.211 488.152 333.27 488.116 333.314 488.063C333.357 488.01 333.382 487.945 333.385 487.876C333.387 487.808 333.367 487.741 333.328 487.685C333.288 487.629 333.232 487.588 333.166 487.567Z" fill="#263238"/>
<path d="M336.625 489.714C331.81 488.746 325.905 489.414 322.169 492.805C322.024 492.939 322.169 493.139 322.369 493.094C326.992 491.661 331.757 490.733 336.58 490.325C336.653 490.318 336.721 490.285 336.772 490.232C336.823 490.18 336.854 490.111 336.859 490.038C336.864 489.965 336.844 489.893 336.801 489.833C336.758 489.774 336.696 489.732 336.625 489.714Z" fill="#263238"/>
<path d="M316.92 511.52C313.039 511.442 309.136 511.353 305.5 511.253C291.733 510.875 280.357 510.308 279.301 509.618C278.245 508.929 277.778 498.654 277.566 486.066C277.566 485.888 277.566 485.71 277.566 485.533C277.566 485.355 277.566 485.255 277.566 485.121H277.622C284.06 489.636 306.678 504.692 316.92 511.52Z" fill="#263238"/>
<path d="M327.684 485.388H275.331C275.331 485.388 285.873 363.068 285.461 360.977C284.939 358.242 281.847 345.865 277.733 329.697C276.443 324.637 275.053 319.211 273.608 313.584C269.704 298.372 265.401 281.747 261.654 267.28C256.027 245.607 251.646 228.772 251.646 228.772H296.014C296.014 228.772 301.185 245.163 307.701 266.491C318.321 301.152 332.51 348.857 333.911 360.455C336.169 379.192 327.684 485.388 327.684 485.388Z" fill="#37474F"/>
<path d="M325.371 476.459C317.376 476.292 319.667 476.225 311.671 476.147C307.757 476.147 282.048 475.88 278.389 476.492C278.311 476.492 278.311 476.637 278.389 476.659C282.048 477.259 307.757 477.037 311.671 476.992C319.667 476.926 317.376 476.859 325.371 476.692C325.516 476.681 325.516 476.459 325.371 476.459Z" fill="#263238"/>
<path d="M295.314 353.505C293.601 345.932 291.033 338.515 288.797 331.087C284.261 315.993 279.698 300.911 275.109 285.84C272.818 278.3 270.516 270.761 268.203 263.221C267.025 259.418 265.857 255.615 264.667 251.823C263.477 248.032 262.176 244.418 261.131 240.703C260.697 239.18 260.464 240.014 261.009 241.949C262.121 245.863 263.233 249.733 264.345 253.658C266.569 261.376 268.837 269.085 271.15 276.788C275.687 292.133 280.265 307.461 284.883 322.769L291.822 345.832C293.001 349.477 293.955 353.191 294.68 356.952C295.297 360.894 295.453 364.894 295.147 368.873C294.647 376.89 293.713 384.885 292.979 392.881C292.245 400.876 291.489 408.894 290.755 416.9C289.272 432.839 287.808 448.777 286.362 464.716C286.184 466.729 286.006 468.752 285.851 470.776C285.851 471.455 286.818 471.399 286.896 470.776C288.62 455.019 289.943 439.207 291.422 423.416C292.901 407.626 294.369 392.013 295.87 376.301C296.237 372.364 296.648 368.417 296.659 364.447C296.623 360.761 296.172 357.09 295.314 353.505Z" fill="#263238"/>
<path d="M290.966 228.772C287.886 252.602 282.014 297.282 277.733 329.697C267.725 290.421 251.634 228.772 251.634 228.772H290.966Z" fill="#263238"/>
<path d="M301.863 512.243C299.317 513.077 226.626 512.398 223.879 510.619C222.767 509.952 222.3 499.355 222.044 486.533C222.044 486.4 222.044 486.266 222.044 486.133C222.044 483.486 221.944 480.773 221.933 478.015C221.933 477.626 221.933 477.248 221.933 476.903C221.766 458.4 223.045 439.195 223.045 439.195L270.561 439.507L269.237 476.87V478.349L268.971 486.077V486.878C268.971 486.878 296.682 499.577 299.495 501.868C302.308 504.158 304.41 511.431 301.863 512.243Z" fill="#AD6359"/>
<path d="M301.864 512.243C299.317 513.077 226.626 512.398 223.879 510.619C222.767 509.952 222.3 499.355 222.044 486.533C222.044 486.4 222.044 486.266 222.044 486.133C222.044 483.486 221.944 480.773 221.933 478.015C221.933 477.626 221.933 477.248 221.933 476.903H269.293V478.382L269.026 486.111V486.911C269.026 486.911 296.737 499.61 299.551 501.901C302.364 504.192 304.41 511.431 301.864 512.243Z" fill="#EBEBEB"/>
<path d="M301.863 512.243C299.317 513.077 226.626 512.399 223.879 510.619C222.767 509.952 222.3 499.355 222.044 486.533C222.044 486.4 222.044 486.267 222.044 486.133L268.948 486.044V486.845C268.948 486.845 296.659 499.544 299.473 501.835C302.286 504.125 304.41 511.431 301.863 512.243Z" fill="#A6A6A6"/>
<path d="M301.074 509.418C288.842 509.007 239.369 508.484 227.226 509.007C227.126 509.007 227.126 509.085 227.226 509.085C239.358 509.763 288.809 509.874 301.074 509.618C301.352 509.618 301.352 509.429 301.074 509.418Z" fill="#263238"/>
<path d="M274.164 486.233C269.349 485.288 263.444 485.966 259.708 489.369C259.563 489.502 259.708 489.703 259.908 489.658C264.527 488.213 269.287 487.266 274.108 486.834C274.188 486.841 274.267 486.816 274.328 486.765C274.39 486.714 274.429 486.641 274.436 486.561C274.443 486.482 274.419 486.402 274.368 486.341C274.317 486.279 274.243 486.241 274.164 486.233Z" fill="#263238"/>
<path d="M277.622 488.357C272.807 487.412 266.902 488.101 263.166 491.504C263.021 491.637 263.166 491.838 263.366 491.782C267.99 490.344 272.754 489.401 277.577 488.969C277.65 488.961 277.718 488.928 277.769 488.876C277.82 488.823 277.851 488.754 277.856 488.681C277.861 488.608 277.841 488.536 277.798 488.477C277.755 488.417 277.693 488.375 277.622 488.357Z" fill="#263238"/>
<path d="M281.08 490.492C276.265 489.547 270.361 490.225 266.624 493.628C266.48 493.761 266.624 493.961 266.824 493.917C271.446 492.47 276.211 491.526 281.036 491.104C281.109 491.096 281.176 491.063 281.227 491.011C281.278 490.958 281.309 490.889 281.314 490.816C281.32 490.743 281.299 490.671 281.256 490.612C281.214 490.552 281.151 490.51 281.08 490.492Z" fill="#263238"/>
<path d="M294.569 228.772C294.569 228.772 293.546 250 288.686 266.813C288.297 268.203 287.875 269.571 287.419 270.883C282.965 272.68 278.685 274.88 274.631 277.455C274.631 277.455 274.119 294.535 273.608 313.584C273.04 334.879 272.496 358.631 272.573 363.624C273.018 382.528 270.216 486.155 270.216 486.155L217.874 486.367C217.874 486.367 227.337 370.63 227.271 363.724C227.17 352.604 229.806 303.576 231.841 267.803C233.086 245.763 234.065 228.772 234.065 228.772H294.569Z" fill="#37474F"/>
<path d="M268.426 476.848C260.43 476.714 262.721 476.637 254.726 476.592C250.812 476.592 225.102 476.459 221.444 477.081C221.423 477.081 221.403 477.09 221.389 477.104C221.374 477.119 221.366 477.139 221.366 477.159C221.366 477.18 221.374 477.2 221.389 477.214C221.403 477.229 221.423 477.237 221.444 477.237C225.102 477.838 250.823 477.504 254.737 477.448C262.732 477.337 260.43 477.282 268.426 477.081C268.57 477.048 268.57 476.848 268.426 476.848Z" fill="#263238"/>
<path d="M238.513 236.356C237.545 265.557 236.522 294.769 235.177 323.948C233.831 353.127 232.097 382.517 229.617 411.74C228.249 428.064 226.959 451.027 225.169 467.34C225.169 467.451 225.325 467.496 225.336 467.34C229.15 438.428 231.274 402.555 233.12 373.398C234.966 344.242 236.267 315.052 237.256 285.862C237.812 269.36 238.246 252.835 238.746 236.322C238.88 236.1 238.513 236.122 238.513 236.356Z" fill="#263238"/>
<path d="M289.598 269.616C284.393 271.772 279.385 274.376 274.631 277.4C274.442 277.511 274.631 277.811 274.786 277.711C279.835 275.253 284.994 272.896 289.898 270.16C289.942 270.109 289.968 270.045 289.975 269.978C289.981 269.911 289.967 269.844 289.935 269.785C289.902 269.726 289.853 269.678 289.793 269.648C289.733 269.618 289.665 269.607 289.598 269.616Z" fill="#263238"/>
<path d="M307.69 266.491L288.686 266.813L261.654 267.28L231.841 267.803C233.086 245.763 234.065 228.772 234.065 228.772H295.959C295.959 228.772 301.174 245.163 307.69 266.491Z" fill="#263238"/>
<path d="M336.135 121.931L328.618 154.824C328.296 155.78 328.796 156.558 329.73 156.536L346.599 156.158C347.113 156.109 347.602 155.914 348.01 155.597C348.417 155.28 348.726 154.854 348.901 154.368L356.418 121.486C356.752 120.519 356.251 119.751 355.306 119.762L338.437 120.14C337.924 120.193 337.436 120.388 337.029 120.705C336.622 121.022 336.312 121.446 336.135 121.931Z" fill="#A6A6A6"/>
<path d="M338.148 121.864L330.62 154.757C330.297 155.724 330.798 156.492 331.732 156.469L348.601 156.103C349.115 156.053 349.604 155.858 350.012 155.541C350.419 155.224 350.728 154.798 350.903 154.312L358.42 121.419C358.753 120.452 358.253 119.685 357.308 119.707L340.439 120.074C339.927 120.125 339.44 120.321 339.035 120.638C338.629 120.955 338.322 121.38 338.148 121.864Z" fill="#DBDBDB"/>
<path d="M341.373 124.7C342.165 124.7 342.807 124.057 342.807 123.265C342.807 122.473 342.165 121.831 341.373 121.831C340.581 121.831 339.938 122.473 339.938 123.265C339.938 124.057 340.581 124.7 341.373 124.7Z" fill="#455A64"/>
<path d="M282.837 172.66C292.656 192.865 314.451 219.008 323.325 218.997C327.551 218.997 335.101 219.909 340.572 214.983C352.526 204.241 362.356 183.847 364.269 172.249C364.947 168.112 344.776 159.45 341.851 162.841C335.023 170.792 327.173 186.327 325.938 186.249C321.39 185.971 303.443 171.415 290.91 161.162C275.687 148.719 278.923 164.576 282.837 172.66Z" fill="#AD6359"/>
<path d="M364.48 150.932C362.256 142.592 360.399 140.801 362.256 132.762C363.479 127.48 360.633 124.444 356.952 128.714C350.947 135.697 351.57 147.062 352.927 150.954L364.48 150.932Z" fill="#AD6359"/>
<path d="M363.335 175.852C363.335 175.852 366.915 164.142 365.414 155.013C364.38 148.708 360.588 135.23 342.796 128.325C338.582 126.69 331.398 127.346 337.325 132.528C341.528 136.209 345.309 137.265 347.333 139.845C347.333 139.845 338.304 141.769 336.836 146.061C335.542 149.816 334.52 153.658 333.778 157.559C334.462 157.854 335.164 158.107 335.879 158.315C335.879 158.315 334.623 162.385 337.692 168.079L363.335 175.852Z" fill="#AD6359"/>
<path d="M363.468 149.153C360.877 147.018 355.328 142.581 349.524 140.546C343.074 138.322 330.053 135.631 328.396 140.412C327.206 143.915 332.099 145.35 332.099 145.35C332.099 145.35 326.483 145.35 326.094 148.797C325.738 151.899 329.586 152.789 329.586 152.789C329.586 152.789 326.183 153.4 326.428 156.447C326.706 160.117 333.789 158.226 337.281 161.696C338.048 162.474 363.468 149.153 363.468 149.153Z" fill="#AD6359"/>
<path d="M348.256 147.751C343.289 145.31 337.695 144.441 332.221 145.261C332.088 145.261 332.032 145.405 332.165 145.405C337.603 145.554 343.003 146.365 348.245 147.818C348.245 147.818 348.29 147.774 348.256 147.751Z" fill="#263238"/>
<path d="M345.832 154.19C343.308 153.078 335.824 151.276 329.675 152.666C329.541 152.666 329.497 152.811 329.619 152.811C335.057 152.678 340.492 153.163 345.821 154.257C345.821 154.257 345.832 154.212 345.832 154.19Z" fill="#263238"/>
<path d="M364.569 180.733C364.569 180.733 348.534 213.393 338.993 217.274C329.452 221.155 323.759 220.387 320.2 219.898C318.826 219.593 317.535 218.989 316.42 218.13C306.701 211.38 289.153 187.283 281.948 173.706C276.565 163.497 277.033 154.19 285.028 157.026C287.732 158.144 290.234 159.699 292.434 161.629C307.223 173.706 324.359 185.17 325.16 184.737C325.961 184.303 334.212 170.87 334.212 170.87L364.569 180.733Z" fill="#37474F"/>
<path d="M316.464 218.13C306.745 211.38 289.198 187.283 281.992 173.706C276.61 163.497 277.077 154.19 285.072 157.026C289.276 165.099 307.479 200.16 316.464 218.13Z" fill="#263238"/>
<path d="M360.577 186.694C359.465 186.104 358.275 185.726 357.13 185.237C355.985 184.748 354.817 184.314 353.649 183.869C351.425 183.039 349.161 182.227 346.855 181.434L340.05 179.032C337.703 178.22 335.346 177.275 332.944 176.652C332.934 176.649 332.923 176.647 332.912 176.648C332.901 176.648 332.891 176.651 332.881 176.655C332.871 176.66 332.862 176.667 332.855 176.675C332.848 176.683 332.842 176.692 332.838 176.702C332.835 176.713 332.833 176.723 332.834 176.734C332.834 176.745 332.837 176.756 332.841 176.766C332.846 176.775 332.853 176.784 332.861 176.791C332.869 176.799 332.878 176.804 332.888 176.808C335.112 177.92 337.536 178.654 339.861 179.532L346.733 182.123C349.023 182.98 351.325 183.825 353.638 184.636C354.75 185.037 355.862 185.426 357.063 185.748C358.204 186.161 359.366 186.514 360.544 186.805C360.644 186.872 360.655 186.738 360.577 186.694Z" fill="#263238"/>
<path d="M303.509 247.253C302.308 248.443 228.538 244.54 228.182 244.062C227.215 242.761 249.121 167.134 266.424 154.713C270.138 152.044 283.794 153.211 285.628 154.045C287.708 154.979 293.179 165.488 295.47 173.928C300.051 190.83 304.555 246.208 303.509 247.253Z" fill="#EBEBEB"/>
<path d="M278.801 171.37L282.548 165.499L286.696 170.559L285.361 175.307L280.969 175.629L278.801 171.37Z" fill="#37B44D"/>
<path d="M280.969 175.629L276.221 224.524L284.527 241.237L290.288 223.256L285.361 175.307L280.969 175.629Z" fill="#37B44D"/>
<path d="M309.703 264.245C309.703 264.245 299.984 263.755 286.985 263.055C286.129 258.44 284.316 247.175 284.127 247.175C283.983 247.42 280.369 258.295 279.19 262.643C266.569 261.943 252.279 261.142 241.026 260.419C229.773 259.696 221.388 259.04 220.954 258.696C220.521 258.351 226.904 243.294 227.626 241.07C233.186 223.479 243.05 188.551 250.522 175.585C253.836 169.677 257.637 164.057 261.887 158.782C262.321 158.282 262.71 157.815 263.088 157.392L265.768 154.346L285.784 196.168C285.851 195.367 288.52 157.537 288.52 157.537C294.181 166.744 298.312 176.809 300.752 187.339C305.2 207.088 304.855 235.744 305.989 249.444C306 249.444 309.703 263.967 309.703 264.245Z" fill="#37474F"/>
<path d="M261.876 158.782L241.026 260.419C229.672 259.674 221.388 259.04 220.954 258.696C220.521 258.351 226.904 243.294 227.626 241.07C233.186 223.479 243.05 188.551 250.523 175.585C253.832 169.677 257.63 164.057 261.876 158.782Z" fill="#263238"/>
<path d="M285.784 196.168C285.884 200.427 285.851 204.675 285.784 208.934C285.717 213.193 285.595 217.44 285.506 221.688C285.417 225.936 285.195 230.184 284.972 234.432L284.616 240.804C284.45 242.928 284.327 245.051 284.138 247.175C284.072 245.04 284.138 242.916 284.072 240.792V234.41C284.072 230.151 284.261 225.903 284.35 221.655C284.438 217.407 284.661 213.159 284.883 208.911C285.106 204.664 285.384 200.416 285.784 196.168Z" fill="#263238"/>
<path d="M280.925 213.27C282.098 213.27 283.048 212.32 283.048 211.147C283.048 209.974 282.098 209.023 280.925 209.023C279.752 209.023 278.801 209.974 278.801 211.147C278.801 212.32 279.752 213.27 280.925 213.27Z" fill="#263238"/>
<path d="M280.191 225.291C281.364 225.291 282.315 224.34 282.315 223.167C282.315 221.994 281.364 221.043 280.191 221.043C279.018 221.043 278.067 221.994 278.067 223.167C278.067 224.34 279.018 225.291 280.191 225.291Z" fill="#263238"/>
<path d="M279.457 237.301C280.63 237.301 281.581 236.35 281.581 235.177C281.581 234.004 280.63 233.053 279.457 233.053C278.284 233.053 277.333 234.004 277.333 235.177C277.333 236.35 278.284 237.301 279.457 237.301Z" fill="#263238"/>
<path d="M264.256 306.99H169.113V364.636H264.256V306.99Z" fill="#37B44D"/>
<path opacity="0.1" d="M264.256 306.99H169.113V334.134H264.256V306.99Z" fill="black"/>
<path d="M266.513 298.516H166.867V325.416H266.513V298.516Z" fill="#37B44D"/>
<path d="M237.668 283.171V298.516H230.451V289.787H202.929V298.516H195.712V283.171H237.668Z" fill="#263238"/>
<path d="M187.038 318.999H180.544V331.854H187.038V318.999Z" fill="#263238"/>
<path d="M252.835 318.999H246.341V331.854H252.835V318.999Z" fill="#263238"/>
<path d="M256.75 160.918C232.875 177.342 215.606 203.073 213.982 208.511C209.968 221.666 203.974 244.874 203.051 255.293C202.706 259.14 232.397 258.418 232.897 254.314C234.443 241.46 239.97 213.482 240.114 213.004C241.104 209.668 249.522 194.967 258.184 179.032C266.847 163.097 266.791 154.012 256.75 160.918Z" fill="#AD6359"/>
<path d="M230.529 294.914C229.627 295.184 228.665 295.172 227.771 294.88C226.876 294.588 226.093 294.029 225.525 293.279C224.515 294.511 223.107 295.352 221.544 295.659C218.753 296.07 216.896 291.878 216.896 291.878C215.579 292.938 213.976 293.581 212.292 293.724C209.579 293.835 207.11 289.876 207.11 289.876C205.359 290.181 203.556 289.85 202.028 288.942C199.471 287.285 198.203 279.101 198.247 274.486C198.292 269.871 202.695 256.85 203.318 254.281H232.897C232.897 254.281 238.58 274.998 237.757 280.413C237.067 285.006 233.931 293.757 230.529 294.914Z" fill="#AD6359"/>
<path d="M226.003 293.079C227.904 288.408 228.316 283.427 229.005 278.489C229.005 278.378 228.85 278.356 228.838 278.489C228.205 283.404 226.614 288.141 225.769 293.034C225.771 293.062 225.781 293.088 225.799 293.108C225.817 293.129 225.842 293.143 225.869 293.148C225.896 293.153 225.923 293.149 225.948 293.137C225.972 293.124 225.992 293.104 226.003 293.079Z" fill="#263238"/>
<path d="M217.285 291.778C217.616 290.676 217.8 289.536 217.83 288.386C217.926 287.178 218.015 285.966 218.097 284.75C218.23 282.318 218.304 279.879 218.319 277.433C218.319 277.333 218.163 277.299 218.152 277.433C218.008 279.857 217.83 282.281 217.585 284.705C217.463 285.917 217.329 287.118 217.196 288.33C216.987 289.459 216.905 290.608 216.951 291.755C216.961 291.79 216.982 291.822 217.011 291.844C217.039 291.867 217.074 291.881 217.11 291.883C217.147 291.886 217.183 291.877 217.214 291.858C217.245 291.839 217.27 291.811 217.285 291.778Z" fill="#263238"/>
<path d="M207.11 289.776C207.401 288.777 207.513 287.734 207.444 286.696C207.444 285.584 207.488 284.472 207.577 283.36C207.677 281.136 207.788 278.912 207.966 276.688C207.96 276.671 207.949 276.656 207.934 276.646C207.919 276.635 207.901 276.63 207.883 276.63C207.865 276.63 207.847 276.635 207.832 276.646C207.817 276.656 207.806 276.671 207.799 276.688C207.599 278.912 207.377 281.136 207.199 283.438C207.11 284.55 207.032 285.662 206.954 286.774C206.782 287.775 206.782 288.798 206.954 289.798C206.954 289.798 207.099 289.821 207.11 289.776Z" fill="#263238"/>
<path d="M234.309 254.648L201.861 252.035C201.861 252.035 209.011 217.085 212.881 207.644C216.751 198.203 241.371 170.581 255.849 160.473C269.471 150.976 269.048 159.728 262.721 172.171C256.394 184.614 241.504 213.07 240.792 215.317C240.081 217.563 234.309 254.648 234.309 254.648Z" fill="#37474F"/>
<path d="M233.731 247.976C232.519 247.698 231.252 247.653 230.028 247.487C228.805 247.32 227.549 247.198 226.303 247.086C223.912 246.864 221.51 246.686 219.108 246.519L211.914 246.019C209.445 245.852 206.921 245.563 204.441 245.596C204.33 245.596 204.308 245.752 204.441 245.763C206.888 246.197 209.412 246.319 211.892 246.553L219.197 247.242C221.644 247.464 224.079 247.676 226.526 247.843C227.726 247.931 228.927 248.009 230.128 248.043C231.329 248.076 232.553 248.221 233.765 248.143C233.842 248.109 233.82 247.976 233.731 247.976Z" fill="#263238"/>
<path d="M265.546 154.746C264.856 156.97 264.111 159.272 263.399 161.529C262.688 163.786 261.898 166.033 261.175 168.29L260.853 167.756C262.543 167.945 264.189 168.09 265.913 168.301L270.972 168.879L271.828 168.98L271.317 169.691C269.171 172.66 267.047 175.652 264.834 178.587L264.745 177.876C268.281 180.889 271.862 183.858 275.342 186.927C278.823 189.996 282.348 193.032 285.784 196.168C282.077 193.336 278.434 190.452 274.853 187.517C271.206 184.625 267.658 181.634 264.067 178.687L263.689 178.376L263.978 177.964C266.113 174.973 268.314 172.037 270.505 169.068L270.85 169.869L265.768 169.246C264.078 169.046 262.432 168.779 260.719 168.557L260.219 168.479L260.397 168.023C261.242 165.799 262.065 163.575 262.921 161.351C263.777 159.127 264.656 156.937 265.546 154.746Z" fill="#263238"/>
<path d="M288.008 156.547C288.575 157.559 289.12 158.571 289.654 159.594C290.188 160.617 290.766 161.618 291.266 162.652L294.413 168.813L294.78 169.536H293.957L288.975 169.291L289.409 168.401C291.177 170.414 292.945 172.416 294.68 174.439L294.891 174.695L294.769 175.007C293.346 178.565 291.889 182.123 290.377 185.648C288.864 189.173 287.352 192.721 285.751 196.212C286.996 192.572 288.297 188.955 289.654 185.359C291.01 181.764 292.382 178.179 293.768 174.606L293.857 175.162C292.089 173.161 290.354 171.126 288.608 169.102L287.763 168.123L289.042 168.223L294.013 168.59L293.557 169.269L290.732 162.952C290.254 161.907 289.809 160.84 289.353 159.783C288.898 158.727 288.442 157.615 288.008 156.547Z" fill="#263238"/>
<path d="M283.56 163.953C279.557 165.154 272.218 159.361 269.16 154.49C268.959 154.145 269.271 150.487 269.449 146.006C269.538 143.292 269.582 140.268 269.449 137.499C269.449 136.932 271.406 137.866 271.406 137.866L275.031 138.522L287.029 140.746C286.248 144.264 285.897 147.863 285.984 151.465C286.012 151.841 286.075 152.214 286.173 152.577C286.17 152.64 286.17 152.704 286.173 152.767C286.696 154.857 287.474 162.797 283.56 163.953Z" fill="#AD6359"/>
<path d="M286.184 152.533C286.181 152.596 286.181 152.659 286.184 152.722C285.598 152.838 285.003 152.905 284.405 152.922C272.718 153.345 270.383 138.589 270.383 138.589L275.009 138.522L287.007 140.746C286.226 144.263 285.875 147.863 285.962 151.465C286.003 151.827 286.077 152.185 286.184 152.533Z" fill="#263238"/>
<path d="M265.835 117.183C264.378 123.454 268.837 140.979 273.474 144.638C280.146 149.942 290.61 149.786 294.958 141.836C299.184 134.129 292.967 111.4 287.841 108.131C280.291 103.327 267.992 107.92 265.835 117.183Z" fill="#AD6359"/>
<path d="M283.56 126.879C283.56 126.879 283.482 126.957 283.493 127.013C283.827 128.125 284.005 129.581 283.037 130.237C283.037 130.237 283.037 130.315 283.037 130.304C284.305 129.793 284.049 127.936 283.56 126.879Z" fill="#263238"/>
<path d="M282.181 125.912C280.246 126.234 281.069 130.093 282.837 129.782C284.605 129.47 283.805 125.656 282.181 125.912Z" fill="#263238"/>
<path d="M290.232 125.523C290.232 125.523 290.332 125.523 290.343 125.611C290.554 126.812 290.999 128.158 292.156 128.325V128.391C290.81 128.48 290.232 126.701 290.232 125.523Z" fill="#263238"/>
<path d="M291.033 124.066C292.923 123.521 293.868 127.335 292.145 127.836C290.421 128.336 289.454 124.544 291.033 124.066Z" fill="#263238"/>
<path d="M280.302 124.466C280.791 124.222 281.214 123.921 281.681 123.632C282.148 123.343 282.659 123.098 282.926 122.52C282.983 122.346 282.981 122.158 282.921 121.986C282.861 121.813 282.745 121.665 282.593 121.564C282.258 121.411 281.89 121.35 281.524 121.387C281.159 121.425 280.81 121.558 280.513 121.775C279.861 122.14 279.364 122.729 279.112 123.432C279.074 123.59 279.081 123.755 279.131 123.91C279.18 124.065 279.271 124.203 279.394 124.309C279.517 124.416 279.666 124.487 279.826 124.514C279.986 124.542 280.151 124.525 280.302 124.466Z" fill="#263238"/>
<path d="M292.122 121.808C291.584 121.816 291.045 121.79 290.51 121.731C289.937 121.784 289.363 121.648 288.875 121.341C288.742 121.216 288.654 121.049 288.625 120.868C288.597 120.686 288.63 120.501 288.72 120.341C288.942 120.047 289.238 119.818 289.578 119.677C289.918 119.537 290.29 119.489 290.655 119.54C291.407 119.53 292.136 119.799 292.701 120.296C292.82 120.418 292.903 120.571 292.938 120.738C292.973 120.905 292.959 121.079 292.898 121.238C292.837 121.398 292.731 121.536 292.594 121.637C292.456 121.738 292.293 121.798 292.122 121.808Z" fill="#263238"/>
<path d="M264.712 115.181C266.735 105.918 281.392 103.894 285.684 106.207C288.065 107.48 289.917 109.557 290.91 112.067C290.91 112.067 289.676 109.91 288.108 110.132C286.54 110.355 286.84 112.356 284.839 113.402C282.837 114.447 279.779 112.501 276.265 113.58C272.751 114.658 271.406 117.928 271.306 120.919C271.206 123.91 272.418 134.886 270.049 135.786C267.681 136.687 263.077 122.676 264.712 115.181Z" fill="#263238"/>
<path d="M270.616 131.383C270.616 131.383 266.102 126.012 263.622 127.669C261.142 129.326 264.901 137.365 268.07 138.233C268.467 138.372 268.887 138.43 269.307 138.403C269.727 138.375 270.137 138.263 270.512 138.073C270.887 137.883 271.22 137.619 271.49 137.296C271.76 136.974 271.962 136.6 272.084 136.198L270.616 131.383Z" fill="#AD6359"/>
<path d="M264.756 129.948C264.756 129.948 264.7 130.015 264.756 130.037C266.98 130.704 268.281 132.595 269.204 134.585C269.062 134.381 268.877 134.211 268.662 134.085C268.447 133.96 268.207 133.883 267.96 133.86C267.712 133.837 267.462 133.868 267.228 133.951C266.993 134.034 266.78 134.167 266.602 134.341C266.546 134.341 266.602 134.474 266.669 134.452C267.034 134.3 267.437 134.265 267.823 134.35C268.209 134.436 268.559 134.638 268.826 134.93C269.256 135.424 269.629 135.965 269.938 136.542C270.06 136.72 270.394 136.542 270.305 136.376C270.216 133.596 267.714 129.959 264.756 129.948Z" fill="#263238"/>
<path d="M286.34 153.2L282.003 163.642L269.104 150.22L265.357 154.435C265.357 154.435 277.889 175.696 278 174.729L282.448 165.732L288.62 172.093L288.297 156.292L286.34 153.2Z" fill="#EBEBEB"/>
<path d="M288.853 164.276C288.72 161.663 288.653 159.038 288.386 156.492C288.386 156.403 288.23 156.358 288.208 156.492C287.652 159.005 288.208 168.98 288.208 171.37C287.952 171.092 282.481 165.81 282.426 165.81C281.469 167.234 278.222 173.783 277.978 174.384C275.998 171.048 268.403 158.738 266.057 155.535C265.99 155.446 265.846 155.535 265.901 155.624C267.636 159.183 277.678 175.707 277.844 175.64C279.547 172.552 281.091 169.379 282.47 166.133C283.393 167.245 288.909 173.294 288.931 172.905C289.057 170.029 289.031 167.149 288.853 164.276Z" fill="#263238"/>
<path d="M64.7962 355.751C68.9329 351.703 74.2705 346.855 80.5978 348.556C86.5359 350.202 88.8155 356.685 89.883 362.101C91.2507 369.073 92.3183 376.112 93.4303 383.128C94.5423 390.145 95.6543 397.306 96.6217 404.412C97.1888 408.415 97.7337 412.43 98.3231 416.433L99.1571 422.449C99.4351 424.417 99.7575 426.385 99.8687 428.365C99.8687 428.998 98.9124 429.087 98.7567 428.487C97.9895 425.151 97.6447 421.67 97.1888 418.268C96.7329 414.865 96.1991 411.44 95.6987 408.037C94.7128 401.254 93.7008 394.475 92.663 387.699C91.6251 380.923 90.5761 374.151 89.516 367.383C88.5931 361.645 88.1594 354.506 83.0775 350.703C81.6982 349.756 80.0997 349.177 78.4337 349.021C76.7678 348.865 75.0898 349.138 73.5588 349.813C70.2228 351.092 67.5318 353.482 64.9186 355.862C64.9026 355.87 64.8846 355.873 64.867 355.87C64.8493 355.868 64.8329 355.86 64.8197 355.848C64.8065 355.836 64.7972 355.82 64.7931 355.803C64.7889 355.786 64.79 355.768 64.7962 355.751Z" fill="#263238"/>
<path d="M70.4563 351.614C70.4563 351.614 78.952 348.568 83.0775 354.728C87.203 360.888 82.288 376.601 43.7794 385.453C44.9113 373.421 48.038 361.663 53.0313 350.658C61.2823 332.666 75.983 339.482 70.4563 351.614Z" fill="#37B44D"/>
<path d="M45.9923 382.884C46.571 381.803 47.2173 380.759 47.9272 379.759C48.5722 378.769 49.2171 377.78 49.8732 376.801C50.3736 376.056 50.874 375.322 51.3855 374.577C51.3479 374.394 51.3219 374.208 51.3077 374.021L51.1743 373.02C51.0853 372.298 50.9741 371.586 50.874 370.863C50.7739 370.14 50.6516 369.429 50.5071 368.717C50.4177 367.96 50.25 367.215 50.0067 366.493C50.0067 366.382 50.1623 366.326 50.1735 366.493C50.2557 366.924 50.371 367.348 50.5182 367.761C50.6071 368.083 50.6961 368.417 50.7739 368.739C50.963 369.462 51.1409 370.196 51.3077 370.963C51.4745 371.731 51.5857 372.331 51.6969 373.009C51.6969 373.343 51.8081 373.665 51.8526 373.999C52.542 373.02 53.2315 372.053 53.9543 371.097C56.0003 368.406 58.1576 365.815 60.4039 363.313V363.246C60.2037 359.198 60.3038 355.195 59.4142 351.214C59.4142 351.114 59.5476 351.047 59.5699 351.159C60.5585 354.86 61.03 358.681 60.971 362.512C61.7716 361.611 62.5834 360.722 63.3951 359.843C65.2781 357.819 67.1908 355.836 69.1331 353.894C69.1501 353.884 69.1701 353.879 69.19 353.882C69.2098 353.884 69.2283 353.893 69.2424 353.907C69.2565 353.921 69.2655 353.94 69.2678 353.959C69.2702 353.979 69.2658 353.999 69.2554 354.016C66.0195 357.508 62.9392 361.144 59.9368 364.847C62.286 364.81 64.6355 364.895 66.9758 365.103C69.5779 365.303 72.1799 365.637 74.7598 365.993C74.8599 365.993 74.8265 366.182 74.7598 366.159C72.1788 365.793 69.5807 365.559 66.9758 365.459C64.4627 365.359 61.9607 365.459 59.4587 365.459C57.8351 367.46 56.2339 369.484 54.6548 371.53H55.0107C55.6 371.53 56.1894 371.53 56.7787 371.53C57.9463 371.53 59.1251 371.642 60.2815 371.742C62.6714 371.932 65.0455 372.284 67.3872 372.798C67.4007 372.793 67.4151 372.791 67.4294 372.793C67.4436 372.795 67.4572 372.8 67.469 372.808C67.4807 372.817 67.4904 372.827 67.497 372.84C67.5037 372.853 67.5071 372.867 67.5071 372.881C67.5071 372.896 67.5037 372.91 67.497 372.923C67.4904 372.935 67.4807 372.946 67.469 372.954C67.4572 372.963 67.4436 372.968 67.4294 372.97C67.4151 372.971 67.4007 372.97 67.3872 372.965C65.0298 372.698 62.6612 372.487 60.2815 372.398C59.1695 372.398 58.0575 372.398 56.8788 372.398H55.0551C54.7263 372.437 54.3929 372.407 54.0766 372.309C53.0424 373.654 52.0083 374.989 50.9852 376.345C50.1623 377.457 49.3617 378.503 48.5722 379.592C47.7827 380.682 47.0265 381.939 46.1258 382.984C46.059 383.062 45.9479 382.973 45.9923 382.884Z" fill="#263238"/>
<path d="M66.7756 360.355C68.1394 360.177 69.5154 360.11 70.89 360.155C72.2578 360.155 73.6366 360.155 75.0044 360.244C75.0179 360.239 75.0323 360.237 75.0465 360.239C75.0608 360.241 75.0744 360.246 75.0862 360.254C75.0979 360.262 75.1076 360.273 75.1142 360.286C75.1209 360.298 75.1243 360.313 75.1243 360.327C75.1243 360.341 75.1209 360.355 75.1142 360.368C75.1076 360.381 75.0979 360.392 75.0862 360.4C75.0744 360.408 75.0608 360.413 75.0465 360.415C75.0323 360.417 75.0179 360.415 75.0044 360.41C73.6144 360.31 72.2244 360.288 70.8344 360.31C69.4444 360.333 68.1322 360.455 66.7867 360.421C66.72 360.421 66.72 360.366 66.7756 360.355Z" fill="#263238"/>
<path d="M54.6882 363.457C54.5325 362.145 54.3657 360.822 54.0877 359.532C54.0877 359.41 54.2434 359.365 54.2545 359.532C54.4547 360.833 54.7104 362.112 54.8994 363.413C54.9995 364.058 55.0885 364.703 55.1663 365.359C55.2793 365.964 55.3314 366.578 55.322 367.194C55.322 367.223 55.3103 367.251 55.2894 367.272C55.2686 367.293 55.2403 367.305 55.2108 367.305C55.1813 367.305 55.153 367.293 55.1322 367.272C55.1113 367.251 55.0996 367.223 55.0996 367.194C54.9772 366.593 54.9102 365.983 54.8994 365.37C54.8327 364.736 54.766 364.08 54.6882 363.457Z" fill="#263238"/>
<path d="M57.2235 348.89C57.5571 350.169 57.8907 351.47 58.1354 352.771C58.2466 353.427 58.3466 354.094 58.4467 354.761C58.5652 355.403 58.6063 356.056 58.569 356.707C58.569 356.707 58.4801 356.763 58.469 356.707C58.3132 356.102 58.2127 355.485 58.1687 354.861C58.0798 354.216 57.9797 353.583 57.8685 352.949C57.635 351.603 57.4014 350.269 57.0567 348.957C57.0345 348.846 57.2013 348.79 57.2235 348.89Z" fill="#263238"/>
<path d="M107.33 426.941C107.553 424.517 107.786 422.104 108.042 419.68C108.542 414.887 109.154 410.106 109.777 405.324C110.399 400.542 111.022 395.794 111.789 391.046C112.076 388.844 112.568 386.674 113.257 384.563C113.508 383.658 113.962 382.822 114.585 382.119C115.207 381.416 115.981 380.863 116.849 380.504C121.375 378.947 124.433 383.64 126.256 386.965C126.256 387.065 126.168 387.132 126.112 387.043C125 385.475 121.986 381.049 118.55 381.26C116.248 381.394 114.391 383.04 113.291 388.8C110.522 403.156 108.031 432.29 107.731 434.203C107.575 435.215 106.863 435.17 106.852 434.08C106.852 431.701 107.13 429.321 107.33 426.941Z" fill="#263238"/>
<path d="M125.044 385.175C125.044 385.175 121.086 371.197 129.826 378.191C144.393 389.823 144.916 415.121 144.916 415.121C144.916 415.121 118.984 400.086 115.804 390.167C111.011 375.389 125.044 385.175 125.044 385.175Z" fill="#37B44D"/>
<path d="M120.096 392.036C122.131 392.447 124.188 392.714 126.234 393.014L129.148 393.426C129.804 393.515 130.471 393.57 131.138 393.659C129.203 391.001 127.257 388.355 125.411 385.642C125.345 385.542 125.5 385.43 125.589 385.519C127.124 387.1 128.569 388.767 129.915 390.512C130.293 389.4 130.682 388.344 131.027 387.265C131.461 386.009 131.939 384.763 132.261 383.473C132.261 383.373 132.45 383.418 132.417 383.473C132.072 384.752 131.816 386.064 131.472 387.343C131.163 388.584 130.792 389.809 130.36 391.013C131.316 392.247 132.217 393.503 133.106 394.782C133.551 393.515 134.107 392.291 134.496 391.013C134.506 390.994 134.522 390.979 134.542 390.971C134.562 390.963 134.583 390.962 134.604 390.969C134.624 390.976 134.641 390.989 134.652 391.008C134.663 391.026 134.667 391.047 134.663 391.068C134.196 392.48 133.94 393.959 133.551 395.383C134.152 396.25 134.741 397.117 135.308 397.996C136.353 399.608 137.343 401.254 138.299 402.911C138.375 402.942 138.439 402.996 138.481 403.067C138.523 403.137 138.541 403.219 138.533 403.3C140.168 406.136 141.724 409.005 143.259 411.896C143.271 411.917 143.274 411.941 143.268 411.964C143.261 411.987 143.246 412.006 143.226 412.018C143.205 412.03 143.18 412.033 143.158 412.027C143.135 412.021 143.115 412.006 143.103 411.985C141.569 409.127 139.856 406.336 138.077 403.6C137.801 403.52 137.518 403.465 137.232 403.434L136.331 403.245C135.664 403.1 134.997 402.922 134.341 402.755C133.017 402.433 131.728 402.121 130.393 401.888C130.282 401.888 130.326 401.71 130.393 401.732C131.961 402.021 133.54 402.199 135.119 402.388C135.864 402.477 136.609 402.566 137.343 402.689H137.454C136.52 401.28 135.575 399.879 134.619 398.485C133.685 397.117 132.717 395.772 131.739 394.426C130.849 394.304 129.959 394.071 129.07 393.893L126.056 393.314C124.055 392.914 122.064 392.469 120.04 392.136C119.985 392.18 120.029 392.013 120.096 392.036Z" fill="#263238"/>
<path d="M135.664 393.414C135.786 393.048 135.898 392.669 136.02 392.302C136.264 391.524 136.442 390.746 136.609 389.956C136.609 389.845 136.798 389.901 136.776 390.012C136.609 390.801 136.42 391.58 136.242 392.369C136.077 393.16 135.851 393.938 135.564 394.693C135.486 394.871 135.208 394.804 135.264 394.604C135.408 394.204 135.564 393.804 135.664 393.414Z" fill="#263238"/>
<path d="M117.494 388.8C118.673 388.978 119.862 389.055 121.052 389.167C122.242 389.278 123.421 389.433 124.611 389.611C124.677 389.611 124.677 389.723 124.611 389.711C123.41 389.634 122.231 389.545 121.041 389.389C119.851 389.233 118.684 389.055 117.483 388.978C117.372 388.966 117.383 388.777 117.494 388.8Z" fill="#263238"/>
<path d="M88.2817 409.216C88.7487 398.93 89.3937 388.655 90.4278 378.414C90.9505 373.31 91.5398 368.205 92.2404 363.135C92.8825 358.139 93.8671 353.194 95.1872 348.334C96.089 344.573 97.7544 341.038 100.08 337.948C101.238 336.429 102.766 335.232 104.518 334.471C106.27 333.71 108.187 333.41 110.088 333.6C114.536 334.156 118.206 336.992 121.353 340.072C124.866 343.53 128.091 347.311 131.361 351.014C132.183 351.948 132.995 352.882 133.807 353.838C133.814 353.846 133.82 353.856 133.824 353.866C133.827 353.876 133.829 353.887 133.828 353.898C133.828 353.909 133.825 353.919 133.821 353.929C133.816 353.939 133.809 353.948 133.801 353.955C133.793 353.962 133.784 353.968 133.774 353.972C133.764 353.975 133.753 353.977 133.742 353.977C133.731 353.976 133.72 353.973 133.711 353.969C133.701 353.964 133.692 353.958 133.685 353.95C130.493 350.291 127.191 346.733 123.677 343.341C120.474 340.194 117.183 336.758 112.746 335.457C110.687 334.798 108.482 334.748 106.396 335.313C104.739 335.841 103.246 336.787 102.059 338.059C99.6911 340.795 98.0133 344.06 97.1666 347.578C94.3977 357.03 93.408 366.949 92.3738 376.712C91.3397 386.476 90.628 396.584 90.1498 406.547C89.6717 416.511 89.2602 426.563 88.2928 436.571C88.1816 437.806 88.0148 439.029 87.8591 440.263C87.759 441.086 86.4691 441.086 86.5358 440.263C87.3476 429.922 87.848 419.591 88.2817 409.216Z" fill="#263238"/>
<path d="M121.886 341.195C121.886 341.195 116.015 330.32 122.998 326.828C129.982 323.336 153.178 349.279 159.972 387.198C159.972 387.198 122.442 370.596 109.699 354.05C96.9553 337.503 111.356 333.867 121.886 341.195Z" fill="#37B44D"/>
<path d="M116.371 350.035C120.596 350.035 124.8 349.713 129.014 349.746C128.225 348.834 127.435 347.934 126.635 347.033C125.442 345.826 124.328 344.545 123.299 343.197C123.299 343.108 123.365 342.985 123.454 343.052C124.592 344.043 125.658 345.113 126.646 346.255C127.702 347.367 128.747 348.479 129.793 349.591C131.405 351.336 132.984 353.105 134.563 354.884C134.563 354.717 134.563 354.539 134.563 354.372C134.563 353.638 134.563 352.893 134.563 352.148C134.563 350.714 134.563 349.29 134.563 347.856C134.563 344.954 134.563 342.04 134.341 339.149C134.341 339.038 134.508 339.038 134.519 339.149C134.719 342.062 135.019 344.954 135.164 347.867C135.23 349.301 135.264 350.736 135.286 352.159C135.286 352.904 135.286 353.638 135.286 354.383C135.286 354.784 135.286 355.206 135.286 355.618L136.031 356.452C139.367 360.299 142.592 364.236 145.705 368.317C145.705 368.094 145.705 367.872 145.761 367.649C145.761 367.205 145.861 366.76 145.917 366.315C146.017 365.348 146.15 364.38 146.295 363.413C146.439 362.445 146.573 361.611 146.728 360.711C146.884 359.81 147.151 358.664 147.229 357.641C147.229 357.519 147.418 357.541 147.396 357.641C147.222 358.665 147.103 359.697 147.04 360.733C146.951 361.667 146.873 362.59 146.784 363.513C146.695 364.436 146.617 365.381 146.517 366.304C146.517 366.749 146.439 367.194 146.384 367.638C146.384 367.861 146.384 368.094 146.306 368.317C146.281 368.501 146.221 368.678 146.128 368.839L147.729 370.941C149.853 373.754 151.944 376.601 154.034 379.448C154.101 379.537 153.979 379.659 153.912 379.57C151.933 376.99 149.905 374.447 147.829 371.942C146.284 372.008 144.716 371.942 143.17 371.864C141.624 371.786 139.912 371.864 138.288 371.864C138.265 371.864 138.242 371.855 138.225 371.838C138.209 371.821 138.199 371.799 138.199 371.775C138.199 371.751 138.209 371.729 138.225 371.712C138.242 371.695 138.265 371.686 138.288 371.686C139.923 371.686 141.546 371.686 143.17 371.686C144.794 371.686 146.172 371.619 147.618 371.686C145.805 369.462 143.971 367.238 142.136 365.103L140.112 362.834C139.486 362.918 138.852 362.94 138.222 362.901H135.998C134.608 362.901 133.218 362.901 131.839 362.901C128.97 362.901 126.101 362.768 123.243 362.757C123.219 362.757 123.197 362.747 123.18 362.731C123.163 362.714 123.154 362.691 123.154 362.668C123.154 362.644 123.163 362.621 123.18 362.605C123.197 362.588 123.219 362.579 123.243 362.579C126.112 362.579 128.981 362.423 131.85 362.345C133.24 362.345 134.619 362.267 136.009 362.256H138.233C138.655 362.256 139.089 362.256 139.512 362.256C137.944 360.388 136.365 358.509 134.786 356.696C134.748 356.671 134.717 356.637 134.697 356.596C133.162 354.772 131.62 352.96 130.071 351.159C129.859 350.914 129.637 350.68 129.426 350.425C125.056 350.569 120.685 350.28 116.315 350.358C116.26 350.213 116.26 350.035 116.371 350.035Z" fill="#263238"/>
<path d="M118.528 357.486H119.551C119.572 357.486 119.592 357.494 119.606 357.508C119.621 357.523 119.629 357.543 119.629 357.564C119.629 357.584 119.621 357.604 119.606 357.619C119.592 357.633 119.572 357.641 119.551 357.641H118.528C118.514 357.634 118.503 357.622 118.495 357.609C118.486 357.595 118.482 357.579 118.482 357.564C118.482 357.548 118.486 357.532 118.495 357.518C118.503 357.505 118.514 357.493 118.528 357.486Z" fill="#263238"/>
<path d="M120.808 357.508L124.855 357.419L126.879 357.352C127.507 357.274 128.142 357.274 128.77 357.352C128.836 357.352 128.77 357.463 128.77 357.475C128.148 357.602 127.512 357.647 126.879 357.608H124.844C123.499 357.608 122.153 357.608 120.797 357.608C120.784 357.622 120.767 357.632 120.749 357.637C120.73 357.641 120.711 357.639 120.694 357.631C120.676 357.624 120.662 357.611 120.652 357.594C120.643 357.578 120.639 357.559 120.641 357.54C120.643 357.521 120.651 357.503 120.664 357.49C120.677 357.476 120.694 357.466 120.712 357.463C120.731 357.459 120.75 357.461 120.768 357.47C120.785 357.478 120.799 357.491 120.808 357.508Z" fill="#263238"/>
<path d="M132.595 370.163C135.342 369.715 138.118 369.466 140.902 369.417C140.902 369.417 140.902 369.473 140.902 369.484C138.144 369.74 135.342 369.896 132.639 370.34C132.528 370.352 132.495 370.185 132.595 370.163Z" fill="#263238"/>
<path d="M143.882 358.064C143.882 357.819 143.937 357.575 143.971 357.341C144.037 356.796 144.126 356.229 144.204 355.718C144.371 354.684 144.549 353.649 144.749 352.626C144.749 352.537 144.927 352.56 144.916 352.626C144.782 353.683 144.671 354.75 144.571 355.807L144.438 357.375C144.452 357.88 144.381 358.384 144.226 358.865C144.211 358.9 144.185 358.931 144.153 358.952C144.12 358.973 144.082 358.985 144.043 358.985C144.004 358.985 143.966 358.973 143.933 358.952C143.901 358.931 143.875 358.9 143.859 358.865C143.814 358.599 143.821 358.327 143.882 358.064Z" fill="#263238"/>
<path d="M88.6598 327.228C89.9942 324.726 91.7066 321.424 95.0649 321.668C97.8226 321.835 99.0792 324.66 99.6686 326.995C101.492 334.223 101.626 341.84 101.982 349.235C102.738 364.881 103.405 380.538 103.505 396.206C103.505 400.542 103.505 404.879 103.505 409.227C103.505 413.575 103.505 418.123 103.194 422.571C103.179 422.648 103.139 422.717 103.079 422.767C103.019 422.817 102.944 422.844 102.866 422.844C102.788 422.844 102.712 422.817 102.652 422.767C102.592 422.717 102.552 422.648 102.538 422.571C102.538 418.79 102.649 414.998 102.66 411.207C102.671 407.415 102.66 403.823 102.593 400.087C102.467 392.599 102.267 385.115 101.993 377.635C101.715 370.207 101.392 362.768 101.081 355.34C100.914 351.626 100.758 347.911 100.592 344.22C100.425 340.528 100.28 337.025 99.8687 333.444C99.6352 331.443 99.335 329.43 98.9235 327.462C98.7116 325.993 98.1129 324.608 97.1888 323.447C96.5488 322.816 95.7046 322.433 94.808 322.368C93.9113 322.303 93.0207 322.559 92.296 323.092C90.7673 324.191 89.5677 325.686 88.8266 327.417C88.7487 327.417 88.6042 327.328 88.6598 327.228Z" fill="#263238"/>
<path d="M89.5605 326.027C89.5605 326.027 92.3183 316.297 86.2245 321.168C76.0831 329.263 75.7161 346.944 75.7161 346.944C75.7161 346.944 93.7527 336.469 95.999 329.563C99.335 319.222 89.5605 326.027 89.5605 326.027Z" fill="#37B44D"/>
<path d="M79.5191 339.672C79.6748 339.394 79.8527 339.138 80.0307 338.871C80.0084 338.593 80.0084 338.314 80.0307 338.037C80.0307 337.614 80.0307 337.203 80.0307 336.78C80.0307 335.957 80.0307 335.135 79.9417 334.312C79.9417 334.201 80.1085 334.212 80.1196 334.312C80.1196 335.112 80.1975 335.924 80.2197 336.725V337.937C80.2197 338.093 80.2197 338.282 80.2197 338.459C80.9203 337.347 81.6542 336.235 82.4437 335.201L83.1109 334.278C83.1999 333.224 83.1999 332.164 83.1109 331.109C83.1109 329.997 83.1109 328.885 83.0442 327.706C83.0442 327.595 83.211 327.606 83.2221 327.706C83.2221 328.885 83.3111 330.053 83.3667 331.231C83.439 332.071 83.4613 332.914 83.4334 333.756C85.2571 331.376 87.103 329.152 88.96 326.85C89.0267 326.772 89.1602 326.85 89.0935 326.961C87.937 328.444 86.825 329.927 85.7575 331.409C87.8703 330.909 90.0275 330.631 92.1848 330.297C92.296 330.297 92.3405 330.442 92.1848 330.464C89.9608 330.809 87.659 331.376 85.4127 331.876C84.5454 333.1 83.6891 334.323 82.844 335.546L81.821 337.047H81.9211L82.6216 336.958C83.122 336.892 83.6224 336.858 84.1228 336.814C85.157 336.736 86.2023 336.68 87.2364 336.625C87.3476 336.625 87.3476 336.791 87.2364 336.791C86.2134 336.791 85.1903 336.892 84.1673 337.003L82.5549 337.203L81.8543 337.281H81.6542C81.0759 338.137 80.4866 338.982 79.9195 339.838C78.8964 341.34 77.9846 342.952 76.9059 344.409C76.8916 344.421 76.8737 344.429 76.8549 344.43C76.836 344.432 76.8171 344.427 76.801 344.417C76.7849 344.407 76.7723 344.393 76.7652 344.375C76.7581 344.357 76.7567 344.338 76.7614 344.32C77.5861 342.716 78.507 341.164 79.5191 339.672Z" fill="#263238"/>
<path d="M84.0005 328.674V327.562C84.0229 326.764 83.9895 325.965 83.9004 325.171C83.9004 325.147 83.9098 325.125 83.9265 325.108C83.9432 325.091 83.9658 325.082 83.9894 325.082C84.013 325.082 84.0356 325.091 84.0523 325.108C84.069 325.125 84.0783 325.147 84.0783 325.171C84.0783 325.961 84.1562 326.75 84.2007 327.54C84.2007 327.929 84.2007 328.329 84.2007 328.718C84.2007 328.907 84.2007 329.085 84.2007 329.263C84.2344 329.451 84.2344 329.643 84.2007 329.83C84.2007 329.851 84.1925 329.871 84.1779 329.885C84.1633 329.9 84.1435 329.908 84.1228 329.908C84.1022 329.908 84.0824 329.9 84.0678 329.885C84.0532 329.871 84.045 329.851 84.045 329.83C84.0173 329.657 84.0173 329.481 84.045 329.308L84.0005 328.674Z" fill="#263238"/>
<path d="M86.2356 332.699C86.9028 332.588 87.5922 332.555 88.2705 332.499C88.9489 332.443 89.7495 332.366 90.4946 332.277C90.508 332.272 90.5225 332.27 90.5367 332.272C90.5509 332.274 90.5645 332.279 90.5763 332.287C90.5881 332.295 90.5977 332.306 90.6044 332.319C90.611 332.332 90.6145 332.346 90.6145 332.36C90.6145 332.374 90.611 332.389 90.6044 332.401C90.5977 332.414 90.5881 332.425 90.5763 332.433C90.5645 332.441 90.5509 332.447 90.5367 332.448C90.5225 332.45 90.508 332.448 90.4946 332.443C89.0712 332.532 87.6478 332.788 86.2245 332.844C86.1689 332.844 86.1578 332.721 86.2356 332.699Z" fill="#263238"/>
<path d="M88.2372 379.192C92.0291 376.345 95.4319 372.253 100.536 372.053C104.75 371.886 107.697 375.055 109.432 378.58C110.277 380.459 110.965 382.404 111.489 384.396C112.256 387.065 112.968 389.734 113.635 392.425C114.955 397.718 116.067 403.052 116.971 408.427C117.483 411.418 117.961 414.431 118.339 417.445C118.824 420.5 119.121 423.583 119.229 426.674C119.228 426.792 119.184 426.905 119.105 426.993C119.026 427.08 118.918 427.135 118.801 427.147C118.684 427.16 118.566 427.129 118.471 427.06C118.375 426.991 118.309 426.889 118.283 426.775C117.772 424.25 117.561 421.648 117.171 419.102C116.782 416.555 116.415 413.975 115.982 411.429C115.114 406.314 114.106 401.228 112.957 396.172C111.845 391.402 110.8 386.565 109.265 381.916C108.153 378.58 106.385 374.688 102.793 373.499C97.3223 371.675 92.3516 376.312 88.3373 379.314C88.2706 379.359 88.1482 379.192 88.2372 379.192Z" fill="#263238"/>
<path d="M92.1626 376.445C92.1626 376.445 95.6543 366.437 90.5947 364.503C83.0219 361.567 63.1839 383.907 67.0759 418.134C67.0759 418.134 82.3992 409.694 93.7082 400.198C105.017 390.701 107.92 378.291 102.938 375.089C97.9561 371.886 92.1626 376.445 92.1626 376.445Z" fill="#37B44D"/>
<path d="M69.3555 410.795C69.8846 409.602 70.5016 408.45 71.2014 407.348C71.8463 406.18 72.5024 405.013 73.1807 403.856C74.504 401.632 75.8051 399.341 77.1617 397.106L77.8178 395.994C77.8178 395.861 77.8178 395.727 77.7399 395.594L77.5175 394.604C77.3396 393.859 77.2173 393.114 77.0727 392.38C76.8059 390.924 76.5501 389.434 76.1498 387.999C76.1498 387.888 76.2943 387.854 76.3277 387.999C76.6391 389.467 77.095 390.901 77.5287 392.336C77.7399 393.048 77.9735 393.748 78.1514 394.46L78.3515 395.194C79.9751 392.525 81.6875 389.867 83.4223 387.298C83.3035 386.94 83.2435 386.564 83.2443 386.186C83.2443 385.686 83.1331 385.186 83.0664 384.685C82.933 383.573 82.8107 382.461 82.6439 381.349C82.3563 379.143 81.9555 376.953 81.4429 374.788C81.4429 374.677 81.5875 374.655 81.6097 374.788C82.1546 376.946 82.7217 379.103 83.1665 381.283C83.3667 382.395 83.5557 383.44 83.7003 384.518C83.767 385.052 83.8226 385.63 83.8782 386.142L83.9449 386.631C84.4898 385.853 85.0569 385.074 85.6129 384.318C87.3699 382.016 89.1824 379.77 91.0172 377.535C91.0839 377.446 91.2285 377.535 91.1507 377.635C88.0148 381.645 85.1364 385.849 82.5327 390.223L81.0426 392.536H81.543C82.1768 392.447 82.8329 392.414 83.4667 392.347C84.7567 392.221 86.0466 392.11 87.3365 392.013C89.9275 391.813 92.5073 391.646 95.1205 391.379C95.2317 391.379 95.2651 391.535 95.1205 391.546C92.5073 391.847 89.9163 392.258 87.3365 392.658L83.5001 393.17C82.5263 393.367 81.5356 393.467 80.5422 393.47C79.5303 395.127 78.5072 396.806 77.4953 398.418C77.7177 398.418 77.9512 398.418 78.1847 398.418H81.8432C83.5112 398.418 85.1792 398.418 86.8361 398.418C86.9473 398.418 86.9251 398.585 86.8361 398.585C85.157 398.585 83.5001 398.696 81.7987 398.785L79.3968 398.93L78.207 399.019C77.8407 399.099 77.4613 399.099 77.095 399.019C76.2424 400.42 75.3788 401.821 74.504 403.222C73.7145 404.512 72.9139 405.802 72.091 407.081C71.3303 408.447 70.464 409.752 69.5 410.984C69.4555 410.962 69.3221 410.906 69.3555 410.795Z" fill="#263238"/>
<path d="M76.6613 383.14C76.8141 384.237 77.0445 385.322 77.3507 386.387C77.6287 387.499 77.9512 388.611 78.307 389.723C78.3176 389.737 78.3247 389.753 78.3277 389.771C78.3307 389.788 78.3295 389.806 78.3242 389.823C78.319 389.839 78.3098 389.855 78.2975 389.867C78.2851 389.88 78.27 389.889 78.2532 389.895C78.2365 389.9 78.2187 389.902 78.2013 389.899C78.1839 389.897 78.1674 389.89 78.1531 389.88C78.1388 389.869 78.1271 389.856 78.1191 389.84C78.1111 389.824 78.1069 389.807 78.1069 389.789C77.7622 388.677 77.4619 387.621 77.195 386.531C76.9282 385.441 76.7614 384.307 76.4945 383.195C76.4611 383.051 76.6502 383.017 76.6613 383.14Z" fill="#263238"/>
<path d="M87.9258 389.823C88.1549 389.618 88.4526 389.507 88.7598 389.511L90.2054 389.311C91.095 389.189 91.9958 389.089 92.8965 388.989C94.7646 388.766 96.6328 388.588 98.4565 388.344C98.5677 388.344 98.601 388.511 98.4565 388.522C96.6884 388.733 94.9426 389 93.1856 389.233C92.3183 389.344 91.462 389.467 90.5946 389.567L89.3492 389.711C88.8652 389.711 88.3844 389.79 87.9258 389.945C87.9258 389.989 87.848 389.878 87.9258 389.823Z" fill="#263238"/>
<path d="M76.728 404.868C77.6065 404.801 78.4961 404.768 79.3746 404.746H80.709H81.3539C81.6312 404.774 81.9106 404.774 82.1879 404.746C82.3103 404.746 82.3325 404.935 82.1879 404.913C81.9289 404.89 81.6685 404.89 81.4095 404.913H80.709L79.3746 404.99C78.4961 404.99 77.6065 405.102 76.7169 405.102C76.5946 405.057 76.5834 404.879 76.728 404.868Z" fill="#263238"/>
<path d="M71.2903 401.043C71.1903 400.542 71.0902 400.042 71.0012 399.542C70.8122 398.552 70.6342 397.562 70.4563 396.573C70.4563 396.472 70.6009 396.439 70.6231 396.573C70.8455 397.529 71.0568 398.496 71.2792 399.453C71.3793 399.931 71.4905 400.409 71.5906 400.898C71.5906 401.121 71.6795 401.343 71.7351 401.565C71.8048 401.792 71.8312 402.03 71.813 402.266C71.813 402.355 71.6795 402.422 71.6239 402.333C71.4312 401.928 71.318 401.49 71.2903 401.043Z" fill="#263238"/>
<path d="M75.5604 430.544L76.0274 444.578L78.9298 497.564H126.123L129.014 444.578L129.492 430.544H75.5604Z" fill="#37474F"/>
<path d="M75.5604 430.544L76.0274 444.578H129.014L129.492 430.544H75.5604Z" fill="#263238"/>
<path d="M69.3666 434.681H135.653V420.525H69.3666V434.681Z" fill="#37474F"/>
</svg>
