<svg width="114" height="115" viewBox="0 0 114 115" fill="none" xmlns="http://www.w3.org/2000/svg">
<path d="M56.9029 94.1246V108.762C56.9029 110.217 56.3246 111.614 55.2952 112.643C54.2658 113.672 52.8697 114.251 51.4139 114.251H38.6064C37.1507 114.251 35.7545 113.672 34.7252 112.643C33.6958 111.614 33.1175 110.217 33.1175 108.762V94.1246C33.1175 92.6688 33.6958 91.2727 34.7252 90.2433C35.7545 89.2139 37.1507 88.6356 38.6064 88.6356H51.4139C52.8697 88.6356 54.2658 89.2139 55.2952 90.2433C56.3246 91.2727 56.9029 92.6688 56.9029 94.1246ZM79.7734 88.6356H66.9659C65.5101 88.6356 64.114 89.2139 63.0846 90.2433C62.0553 91.2727 61.477 92.6688 61.477 94.1246V108.762C61.477 110.217 62.0553 111.614 63.0846 112.643C64.114 113.672 65.5101 114.251 66.9659 114.251H79.7734C81.2291 114.251 82.6253 113.672 83.6546 112.643C84.684 111.614 85.2623 110.217 85.2623 108.762V94.1246C85.2623 92.6688 84.684 91.2727 83.6546 90.2433C82.6253 89.2139 81.2291 88.6356 79.7734 88.6356ZM108.133 88.6356H95.3254C93.8696 88.6356 92.4735 89.2139 91.4441 90.2433C90.4147 91.2727 89.8364 92.6688 89.8364 94.1246V108.762C89.8364 110.217 90.4147 111.614 91.4441 112.643C92.4735 113.672 93.8696 114.251 95.3254 114.251H108.133C109.589 114.251 110.985 113.672 112.014 112.643C113.043 111.614 113.622 110.217 113.622 108.762V94.1246C113.622 92.6688 113.043 91.2727 112.014 90.2433C110.985 89.2139 109.589 88.6356 108.133 88.6356ZM113.622 39.2353V75.8281C113.622 77.2839 113.043 78.68 112.014 79.7094C110.985 80.7388 109.589 81.3171 108.133 81.3171H99.7348L71.7595 53.3418C70.7304 52.3139 69.3353 51.7366 67.8807 51.7366C66.4261 51.7366 65.031 52.3139 64.0019 53.3418L36.4657 80.7865C35.4878 80.3725 34.651 79.6837 34.0567 78.8036C33.4624 77.9235 33.1361 76.8899 33.1175 75.8281V39.2353C33.1175 37.7795 33.6958 36.3834 34.7252 35.354C35.7545 34.3246 37.1507 33.7463 38.6064 33.7463H108.133C109.589 33.7463 110.985 34.3246 112.014 35.354C113.043 36.3834 113.622 37.7795 113.622 39.2353ZM102.644 52.0428C102.644 50.5953 102.215 49.1803 101.411 47.9768C100.606 46.7733 99.4633 45.8352 98.1261 45.2813C96.7888 44.7274 95.3172 44.5824 93.8976 44.8648C92.4779 45.1472 91.1739 45.8442 90.1503 46.8678C89.1268 47.8913 88.4298 49.1953 88.1474 50.615C87.865 52.0347 88.0099 53.5062 88.5639 54.8435C89.1178 56.1808 90.0558 57.3238 91.2594 58.1279C92.4629 58.9321 93.8779 59.3613 95.3254 59.3613C97.2664 59.3613 99.1279 58.5903 100.5 57.2178C101.873 55.8453 102.644 53.9838 102.644 52.0428ZM95.3254 48.3835C94.6016 48.3835 93.8941 48.5981 93.2924 49.0002C92.6906 49.4023 92.2216 49.9738 91.9446 50.6424C91.6676 51.3111 91.5952 52.0468 91.7364 52.7567C91.8776 53.4665 92.2261 54.1185 92.7378 54.6303C93.2496 55.142 93.9016 55.4905 94.6115 55.6317C95.3213 55.7729 96.057 55.7005 96.7257 55.4235C97.3943 55.1465 97.9659 54.6775 98.3679 54.0758C98.77 53.474 98.9846 52.7665 98.9846 52.0428C98.9846 51.0723 98.5991 50.1415 97.9129 49.4553C97.2266 48.769 96.2959 48.3835 95.3254 48.3835ZM66.5817 55.9216L41.1862 81.3171H94.5752L69.1798 55.9216C69.0097 55.7501 68.8073 55.614 68.5843 55.5211C68.3614 55.4282 68.1222 55.3804 67.8807 55.3804C67.6392 55.3804 67.4 55.4282 67.1771 55.5211C66.9541 55.614 66.7518 55.7501 66.5817 55.9216Z" fill="#85D192"/>
<path d="M86.1771 0.812744H27.6286C26.1728 0.812744 24.7767 1.39104 23.7473 2.42041C22.7179 3.44979 22.1396 4.84592 22.1396 6.30167V70.3392H5.67286C4.2171 70.3392 2.82097 70.9175 1.7916 71.9468C0.762226 72.9762 0.183929 74.3723 0.183929 75.8281V79.4874C0.183929 82.8841 1.53329 86.1418 3.93516 88.5437C6.33703 90.9455 9.59467 92.2949 12.9914 92.2949H78.8586C82.2553 92.2949 85.513 90.9455 87.9148 88.5437C90.3167 86.1418 91.6661 82.8841 91.6661 79.4874V6.30167C91.6661 4.84592 91.0878 3.44979 90.0584 2.42041C89.029 1.39104 87.6329 0.812744 86.1771 0.812744ZM12.9914 88.6356C10.5652 88.6356 8.23829 87.6718 6.52267 85.9562C4.80704 84.2405 3.84322 81.9136 3.84322 79.4874V75.8281C3.84322 75.3428 4.03598 74.8775 4.37911 74.5343C4.72223 74.1912 5.18761 73.9985 5.67286 73.9985H64.2214C64.7067 73.9985 65.1721 74.1912 65.5152 74.5343C65.8583 74.8775 66.0511 75.3428 66.0511 75.8281V79.4874C66.0532 81.1925 66.3958 82.8799 67.0587 84.4508C67.7216 86.0218 68.6916 87.4445 69.9116 88.6356H12.9914ZM88.0068 79.4874C88.0068 81.9136 87.043 84.2405 85.3273 85.9562C83.6117 87.6718 81.2848 88.6356 78.8586 88.6356C76.4323 88.6356 74.1054 87.6718 72.3898 85.9562C70.6742 84.2405 69.7104 81.9136 69.7104 79.4874V75.8281C69.7104 74.3723 69.1321 72.9762 68.1027 71.9468C67.0733 70.9175 65.6772 70.3392 64.2214 70.3392H25.7989V6.30167C25.7989 5.81642 25.9917 5.35104 26.3348 5.00792C26.6779 4.6648 27.1433 4.47203 27.6286 4.47203H86.1771C86.6624 4.47203 87.1278 4.6648 87.4709 5.00792C87.814 5.35104 88.0068 5.81642 88.0068 6.30167V79.4874ZM82.5179 64.8502C82.5179 65.3355 82.3251 65.8009 81.982 66.144C81.6388 66.4871 81.1735 66.6799 80.6882 66.6799H33.1175C32.6323 66.6799 32.1669 66.4871 31.8237 66.144C31.4806 65.8009 31.2879 65.3355 31.2879 64.8502C31.2879 64.365 31.4806 63.8996 31.8237 63.5565C32.1669 63.2134 32.6323 63.0206 33.1175 63.0206H80.6882C81.1735 63.0206 81.6388 63.2134 81.982 63.5565C82.3251 63.8996 82.5179 64.365 82.5179 64.8502ZM80.6882 11.7906H33.1175C32.6323 11.7906 32.1669 11.9834 31.8237 12.3265C31.4806 12.6696 31.2879 13.135 31.2879 13.6202C31.2879 14.8644 31.2879 35.8321 31.2879 35.576C31.2879 36.0612 31.4806 36.5266 31.8237 36.8697C32.1669 37.2128 32.6323 37.4056 33.1175 37.4056H80.6882C81.1735 37.4056 81.6388 37.2128 81.982 36.8697C82.3251 36.5266 82.5179 36.0612 82.5179 35.576C82.5179 34.3318 82.5179 13.3641 82.5179 13.6202C82.5179 13.135 82.3251 12.6696 81.982 12.3265C81.6388 11.9834 81.1735 11.7906 80.6882 11.7906ZM34.9471 16.4745L52.53 24.5981L34.9471 32.7217V16.4745ZM41.4424 15.4499H72.3633L56.9029 22.5855L41.4424 15.4499ZM56.9029 26.6107L72.3633 33.7463H41.4424L56.9029 26.6107ZM61.2757 24.5981L78.8586 16.4745V32.7217L61.2757 24.5981ZM33.1175 59.3613H44.0954C44.5806 59.3613 45.046 59.1686 45.3891 58.8254C45.7322 58.4823 45.925 58.0169 45.925 57.5317V42.8945C45.614 41.4857 44.7906 41.0649 44.0954 41.0649H33.1175C32.6323 41.0649 32.1669 41.2577 31.8237 41.6008C31.4806 41.9439 31.2879 42.4093 31.2879 42.8945V57.5317C31.3101 58.0098 31.51 58.4623 31.8485 58.8007C32.1869 59.1391 32.6394 59.339 33.1175 59.3613ZM36.7768 55.702L42.2657 48.3835V55.702H36.7768ZM40.4361 44.7242L34.9471 52.0427V44.7242H40.4361Z" fill="#151A6A"/>
<path d="M62.3918 41.0649H51.4139C50.9287 41.0649 50.4633 41.2577 50.1202 41.6008C49.7771 41.944 49.5843 42.4093 49.5843 42.8946V57.5317C49.6066 58.0098 49.8065 58.4624 50.1449 58.8008C50.4833 59.1392 50.9359 59.3391 51.4139 59.3614H62.3918C62.877 59.3614 63.3424 59.1686 63.6855 58.8255C64.0287 58.4824 64.2214 58.017 64.2214 57.5317V42.8946C63.9104 41.4858 63.087 41.0649 62.3918 41.0649ZM53.2436 44.7242H58.7325L53.2436 52.0428V44.7242ZM60.5621 55.7021H55.0732L60.5621 48.3835V55.7021Z" fill="#151A6A"/>
<path d="M80.6882 41.0649H69.7103C69.2251 41.0649 68.7597 41.2577 68.4166 41.6008C68.0735 41.944 67.8807 42.4093 67.8807 42.8946V57.5317C67.903 58.0098 68.1029 58.4624 68.4413 58.8008C68.7797 59.1392 69.2323 59.3391 69.7103 59.3614H80.6882C81.1735 59.3614 81.6388 59.1686 81.982 58.8255C82.3251 58.4824 82.5178 58.017 82.5178 57.5317V42.8946C82.2068 41.4858 81.3835 41.0649 80.6882 41.0649ZM71.54 44.7242H77.0289L71.54 52.0428V44.7242ZM78.8586 55.7021H73.3696L78.8586 48.3835V55.7021Z" fill="#151A6A"/>
</svg>
