<svg width="114" height="115" viewBox="0 0 114 115" fill="none" xmlns="http://www.w3.org/2000/svg">
<path d="M113.234 40.9485V79.756C113.234 81.2263 112.65 82.6364 111.611 83.6761C110.571 84.7158 109.161 85.2999 107.69 85.2999H68.8829C67.4126 85.2999 66.0025 84.7158 64.9628 83.6761C63.9231 82.6364 63.339 81.2263 63.339 79.756V40.9485C63.339 39.4781 63.9231 38.068 64.9628 37.0283C66.0025 35.9886 67.4126 35.4045 68.8829 35.4045H107.69C109.161 35.4045 110.571 35.9886 111.611 37.0283C112.65 38.068 113.234 39.4781 113.234 40.9485ZM59.6431 81.604V61.2762C59.6431 60.296 59.2537 59.3559 58.5605 58.6628C57.8674 57.9697 56.9273 57.5803 55.9471 57.5803H37.4673C35.997 57.5803 34.5869 58.1644 33.5472 59.204C32.5075 60.2437 31.9234 61.6539 31.9234 63.1242V81.604C31.9234 82.5842 32.3128 83.5243 33.0059 84.2174C33.699 84.9105 34.6391 85.2999 35.6194 85.2999H55.9471C56.9273 85.2999 57.8674 84.9105 58.5605 84.2174C59.2537 83.5243 59.6431 82.5842 59.6431 81.604ZM63.339 92.6918V111.172C63.339 112.152 63.7284 113.092 64.4215 113.785C65.1146 114.478 66.0547 114.868 67.035 114.868H85.5147C86.9851 114.868 88.3952 114.283 89.4349 113.244C90.4746 112.204 91.0587 110.794 91.0587 109.324V92.6918C91.0587 91.7116 90.6693 90.7715 89.9761 90.0784C89.283 89.3853 88.3429 88.9959 87.3627 88.9959H67.035C66.0547 88.9959 65.1146 89.3853 64.4215 90.0784C63.7284 90.7715 63.339 91.7116 63.339 92.6918ZM55.9471 88.9959H35.6194C34.6391 88.9959 33.699 89.3853 33.0059 90.0784C32.3128 90.7715 31.9234 91.7116 31.9234 92.6918V109.324C31.9234 110.794 32.5075 112.204 33.5472 113.244C34.5869 114.283 35.997 114.868 37.4673 114.868H55.9471C56.9273 114.868 57.8674 114.478 58.5605 113.785C59.2537 113.092 59.6431 112.152 59.6431 111.172V92.6918C59.6431 91.7116 59.2537 90.7715 58.5605 90.0784C57.8674 89.3853 56.9273 88.9959 55.9471 88.9959Z" fill="#85D192"/>
<path d="M6.05174 96.3878H54.0991C55.5695 96.3878 56.9796 95.8037 58.0193 94.764C59.059 93.7243 59.6431 92.3142 59.6431 90.8438V59.4282H76.2749C77.7452 59.4282 79.1553 58.8441 80.195 57.8044C81.2347 56.7648 81.8188 55.3546 81.8188 53.8843V28.0126C81.8188 26.5423 81.2347 25.1322 80.195 24.0925C79.1553 23.0528 77.7452 22.4687 76.2749 22.4687H59.6431V5.8369C59.6431 4.36656 59.059 2.95644 58.0193 1.91675C56.9796 0.87706 55.5695 0.292969 54.0991 0.292969H6.05174C4.5814 0.292969 3.17128 0.87706 2.13159 1.91675C1.0919 2.95644 0.507813 4.36656 0.507812 5.8369V90.8438C0.507813 92.3142 1.0919 93.7243 2.13159 94.764C3.17128 95.8037 4.5814 96.3878 6.05174 96.3878ZM54.0991 92.6918H6.05174C5.56163 92.6918 5.09159 92.4971 4.74503 92.1505C4.39846 91.804 4.20377 91.3339 4.20377 90.8438V85.2999H55.9471V90.8438C55.9471 91.3339 55.7524 91.804 55.4059 92.1505C55.0593 92.4971 54.5892 92.6918 54.0991 92.6918ZM78.1228 28.0126V53.8843C78.1228 54.3744 77.9281 54.8444 77.5816 55.191C77.235 55.5376 76.765 55.7323 76.2749 55.7323H28.2275C27.7373 55.7323 27.2673 55.5376 26.9207 55.191C26.5742 54.8444 26.3795 54.3744 26.3795 53.8843V28.0126C26.3795 27.5225 26.5742 27.0525 26.9207 26.7059C27.2673 26.3593 27.7373 26.1646 28.2275 26.1646H76.2749C76.765 26.1646 77.235 26.3593 77.5816 26.7059C77.9281 27.0525 78.1228 27.5225 78.1228 28.0126ZM28.2275 22.4687C26.7571 22.4687 25.347 23.0528 24.3073 24.0925C23.2676 25.1322 22.6835 26.5423 22.6835 28.0126V53.8843C22.6835 55.3546 23.2676 56.7648 24.3073 57.8044C25.347 58.8441 26.7571 59.4282 28.2275 59.4282H55.9471V81.6039H4.20377V15.0768H55.9471V22.4687H28.2275ZM6.05174 3.98892H54.0991C54.5892 3.98892 55.0593 4.18362 55.4059 4.53018C55.7524 4.87674 55.9471 5.34679 55.9471 5.8369V11.3808H4.20377V5.8369C4.20377 5.34679 4.39846 4.87674 4.74503 4.53018C5.09159 4.18362 5.56163 3.98892 6.05174 3.98892ZM44.8593 33.5565H37.4673C36.4871 33.5565 35.547 33.9459 34.8539 34.6391C34.1608 35.3322 33.7714 36.2723 33.7714 37.2525V44.6444C33.7714 45.6246 34.1608 46.5647 34.8539 47.2578C35.547 47.951 36.4871 48.3404 37.4673 48.3404H44.8593C45.8395 48.3404 46.7796 47.951 47.4727 47.2578C48.1658 46.5647 48.5552 45.6246 48.5552 44.6444V37.2525C48.5552 36.2723 48.1658 35.3322 47.4727 34.6391C46.7796 33.9459 45.8395 33.5565 44.8593 33.5565ZM37.4673 44.6444V37.2525H44.8593V44.6444H37.4673ZM54.0991 33.5565H68.8829C69.3731 33.5565 69.8431 33.7512 70.1897 34.0978C70.5362 34.4444 70.7309 34.9144 70.7309 35.4045C70.7309 35.8946 70.5362 36.3647 70.1897 36.7112C69.8431 37.0578 69.3731 37.2525 68.8829 37.2525H54.0991C53.609 37.2525 53.139 37.0578 52.7924 36.7112C52.4459 36.3647 52.2512 35.8946 52.2512 35.4045C52.2512 34.9144 52.4459 34.4444 52.7924 34.0978C53.139 33.7512 53.609 33.5565 54.0991 33.5565ZM70.7309 42.7964C70.7309 43.2865 70.5362 43.7566 70.1897 44.1031C69.8431 44.4497 69.3731 44.6444 68.8829 44.6444H54.0991C53.609 44.6444 53.139 44.4497 52.7924 44.1031C52.4459 43.7566 52.2512 43.2865 52.2512 42.7964C52.2512 42.3063 52.4459 41.8363 52.7924 41.4897C53.139 41.1432 53.609 40.9485 54.0991 40.9485H68.8829C69.3731 40.9485 69.8431 41.1432 70.1897 41.4897C70.5362 41.8363 70.7309 42.3063 70.7309 42.7964Z" fill="white"/>
</svg>
