<svg width="875" height="583" viewBox="0 0 875 583" fill="none" xmlns="http://www.w3.org/2000/svg">
<path d="M271.437 192.658H92.5633V313.129H271.437V192.658Z" fill="white"/>
<path d="M272.008 313.712H91.98V192.075H272.008V313.712ZM93.1466 312.546H270.842V193.241H93.1466V312.546Z" fill="#EBEBEB"/>
<path d="M109.842 201.776C109.842 202.59 109.6 203.386 109.148 204.063C108.695 204.74 108.052 205.267 107.299 205.579C106.547 205.891 105.719 205.972 104.92 205.813C104.121 205.654 103.387 205.262 102.811 204.687C102.235 204.111 101.843 203.378 101.684 202.579C101.525 201.781 101.607 200.953 101.918 200.201C102.23 199.449 102.758 198.806 103.435 198.354C104.113 197.902 104.909 197.66 105.723 197.66C106.816 197.66 107.863 198.094 108.635 198.866C109.408 199.638 109.842 200.685 109.842 201.776Z" fill="#37474F"/>
<path d="M126.665 201.776C126.665 202.59 126.423 203.386 125.971 204.063C125.518 204.74 124.875 205.267 124.123 205.579C123.37 205.891 122.542 205.972 121.743 205.813C120.944 205.654 120.211 205.262 119.635 204.687C119.059 204.111 118.666 203.378 118.507 202.579C118.349 201.781 118.43 200.953 118.742 200.201C119.054 199.449 119.581 198.806 120.259 198.354C120.936 197.902 121.732 197.66 122.547 197.66C123.639 197.66 124.686 198.094 125.459 198.866C126.231 199.638 126.665 200.685 126.665 201.776Z" fill="#EBEBEB"/>
<path d="M143.5 201.776C143.502 202.594 143.262 203.393 142.809 204.074C142.356 204.754 141.711 205.285 140.956 205.599C140.201 205.913 139.369 205.996 138.567 205.837C137.765 205.678 137.028 205.285 136.45 204.707C135.871 204.129 135.478 203.392 135.319 202.59C135.16 201.789 135.243 200.958 135.557 200.203C135.871 199.448 136.402 198.804 137.083 198.351C137.764 197.898 138.564 197.658 139.382 197.66C140.474 197.66 141.521 198.094 142.294 198.866C143.066 199.638 143.5 200.685 143.5 201.776Z" fill="#37B44D"/>
<path d="M271.437 210.23H92.5633V211.396H271.437V210.23Z" fill="#EBEBEB"/>
<path d="M810.425 276.703H631.552V397.175H810.425V276.703Z" fill="white"/>
<path d="M811.008 397.758H630.968V276.12H811.008V397.758ZM632.135 396.592H809.842V277.286H632.135V396.592Z" fill="#EBEBEB"/>
<path d="M648.83 285.822C648.83 286.636 648.588 287.431 648.136 288.108C647.683 288.785 647.04 289.313 646.288 289.624C645.535 289.936 644.707 290.017 643.908 289.858C643.109 289.7 642.375 289.308 641.8 288.732C641.224 288.156 640.831 287.423 640.672 286.625C640.514 285.826 640.595 284.999 640.907 284.246C641.219 283.494 641.746 282.852 642.424 282.399C643.101 281.947 643.897 281.706 644.712 281.706C645.804 281.706 646.851 282.139 647.624 282.911C648.396 283.683 648.83 284.73 648.83 285.822Z" fill="#37474F"/>
<path d="M665.653 285.822C665.653 286.634 665.413 287.429 664.962 288.105C664.511 288.781 663.869 289.308 663.119 289.621C662.368 289.933 661.542 290.017 660.744 289.861C659.946 289.705 659.213 289.316 658.635 288.744C658.058 288.172 657.663 287.442 657.5 286.646C657.337 285.85 657.414 285.023 657.72 284.271C658.027 283.518 658.549 282.873 659.222 282.416C659.894 281.96 660.687 281.713 661.5 281.706C662.044 281.701 662.583 281.804 663.087 282.009C663.59 282.214 664.049 282.516 664.435 282.899C664.821 283.281 665.127 283.737 665.337 284.238C665.546 284.74 665.653 285.278 665.653 285.822Z" fill="#EBEBEB"/>
<path d="M682.5 285.822C682.5 286.636 682.258 287.431 681.806 288.108C681.353 288.785 680.71 289.313 679.958 289.624C679.205 289.936 678.377 290.017 677.578 289.858C676.779 289.7 676.046 289.308 675.47 288.732C674.894 288.156 674.501 287.423 674.342 286.625C674.184 285.826 674.265 284.999 674.577 284.246C674.888 283.494 675.416 282.852 676.094 282.399C676.771 281.947 677.567 281.706 678.382 281.706C679.474 281.706 680.521 282.139 681.294 282.911C682.066 283.683 682.5 284.73 682.5 285.822Z" fill="#37B44D"/>
<path d="M810.425 294.275H631.552V295.441H810.425V294.275Z" fill="#EBEBEB"/>
<path d="M218.26 310.891C218.262 313.376 217.773 315.838 216.822 318.134C215.871 320.431 214.476 322.518 212.717 324.275C210.959 326.033 208.871 327.427 206.573 328.377C204.275 329.328 201.812 329.816 199.325 329.815C198.987 329.815 198.672 329.815 198.357 329.815L164.663 329.885C159.721 329.762 155.023 327.714 151.571 324.177C148.119 320.64 146.187 315.895 146.187 310.955C146.187 306.014 148.119 301.269 151.571 297.732C155.023 294.196 159.721 292.147 164.663 292.025H198.042C198.473 292.025 198.893 292.025 199.325 292.025C204.336 292.028 209.141 294.015 212.69 297.55C216.239 301.086 218.241 305.883 218.26 310.891Z" fill="#A6A6A6"/>
<path d="M164.873 311.509C164.907 310.803 165.137 310.12 165.538 309.538C165.701 309.27 165.888 309.013 166.063 308.757L167.23 307.591C167.661 307.276 168.105 306.938 168.548 306.646C170.378 305.481 172.419 304.688 174.556 304.314C179.478 303.335 184.545 303.335 189.466 304.314C191.571 304.7 193.58 305.492 195.381 306.646C195.86 306.961 196.303 307.311 196.758 307.637L197.925 308.733C198.217 309.158 198.485 309.598 198.73 310.051C198.921 310.514 199.08 310.989 199.208 311.474H198.87H189.455C189.373 311.501 189.284 311.502 189.202 311.474C189.12 311.447 189.049 311.393 189 311.322C188.736 310.806 188.34 310.369 187.852 310.055C187.365 309.742 186.802 309.563 186.223 309.538C183.387 309.357 180.542 309.357 177.706 309.538C177.127 309.561 176.563 309.738 176.075 310.052C175.587 310.366 175.191 310.804 174.93 311.322C174.848 311.45 174.79 311.544 174.603 311.544H164.885L164.873 311.509Z" fill="white"/>
<path d="M164.862 317.012V313.654C164.862 313.572 164.862 313.491 164.862 313.432H174.51C174.51 313.642 174.51 313.887 174.51 314.132C174.51 315.076 174.51 316.021 174.51 316.965C174.536 317.132 174.522 317.303 174.47 317.463C174.417 317.623 174.328 317.769 174.208 317.888C174.089 318.007 173.943 318.097 173.783 318.149C173.622 318.202 173.452 318.216 173.285 318.19H166.098C165.935 318.216 165.768 318.204 165.61 318.155C165.452 318.106 165.308 318.021 165.188 317.907C165.068 317.793 164.977 317.653 164.92 317.498C164.863 317.343 164.843 317.176 164.862 317.012Z" fill="white"/>
<path d="M189.432 317.059C189.432 315.893 189.432 314.645 189.525 313.444H199.033C199.033 313.502 199.033 313.584 199.033 313.654C199.033 314.82 199.033 315.904 199.033 317.035C199.052 317.193 199.035 317.353 198.983 317.503C198.931 317.653 198.845 317.789 198.733 317.901C198.621 318.014 198.485 318.099 198.334 318.151C198.184 318.203 198.024 318.22 197.867 318.201H190.587C190.432 318.22 190.274 318.203 190.127 318.152C189.979 318.102 189.844 318.018 189.733 317.908C189.622 317.799 189.538 317.665 189.485 317.518C189.433 317.371 189.415 317.214 189.432 317.059Z" fill="white"/>
<path d="M800.205 280.458C799.699 279.629 799.431 278.677 799.431 277.706C799.431 276.735 799.699 275.783 800.205 274.954C800.485 274.5 800.753 274.022 801.01 273.544C801.267 273.066 801.512 272.576 801.745 272.086C802.145 271.206 802.78 270.454 803.581 269.913C804.382 269.371 805.317 269.062 806.283 269.02L813.05 268.81L812.362 246.796L805.56 246.994C804.601 247.008 803.657 246.756 802.834 246.266C802.01 245.776 801.338 245.068 800.893 244.219C800.378 243.28 799.813 242.369 799.202 241.49C798.638 240.695 798.303 239.759 798.235 238.787C798.168 237.814 798.369 236.841 798.817 235.975L802.013 230.028L782.577 219.604L779.392 225.551C778.919 226.407 778.219 227.116 777.369 227.6C776.519 228.083 775.551 228.322 774.573 228.291C773.503 228.268 772.432 228.303 771.365 228.396C770.409 228.497 769.444 228.333 768.575 227.922C767.707 227.51 766.968 226.868 766.442 226.064L762.848 220.234L744.112 231.894L747.693 237.724C748.194 238.533 748.46 239.466 748.46 240.418C748.46 241.369 748.194 242.302 747.693 243.111C747.402 243.601 747.122 244.09 746.853 244.603C746.585 245.117 746.317 245.618 746.083 246.131C745.681 247 745.044 247.739 744.244 248.266C743.445 248.793 742.514 249.088 741.557 249.116L734.79 249.326L735.467 271.352L742.222 271.13C743.169 271.107 744.105 271.343 744.928 271.814C745.751 272.285 746.429 272.972 746.888 273.8C747.449 274.827 748.064 275.824 748.732 276.785C749.276 277.567 749.592 278.486 749.643 279.437C749.695 280.389 749.48 281.336 749.023 282.172L745.838 288.119L765.333 298.426L768.518 292.479C768.99 291.624 769.691 290.916 770.541 290.434C771.392 289.952 772.36 289.716 773.337 289.751C774.411 289.774 775.486 289.739 776.557 289.646C777.518 289.551 778.487 289.724 779.356 290.146C780.225 290.568 780.961 291.222 781.48 292.036L785.062 297.808L803.798 286.148L800.205 280.458ZM767.538 275.911C764.017 274.566 761.005 272.155 758.924 269.014C756.843 265.873 755.797 262.159 755.934 258.395C756.07 254.63 757.382 251.002 759.686 248.02C761.989 245.038 765.168 242.85 768.778 241.765C772.387 240.679 776.246 240.75 779.814 241.966C783.381 243.183 786.478 245.484 788.671 248.548C790.864 251.612 792.043 255.286 792.042 259.053C792.041 262.82 790.861 266.493 788.667 269.556C786.343 272.793 783.013 275.172 779.196 276.321C775.379 277.471 771.288 277.326 767.562 275.911H767.538Z" fill="#EBEBEB"/>
<path d="M722.283 215.325C721.699 214.978 721.222 214.477 720.905 213.876C720.588 213.275 720.443 212.598 720.487 211.92C720.487 211.536 720.487 211.163 720.487 210.754C720.487 210.346 720.487 209.985 720.487 209.588C720.44 208.913 720.582 208.238 720.898 207.639C721.213 207.04 721.689 206.54 722.272 206.195L726.378 203.863L718.667 190.501L714.56 192.833C713.968 193.167 713.295 193.33 712.615 193.306C711.936 193.281 711.276 193.069 710.71 192.693C710.067 192.268 709.401 191.879 708.715 191.527C708.108 191.226 707.597 190.763 707.238 190.188C706.88 189.614 706.688 188.951 706.685 188.274V183.54H691.238V188.274C691.235 188.951 691.044 189.614 690.685 190.188C690.327 190.763 689.815 191.226 689.208 191.527C688.525 191.877 687.863 192.266 687.225 192.693C686.657 193.071 685.996 193.285 685.314 193.309C684.632 193.334 683.957 193.169 683.363 192.833L679.268 190.501L671.545 203.875L675.663 206.207C676.248 206.551 676.725 207.05 677.042 207.649C677.36 208.248 677.504 208.924 677.46 209.6C677.46 209.973 677.46 210.346 677.46 210.766C677.46 211.186 677.46 211.524 677.46 211.932C677.504 212.611 677.358 213.289 677.039 213.891C676.719 214.492 676.239 214.993 675.652 215.337L671.545 217.669L679.268 231.031L683.352 228.699C683.942 228.361 684.615 228.194 685.295 228.217C685.975 228.239 686.635 228.451 687.202 228.827C687.85 229.25 688.52 229.639 689.208 229.993C689.815 230.297 690.326 230.763 690.685 231.339C691.043 231.916 691.235 232.58 691.238 233.258V237.981H706.685V233.2C706.689 232.521 706.88 231.857 707.239 231.281C707.597 230.705 708.108 230.239 708.715 229.935C709.405 229.583 710.075 229.194 710.722 228.769C711.288 228.393 711.948 228.181 712.629 228.158C713.309 228.136 713.981 228.303 714.572 228.641L718.667 230.973L726.378 217.611L722.283 215.325ZM698.95 223.487C696.451 223.476 694.012 222.725 691.939 221.331C689.867 219.936 688.253 217.96 687.303 215.651C686.352 213.341 686.106 210.802 686.596 208.354C687.087 205.905 688.291 203.656 690.058 201.891C691.824 200.125 694.075 198.921 696.525 198.431C698.975 197.941 701.515 198.187 703.826 199.137C706.136 200.087 708.114 201.7 709.509 203.771C710.904 205.843 711.655 208.281 711.667 210.778C711.667 212.442 711.338 214.09 710.7 215.627C710.061 217.164 709.126 218.561 707.947 219.736C706.768 220.911 705.368 221.842 703.828 222.476C702.288 223.11 700.639 223.433 698.973 223.429L698.95 223.487Z" fill="#EBEBEB"/>
<path d="M162.015 179.564L169.727 192.926L173.822 190.594C174.414 190.261 175.087 190.097 175.766 190.122C176.446 190.146 177.105 190.358 177.672 190.734C178.319 191.159 178.989 191.548 179.678 191.9C180.285 192.202 180.795 192.666 181.153 193.24C181.512 193.814 181.704 194.477 181.708 195.153V199.887H197.167V195.153C197.171 194.477 197.363 193.814 197.722 193.24C198.08 192.666 198.591 192.202 199.197 191.9C199.885 191.546 200.555 191.157 201.203 190.734C201.77 190.358 202.429 190.146 203.109 190.122C203.788 190.097 204.461 190.261 205.053 190.594L209.148 192.926L216.848 179.564L212.742 177.232C212.139 176.881 211.649 176.365 211.329 175.746C211.009 175.126 210.871 174.428 210.933 173.734C210.933 173.349 210.933 172.976 210.933 172.568C210.933 172.16 210.933 171.81 210.933 171.402C210.889 170.726 211.034 170.05 211.351 169.451C211.668 168.852 212.146 168.353 212.73 168.009L216.848 165.677L209.137 152.303L205.03 154.635C204.438 154.969 203.765 155.132 203.085 155.108C202.406 155.083 201.746 154.871 201.18 154.495C200.537 154.07 199.871 153.681 199.185 153.329C198.579 153.027 198.068 152.563 197.71 151.989C197.352 151.415 197.159 150.753 197.155 150.076V145.342H181.708V150.076C181.704 150.753 181.512 151.415 181.153 151.989C180.795 152.563 180.285 153.027 179.678 153.329C178.993 153.681 178.327 154.07 177.683 154.495C177.117 154.871 176.458 155.083 175.778 155.108C175.099 155.132 174.426 154.969 173.833 154.635L169.727 152.303L162.015 165.677L166.122 168.009C166.705 168.353 167.181 168.853 167.496 169.452C167.811 170.052 167.953 170.727 167.907 171.402C167.907 171.775 167.907 172.16 167.907 172.568C167.907 172.976 167.907 173.326 167.907 173.734C167.95 174.412 167.806 175.089 167.489 175.689C167.172 176.29 166.694 176.792 166.11 177.139L162.015 179.564ZM176.773 172.568C176.773 170.065 177.516 167.619 178.907 165.538C180.299 163.457 182.277 161.836 184.59 160.879C186.904 159.922 189.45 159.672 191.906 160.161C194.361 160.65 196.617 161.856 198.387 163.626C200.156 165.397 201.361 167.652 201.848 170.107C202.335 172.562 202.083 175.106 201.123 177.417C200.163 179.729 198.539 181.704 196.456 183.093C194.373 184.481 191.924 185.221 189.42 185.219C187.758 185.219 186.113 184.892 184.578 184.256C183.043 183.62 181.648 182.688 180.473 181.513C179.299 180.338 178.368 178.943 177.733 177.408C177.098 175.874 176.772 174.229 176.773 172.568Z" fill="#EBEBEB"/>
<path d="M470.175 191.742C479.329 154.992 456.942 117.784 420.171 108.635C383.4 99.4855 346.17 121.86 337.016 158.61C327.862 195.36 350.249 232.568 387.02 241.717C423.791 250.867 461.02 228.492 470.175 191.742Z" fill="#EBEBEB"/>
<path d="M454.349 187.846C461.376 159.804 444.327 131.379 416.269 124.356C388.212 117.334 359.77 134.373 352.744 162.414C345.717 190.456 362.766 218.881 390.823 225.904C418.881 232.926 447.322 215.887 454.349 187.846Z" fill="white"/>
<path d="M439.883 184.311C444.936 164.279 432.785 143.946 412.742 138.896C392.699 133.846 372.354 145.991 367.301 166.022C362.248 186.054 374.4 206.387 394.443 211.437C414.486 216.487 434.83 204.342 439.883 184.311Z" fill="#EBEBEB"/>
<path d="M423.617 180.231C426.427 169.164 419.729 157.916 408.656 155.107C397.583 152.299 386.328 158.993 383.518 170.06C380.708 181.127 387.406 192.375 398.479 195.183C409.552 197.992 420.807 191.297 423.617 180.231Z" fill="white"/>
<path d="M412.662 177.483C413.94 172.478 410.916 167.387 405.909 166.11C400.901 164.834 395.807 167.855 394.53 172.86C393.252 177.864 396.276 182.956 401.283 184.232C406.291 185.509 411.385 182.487 412.662 177.483Z" fill="#EBEBEB"/>
<path d="M486.629 90.2529L408.035 168.802L409.924 170.69L488.518 92.1409L486.629 90.2529Z" fill="#C7C7C7"/>
<path d="M413.84 172.405L403.573 175.156L406.315 164.884L413.84 172.405Z" fill="#A6A6A6"/>
<path d="M500.722 86.0858L485.987 100.812L474.425 104.334L477.948 92.7903L492.695 78.052L489.16 89.6071L500.722 86.0858Z" fill="#A6A6A6"/>
<path d="M52.85 455.929L149.018 455.649L245.175 455.545L437.5 455.346L629.825 455.545L725.982 455.649L822.15 455.929L725.982 456.221L629.825 456.314L437.5 456.512L245.175 456.314L149.018 456.209L52.85 455.929Z" fill="#263238"/>
<path d="M296.193 462.809H135.415L122.967 353.671H283.745L296.193 462.809Z" fill="#37474F"/>
<path d="M287.432 455.486H142.508L131.728 360.994H276.652L287.432 455.486Z" fill="white"/>
<path d="M387.077 455.486H222.052V462.809H387.077V455.486Z" fill="#37474F"/>
<path d="M387.065 455.486H304.01V462.809H387.065V455.486Z" fill="#263238"/>
<path d="M236.238 360.994L142.427 454.752L139.627 430.231L208.892 360.994H236.238Z" fill="#EBEBEB"/>
<path d="M284.982 433.962L263.445 455.486H236.098L282.182 409.429L284.982 433.962Z" fill="#EBEBEB"/>
<path d="M149.683 360.994L133.572 377.096L132.615 368.736L140.362 360.994H149.683Z" fill="#EBEBEB"/>
<path d="M280.385 393.665L218.528 455.486H209.195L279.428 385.293L280.385 393.665Z" fill="#EBEBEB"/>
<path d="M161.84 360.994L134.808 388.01L134.575 385.911L159.507 360.994H161.84Z" fill="#EBEBEB"/>
<path d="M249.643 360.994L155.097 455.486H152.763L247.31 360.994H249.643Z" fill="#EBEBEB"/>
<path d="M278.81 379.848L203.128 455.486H200.795L278.577 377.749L278.81 379.848Z" fill="#EBEBEB"/>
<path d="M577.85 462.809H738.64L751.077 353.671H590.298L577.85 462.809Z" fill="#37474F"/>
<path d="M586.612 455.486H731.547L742.315 360.994H597.392L586.612 455.486Z" fill="white"/>
<path d="M652.003 455.486H486.978V462.809H652.003V455.486Z" fill="#37474F"/>
<path d="M570.033 455.486H486.978V462.809H570.033V455.486Z" fill="#263238"/>
<path d="M738.15 397.594L734.627 428.447L707.572 455.486H680.225L738.15 397.594Z" fill="#EBEBEB"/>
<path d="M686.758 360.994L592.223 455.486H586.612L589.412 430.965L659.423 360.994H686.758Z" fill="#EBEBEB"/>
<path d="M625.17 360.994L593.822 392.324L595.023 381.795L615.837 360.994H625.17Z" fill="#EBEBEB"/>
<path d="M728.292 360.994L633.745 455.486H624.412L718.958 360.994H728.292Z" fill="#EBEBEB"/>
<path d="M739.492 385.818L739.2 388.453L672.128 455.486H669.795L739.492 385.818Z" fill="#EBEBEB"/>
<path d="M738.08 360.994L643.545 455.486H641.212L735.758 360.994H738.08Z" fill="#EBEBEB"/>
<path d="M650.02 360.994L590.613 420.366L590.917 417.731L647.687 360.994H650.02Z" fill="#EBEBEB"/>
<path d="M284.807 298.496C304.745 338.735 334.273 378.95 342.183 386.482C363.44 406.864 420.187 421.521 436.917 421.987C444.138 422.185 454.125 374.239 448.793 368.654C443.462 363.069 373.403 347.829 369.647 344.961C367.045 342.921 333.667 311.17 311.5 292.316C283.932 268.891 279.568 287.885 284.807 298.496Z" fill="#F7A9A0"/>
<path d="M433.323 361.95L415.228 419.025C415.228 419.025 355.938 403.436 340.072 388.185C324.205 372.933 291.34 318.341 284.923 300.338C278.507 282.335 282.683 268.122 311.757 291.477C340.83 314.832 365.482 338.723 370.627 342.571C375.772 346.419 433.323 361.95 433.323 361.95Z" fill="#455A64"/>
<path d="M414.96 364.235C415.048 364.805 415.302 365.336 415.692 365.762C416.082 366.187 416.589 366.487 417.149 366.624C417.709 366.761 418.298 366.729 418.84 366.532C419.382 366.335 419.854 365.982 420.195 365.517C420.536 365.052 420.732 364.496 420.757 363.92C420.782 363.344 420.636 362.773 420.336 362.28C420.037 361.787 419.598 361.394 419.075 361.151C418.552 360.907 417.969 360.824 417.398 360.912C416.634 361.03 415.948 361.446 415.491 362.069C415.034 362.692 414.843 363.471 414.96 364.235Z" fill="#263238"/>
<path d="M400.435 360.049C400.52 360.62 400.773 361.153 401.162 361.58C401.551 362.007 402.057 362.309 402.618 362.448C403.178 362.587 403.767 362.556 404.311 362.36C404.854 362.164 405.327 361.811 405.669 361.346C406.011 360.881 406.208 360.325 406.233 359.749C406.259 359.172 406.113 358.601 405.814 358.107C405.514 357.614 405.075 357.22 404.552 356.976C404.028 356.732 403.444 356.649 402.873 356.738C402.495 356.795 402.133 356.926 401.805 357.123C401.478 357.32 401.193 357.58 400.967 357.888C400.74 358.195 400.577 358.545 400.485 358.915C400.394 359.286 400.377 359.672 400.435 360.049Z" fill="#263238"/>
<path d="M371.49 404.882C358.505 399.845 346.127 393.98 340.072 388.185C324.205 373.027 291.34 318.341 284.923 300.338C280.817 288.83 281.038 278.872 289.322 279.28L371.49 404.882Z" fill="#263238"/>
<path d="M190.237 455.463H339.92C340.527 449.994 309.727 297.563 295.062 278.452C291.923 274.36 281.575 273.229 272.79 274.325C270.495 274.586 268.227 275.046 266.012 275.701C265.941 275.733 265.866 275.756 265.79 275.771C263.999 276.284 262.313 277.109 260.808 278.208C236.343 297.761 189.058 454.122 190.237 455.463Z" fill="#455A64"/>
<path d="M282.882 312.943L289.252 300.56L297.465 309.515L295.458 318.435L287.338 319.472L282.882 312.943Z" fill="#263238"/>
<path d="M287.338 319.472L283.465 410.572L300.545 440.701L309.412 406.794L295.458 318.435L287.338 319.472Z" fill="#263238"/>
<path d="M287.105 298.904C284.772 298.811 269.115 286.591 264.308 277.065C263.982 276.412 265.195 269.696 266.28 261.452C266.91 256.45 267.447 250.865 267.68 245.734C267.68 244.673 271.238 246.737 271.238 246.737L277.83 248.556L299.647 254.631C299.647 254.631 296.147 265.288 295.867 274.243C295.857 274.954 295.907 275.664 296.018 276.365C296.026 276.482 296.026 276.599 296.018 276.715C296.578 280.738 290.967 299.056 287.105 298.904Z" fill="#F7A9A0"/>
<path d="M296.018 276.342C296.026 276.458 296.026 276.575 296.018 276.692C294.917 276.8 293.809 276.82 292.705 276.75C271.017 275.584 269.232 247.88 269.232 247.88L277.795 248.533L299.612 254.608C299.612 254.608 296.112 265.265 295.832 274.22C295.833 274.931 295.896 275.641 296.018 276.342Z" fill="#263238"/>
<path d="M262.617 208.003C259.338 219.488 266.012 252.381 274.283 259.587C286.265 270.081 305.585 270.687 314.382 256.345C322.91 242.458 313.472 199.747 304.255 193.23C290.698 183.633 267.447 191.026 262.617 208.003Z" fill="#F7A9A0"/>
<path d="M295.167 227.148C295.167 227.067 295.015 227.288 295.038 227.37C295.54 229.574 295.762 232.186 293.872 233.317C293.813 233.317 293.872 233.468 293.872 233.445C296.333 232.605 296.042 229.154 295.167 227.148Z" fill="#263238"/>
<path d="M292.763 225.225C289.147 225.656 290.278 232.862 293.627 232.465C296.975 232.069 295.797 224.851 292.763 225.225Z" fill="#263238"/>
<path d="M308.198 225.481C308.198 225.388 308.385 225.551 308.397 225.644C308.677 227.895 309.377 230.413 311.512 230.833C311.582 230.833 311.593 230.961 311.512 230.961C308.992 231.008 308.105 227.65 308.198 225.481Z" fill="#263238"/>
<path d="M309.82 222.834C313.32 221.995 314.79 229.154 311.5 229.924C308.21 230.693 306.833 223.534 309.82 222.834Z" fill="#263238"/>
<path d="M289.403 222.368C290.309 221.944 291.189 221.47 292.04 220.945C293.039 220.576 293.888 219.888 294.455 218.986C294.577 218.668 294.59 218.319 294.493 217.992C294.396 217.665 294.194 217.38 293.918 217.179C293.313 216.866 292.634 216.72 291.953 216.757C291.272 216.794 290.613 217.012 290.045 217.389C288.778 217.976 287.773 219.01 287.222 220.292C287.113 220.593 287.094 220.918 287.168 221.229C287.241 221.539 287.403 221.822 287.635 222.042C287.866 222.262 288.156 222.41 288.47 222.468C288.785 222.526 289.109 222.491 289.403 222.368Z" fill="#263238"/>
<path d="M312.037 218.765C311.01 218.765 310.065 218.578 309.062 218.473C307.995 218.518 306.944 218.207 306.075 217.587C305.835 217.345 305.684 217.029 305.646 216.691C305.608 216.352 305.685 216.011 305.865 215.722C306.303 215.2 306.872 214.803 307.514 214.574C308.155 214.344 308.847 214.29 309.517 214.416C310.914 214.467 312.243 215.032 313.25 216.001C313.463 216.238 313.604 216.531 313.654 216.846C313.705 217.16 313.664 217.483 313.536 217.775C313.408 218.066 313.198 218.315 312.932 218.491C312.666 218.666 312.355 218.761 312.037 218.765Z" fill="#263238"/>
<path d="M296.392 248.195C297.01 248.626 297.663 249.267 298.48 249.209C299.316 249.065 300.112 248.743 300.813 248.265C300.828 248.259 300.844 248.258 300.859 248.261C300.874 248.265 300.888 248.272 300.9 248.284C300.911 248.295 300.918 248.309 300.922 248.324C300.925 248.339 300.924 248.355 300.918 248.37C300.67 248.858 300.293 249.27 299.829 249.561C299.365 249.853 298.83 250.013 298.282 250.025C297.806 249.977 297.356 249.79 296.986 249.488C296.617 249.185 296.345 248.78 296.205 248.323C296.147 248.206 296.333 248.125 296.392 248.195Z" fill="#263238"/>
<path d="M304.908 242.703C304.157 244.079 303.064 245.24 301.735 246.073C300.999 246.504 300.146 246.692 299.297 246.609C297.43 246.422 297.138 244.802 297.243 243.344C297.306 242.575 297.459 241.816 297.698 241.082C299.868 242.375 302.394 242.943 304.908 242.703Z" fill="white"/>
<path d="M297.698 241.14C298.411 241.931 299.28 242.565 300.249 243.005C301.219 243.444 302.269 243.679 303.333 243.694C304.265 243.723 305.197 243.617 306.098 243.379C306.274 243.35 306.446 243.304 306.612 243.239C306.763 243.239 306.915 243.158 307.09 243.088C307.204 243.045 307.302 242.966 307.367 242.863C307.432 242.76 307.462 242.638 307.452 242.516C307.445 242.44 307.425 242.365 307.393 242.295V242.097C307.172 240.371 306.588 237.782 306.588 237.782C307.265 238.004 310.695 238.948 310.508 238.051C308.898 230.681 307.102 222.496 303.94 215.5C303.918 215.454 303.881 215.417 303.834 215.396C303.787 215.376 303.734 215.373 303.685 215.389C303.636 215.405 303.595 215.438 303.569 215.482C303.543 215.526 303.534 215.578 303.543 215.628C304.803 222.764 307.323 229.62 308.723 236.791C307.498 236.437 306.23 236.257 304.955 236.255C304.722 236.372 306.122 241.245 306.203 242.027V242.108C303.368 242.936 301.047 242.4 297.943 240.942C297.687 240.802 297.5 240.977 297.698 241.14Z" fill="#263238"/>
<path d="M266.49 233.655C274.342 232.489 273.782 217.995 273.782 217.995C273.782 217.995 286.953 213.809 287.432 203.374C287.432 203.374 301.432 209.682 310.975 204.54C320.518 199.398 316.738 188.344 315.268 186.07C313.798 183.797 308.875 189.137 308.875 189.137C308.875 189.137 307.288 182.782 305.48 182.374C303.672 181.966 302.353 186.14 302.353 186.14C302.353 186.14 288.738 183.692 277.013 185.744C265.288 187.796 261.193 200.552 261.193 200.552C261.193 200.552 255.092 202.802 253.703 207.548C252.315 212.294 261.473 234.366 266.49 233.655Z" fill="#263238"/>
<path d="M270.667 218.555C281.307 218.415 287.222 210.475 287.28 200.261C287.287 200.24 287.301 200.222 287.318 200.209C287.336 200.197 287.357 200.19 287.379 200.19C287.401 200.19 287.422 200.197 287.44 200.209C287.458 200.222 287.471 200.24 287.478 200.261C288.528 209.589 281.353 221.249 270.632 219.045C270.328 218.975 270.34 218.555 270.667 218.555Z" fill="#263238"/>
<path d="M261.45 200.295C261.475 200.29 261.501 200.293 261.524 200.304C261.547 200.315 261.566 200.333 261.577 200.355C261.589 200.377 261.594 200.403 261.589 200.428C261.585 200.453 261.573 200.476 261.555 200.494C258.825 202.278 255.628 203.77 253.96 206.732C251.953 210.311 253.097 214.451 254.567 217.972C256.818 223.417 260.82 230.343 266.362 232.932C266.688 233.083 266.443 233.55 266.128 233.422C259.525 230.728 254.602 221.703 252.793 215.162C250.763 207.839 254.788 202.884 261.45 200.295Z" fill="#263238"/>
<path d="M299.297 204.621C304.302 206.72 311.138 205.787 315.187 202.033C320.11 197.369 318.022 191.247 314.872 186.315C314.72 186.082 315.058 185.744 315.268 185.965C319.2 190.128 320.495 197.136 316.587 201.776C312.678 206.417 304.465 207.606 298.947 205.274C298.492 205.123 298.83 204.423 299.297 204.621Z" fill="#263238"/>
<path d="M293.347 240.196C291.535 240.266 289.74 239.827 288.166 238.927C286.592 238.028 285.302 236.705 284.443 235.109C283.585 233.513 283.191 231.708 283.309 229.9C283.426 228.092 284.048 226.353 285.106 224.881C286.164 223.409 287.613 222.263 289.29 221.574C290.967 220.885 292.804 220.681 294.592 220.984C296.379 221.287 298.046 222.086 299.401 223.289C300.757 224.492 301.748 226.052 302.26 227.79C302.983 230.25 302.701 232.896 301.474 235.148C300.246 237.4 298.175 239.073 295.715 239.8C294.945 240.028 294.149 240.161 293.347 240.196ZM292.658 222.146C291.963 222.18 291.274 222.294 290.605 222.484C288.561 223.089 286.825 224.45 285.75 226.289C284.675 228.128 284.342 230.308 284.819 232.384C285.295 234.461 286.546 236.277 288.316 237.464C290.086 238.651 292.242 239.119 294.345 238.772C296.448 238.426 298.34 237.292 299.635 235.6C300.931 233.908 301.532 231.787 301.317 229.667C301.102 227.548 300.087 225.59 298.478 224.193C296.869 222.796 294.788 222.064 292.658 222.146Z" fill="#455A64"/>
<path d="M315.268 236.698C311.57 236.838 308.07 233.2 307.288 228.198C306.878 225.821 307.221 223.375 308.268 221.202C308.692 220.259 309.338 219.433 310.151 218.793C310.963 218.154 311.919 217.72 312.935 217.529C313.958 217.399 314.997 217.52 315.963 217.882C316.928 218.243 317.791 218.835 318.477 219.604C320.134 221.358 321.206 223.583 321.545 225.971C322.362 231.241 319.842 236.033 315.922 236.64C315.706 236.678 315.487 236.697 315.268 236.698ZM313.612 218.753H313.122C312.312 218.921 311.555 219.28 310.912 219.799C310.268 220.318 309.758 220.983 309.423 221.738C308.5 223.671 308.202 225.843 308.572 227.953C309.283 232.512 312.468 235.823 315.7 235.322C318.932 234.821 320.962 230.658 320.25 226.122C319.96 224.004 319.019 222.027 317.555 220.467C317.051 219.925 316.441 219.492 315.763 219.195C315.084 218.898 314.352 218.744 313.612 218.742V218.753Z" fill="#455A64"/>
<path d="M302.167 228.979L301.198 228.128C302.458 226.682 305.55 224.525 308.28 226.659L307.487 227.673C304.99 225.761 302.225 228.851 302.167 228.979Z" fill="#455A64"/>
<path d="M259.887 238.074L258.72 237.666C258.907 237.094 260.668 232.057 263.387 231.148C266.105 230.238 283.383 229.236 284.118 229.189L284.2 230.483C279.207 230.786 265.802 231.719 263.795 232.372C261.788 233.025 260.353 236.698 259.887 238.074Z" fill="#455A64"/>
<path d="M271.483 235.112C271.483 235.112 263.608 224.735 258.86 227.592C254.112 230.448 260.342 245.676 266.117 247.577C266.84 247.862 267.614 248 268.392 247.982C269.17 247.964 269.936 247.791 270.646 247.473C271.356 247.155 271.995 246.697 272.526 246.129C273.056 245.56 273.467 244.891 273.735 244.16L271.483 235.112Z" fill="#F7A9A0"/>
<path d="M260.762 231.917C260.668 231.917 260.657 232.034 260.762 232.069C264.822 233.527 267.062 237.141 268.683 240.907C267.435 239.485 265.79 238.739 263.865 240.219C263.848 240.239 263.838 240.264 263.835 240.29C263.833 240.316 263.838 240.342 263.851 240.365C263.863 240.387 263.883 240.406 263.906 240.417C263.929 240.429 263.956 240.433 263.982 240.429C264.675 240.18 265.429 240.152 266.139 240.349C266.849 240.545 267.481 240.956 267.948 241.525C268.727 242.478 269.396 243.514 269.943 244.615C270.153 244.965 270.783 244.743 270.632 244.335V244.254C270.457 239.17 266.233 232.209 260.762 231.917Z" fill="#263238"/>
<path d="M296.135 277.135L288.342 296.246L264.728 272.109L257.997 279.84C257.997 279.84 281.073 318.155 281.213 316.429L289.1 300.035L300.405 311.474L299.553 282.813L296.135 277.135Z" fill="#455A64"/>
<path d="M300.79 297.33C300.487 292.596 300.312 287.827 299.798 283.128C299.798 282.953 299.518 282.883 299.472 283.128C298.515 287.687 299.763 305.76 299.728 310.086C299.262 309.596 289.228 300.023 289.147 300.175C287.443 302.775 281.657 314.715 281.26 315.799C277.608 309.713 263.632 287.582 259.303 281.822C259.279 281.791 259.244 281.769 259.205 281.761C259.166 281.753 259.126 281.76 259.091 281.78C259.057 281.8 259.031 281.832 259.018 281.87C259.006 281.908 259.008 281.949 259.023 281.985C262.243 288.422 280.747 318.213 281.038 318.131C284.078 312.5 286.827 306.717 289.275 300.805C290.967 302.88 301.07 313.631 301.105 312.978C301.278 307.76 301.172 302.537 300.79 297.33Z" fill="#263238"/>
<path d="M345.065 476.498L228.503 488.029L228.13 397.723L344.692 386.179L345.065 476.498Z" fill="#37B44D"/>
<path d="M266.175 383.964L228.025 387.742L228.13 397.723L268.952 393.677L266.175 383.964Z" fill="#37B44D"/>
<g opacity="0.1">
<path opacity="0.1" d="M345.065 476.498L228.503 488.029L228.13 397.723L344.692 386.179L345.065 476.498Z" fill="black"/>
<path opacity="0.1" d="M266.175 383.964L228.025 387.742L228.13 397.723L268.952 393.677L266.175 383.964Z" fill="black"/>
</g>
<path d="M344.983 476.509L232.563 487.633L216.487 397.07L336.315 387.019L344.983 476.509Z" fill="#EBEBEB"/>
<path d="M344.983 476.509L229.705 487.913L212.473 400.871L333.655 388.884L344.983 476.509Z" fill="white"/>
<path d="M344.773 476.533L227.967 488.088L210.91 402.923L327.728 391.368L344.773 476.533Z" fill="#37B44D"/>
<path d="M245.14 291.85C205.298 327.996 176.54 390.26 177.473 407.039C178.64 429.193 218.82 467.111 244.988 478.083C251.603 480.858 277.2 426.709 267.517 423.888C257.297 420.914 233.683 399.507 232.517 398.527C230.067 396.452 249.107 349.077 257.075 320.324C266 287.85 261.905 276.645 245.14 291.85Z" fill="#F7A9A0"/>
<path d="M230.148 469.805C255.5 488.088 289.94 492.052 295.878 491.446C300.953 490.944 303.555 490.641 303.555 490.641C312.667 489.93 315.933 485.616 315.933 485.616C315.933 485.616 326.713 487.878 329.163 481.605C331.94 474.609 316.26 472.755 308.257 466.447C289.905 452.093 267.832 426.558 262.955 421.894L230.148 469.805Z" fill="#F7A9A0"/>
<path d="M278.448 464.954C283.932 469.07 289.217 473.256 295.225 476.614C301.828 480.287 308.793 482.724 315.828 485.383C315.866 485.403 315.895 485.436 315.912 485.475C315.928 485.515 315.93 485.559 315.918 485.6C315.906 485.641 315.88 485.677 315.844 485.701C315.809 485.725 315.766 485.736 315.723 485.732C301.553 482.525 288.533 475.5 278.075 465.421C277.83 465.234 278.168 464.756 278.448 464.954Z" fill="#263238"/>
<path d="M268.17 474.772C273.723 478.48 283.535 484.939 303.613 490.431C303.683 490.431 303.672 490.559 303.613 490.548C290.507 488.908 278.115 483.66 267.82 475.39C267.482 475.087 267.797 474.562 268.17 474.772Z" fill="#263238"/>
<path d="M287.233 447.802C285.588 444.981 287.058 444.094 292.448 446.217C297.838 448.339 317.427 461.375 321.382 454.122C325.337 446.87 297.5 428.995 288.167 426.15C278.833 423.305 262.932 421.94 262.932 421.94C267.68 426.523 278.075 438.707 287.233 447.802Z" fill="#F7A9A0"/>
<path d="M231.058 473.874L262.803 420.623C262.803 420.623 233.1 399.798 232.96 397.723C232.82 395.647 253.832 338.257 260.178 310.016C266.525 281.776 263.387 268.308 235.573 299.79C207.76 331.272 172.095 384.244 173.985 406.946C175.875 429.648 231.058 473.874 231.058 473.874Z" fill="#455A64"/>
<path d="M254.905 336.974C253.738 338.991 252.513 340.973 251.475 343.049C251.125 343.725 250.787 344.401 250.448 345.078C250.705 344.262 250.973 343.457 251.242 342.641C252.863 337.522 254.438 332.38 255.815 327.18C255.826 327.15 255.825 327.118 255.811 327.089C255.798 327.061 255.774 327.039 255.745 327.028C255.716 327.017 255.683 327.019 255.655 327.032C255.626 327.045 255.604 327.069 255.593 327.098C251.93 335.913 248.897 344.996 245.887 354.056C242.877 363.116 240.053 372.362 237.3 381.574C235.783 386.727 234.22 391.904 233.03 397.14C233.037 397.157 233.049 397.173 233.064 397.184C233.08 397.195 233.098 397.2 233.118 397.2C233.137 397.2 233.155 397.195 233.171 397.184C233.186 397.173 233.198 397.157 233.205 397.14C234.955 392.651 236.437 388.045 237.953 383.474C239.47 378.903 241.01 374.344 242.492 369.774C244.825 362.474 247.158 355.171 249.492 347.864C250.489 346.495 251.342 345.026 252.035 343.48C253.12 341.358 253.983 339.143 254.94 336.974H254.905Z" fill="#263238"/>
<path d="M225.423 460.5C225.244 461.048 225.231 461.637 225.387 462.193C225.543 462.748 225.86 463.245 226.298 463.62C226.736 463.995 227.276 464.232 227.848 464.301C228.421 464.369 229.002 464.266 229.516 464.005C230.031 463.744 230.456 463.336 230.739 462.833C231.021 462.331 231.148 461.755 231.103 461.18C231.059 460.605 230.844 460.057 230.487 459.603C230.13 459.15 229.647 458.813 229.098 458.635C228.363 458.399 227.565 458.462 226.877 458.812C226.189 459.161 225.666 459.768 225.423 460.5Z" fill="#263238"/>
<path d="M214.328 450.251C214.151 450.799 214.141 451.388 214.298 451.943C214.456 452.497 214.774 452.992 215.213 453.366C215.652 453.74 216.192 453.975 216.765 454.042C217.338 454.109 217.918 454.004 218.431 453.742C218.945 453.48 219.369 453.071 219.65 452.568C219.932 452.065 220.057 451.49 220.011 450.915C219.966 450.34 219.75 449.792 219.393 449.34C219.036 448.888 218.552 448.551 218.003 448.374C217.639 448.256 217.254 448.21 216.872 448.241C216.49 448.271 216.118 448.377 215.777 448.551C215.435 448.725 215.132 448.965 214.883 449.257C214.635 449.549 214.446 449.886 214.328 450.251Z" fill="#263238"/>
<path d="M194.378 439.745C198.053 442.87 201.507 446.228 204.878 449.61C206.582 451.312 208.273 453.014 209.942 454.74C211.61 456.466 213.255 458.238 214.9 459.999C211.101 457.064 207.514 453.865 204.167 450.426C200.711 447.048 197.443 443.482 194.378 439.745Z" fill="#263238"/>
<path d="M600.833 199.386C603.33 191.364 614.25 173.734 631.878 179.039C656.973 186.618 656.017 236.36 667.333 253.022C687.82 283.105 686 310.786 666.587 313.409C644.875 316.336 626.36 291.605 631.808 242.376C635.215 211.594 627.807 197.112 621.577 197.45C615.347 197.789 611.217 205.216 611.217 205.216L600.833 199.386Z" fill="#263238"/>
<path d="M601.918 196.366C603.547 192.673 605.619 189.192 608.09 186C610.573 182.713 613.716 179.98 617.318 177.978C621.029 175.944 625.286 175.128 629.487 175.646C633.677 176.159 637.68 177.679 641.153 180.077C644.503 182.544 647.287 185.696 649.32 189.323C651.325 192.885 652.914 196.664 654.057 200.587C656.19 208.355 657.442 216.338 657.79 224.385C656.574 216.487 654.765 208.691 652.377 201.065C651.116 197.344 649.478 193.761 647.488 190.373C645.55 187.029 642.931 184.129 639.8 181.861C636.65 179.662 633.024 178.24 629.218 177.71C625.427 177.152 621.555 177.766 618.123 179.471C614.629 181.242 611.511 183.673 608.942 186.63C607.603 188.11 606.353 189.667 605.197 191.294C604.046 192.965 602.953 194.656 601.918 196.366Z" fill="#263238"/>
<path d="M633.243 225.318C633.045 230.238 632.298 235.112 631.75 239.986C631.202 244.86 630.513 249.711 630.047 254.573C629.58 259.435 629.277 264.309 629.312 269.171C629.259 274.009 629.685 278.84 630.583 283.595C631.406 288.308 633.116 292.823 635.623 296.899C638.281 300.884 641.618 304.373 645.482 307.206C649.349 310.084 653.842 312.006 658.595 312.815C660.983 313.231 663.414 313.333 665.828 313.118C667.038 313.005 668.238 312.81 669.422 312.535C670.639 312.291 671.817 311.879 672.922 311.31C670.776 312.578 668.394 313.396 665.922 313.712C663.456 314.103 660.95 314.174 658.467 313.922C655.97 313.633 653.517 313.042 651.163 312.162C648.814 311.251 646.575 310.078 644.49 308.664C642.396 307.252 640.443 305.644 638.657 303.86L637.362 302.495L636.113 301.085C635.267 300.132 634.488 299.123 633.78 298.065C631.078 293.793 629.221 289.043 628.308 284.073C626.442 274.197 627.013 264.169 628.25 254.421C628.868 249.524 629.72 244.673 630.583 239.846C631.447 235.019 632.543 230.18 633.243 225.318Z" fill="#263238"/>
<path d="M599.293 199.386C599.223 197.054 600.892 194.104 602.385 193.696C603.878 193.288 614.938 198.033 615.895 200.878C616.852 203.724 611.917 206.219 611.917 206.219L599.293 199.386Z" fill="#455A64"/>
<path d="M607.833 301.178C601.253 315.473 552.347 382.67 528.068 384.5C502.658 386.424 441.735 344.926 435.902 341.463C419.883 331.995 464.555 288.294 472.278 295.989C485.182 308.967 516.04 333.406 523.612 331.762C539.478 328.264 572.507 300.56 595.945 286.125C609.992 277.508 615.102 285.355 607.833 301.178Z" fill="#AD6359"/>
<path d="M439.693 343.69C436.94 341.86 414.703 329.512 406.362 317.618C401.952 311.322 391.767 292.666 395.267 289.448C398.463 286.556 402.512 290.999 402.512 290.999C402.512 290.999 398.09 282.592 402.582 278.627C407.073 274.663 413.525 282.51 413.525 282.51C413.525 282.51 409.617 273.544 414.377 269.917C419.137 266.291 424.293 275.246 424.293 275.246C424.293 275.246 420.338 267.224 425.518 265.918C431.76 264.297 437.383 279.91 443.427 285.927C444.792 287.291 473.212 311.579 473.212 311.579L439.693 343.69Z" fill="#AD6359"/>
<path d="M424.667 275.246C428.832 286.719 432.635 291.022 442.167 298.391C442.353 298.531 442.167 298.846 441.968 298.706C432.017 292.34 426.463 287.629 424.13 275.386C423.967 274.815 424.445 274.698 424.667 275.246Z" fill="#263238"/>
<path d="M413.875 282.452C419.23 293.995 423.325 298.694 432.705 307.148C432.833 307.264 432.647 307.498 432.507 307.393C422.602 299.872 417.177 295.056 413.327 282.813C413.152 282.265 413.63 281.927 413.875 282.452Z" fill="#263238"/>
<path d="M402.978 291.395C408.975 302.192 413.233 307.544 423.395 314.575C423.446 314.606 423.483 314.656 423.497 314.714C423.511 314.772 423.502 314.833 423.471 314.884C423.44 314.935 423.39 314.972 423.332 314.986C423.274 315 423.213 314.991 423.162 314.96C412.102 308.792 406.735 302.134 402.663 291.64C402.395 290.894 402.605 290.707 402.978 291.395Z" fill="#263238"/>
<path d="M482.837 308.046C482.837 308.046 476.537 294.112 472.407 288.597C468.277 283.082 445.363 268.203 441.863 272.972C437.348 279.117 448.863 290.322 455.257 295.068C455.257 295.068 444.757 309.293 451.337 319.123C457.917 328.952 482.837 308.046 482.837 308.046Z" fill="#AD6359"/>
<path d="M441.175 275.059C441.105 283.641 449.867 289.343 455.7 294.403C455.793 294.473 455.867 294.564 455.915 294.669C455.964 294.774 455.986 294.89 455.979 295.005C455.972 295.121 455.937 295.233 455.876 295.331C455.815 295.43 455.73 295.512 455.63 295.569C451.652 301.831 447.848 311.812 450.858 319.041C450.88 319.083 450.884 319.131 450.87 319.176C450.856 319.221 450.824 319.258 450.783 319.28C450.741 319.302 450.692 319.306 450.647 319.292C450.602 319.277 450.565 319.246 450.543 319.204C446.262 311.893 449.19 301.784 454.043 295.208C447.977 290.112 439.437 284.014 441.14 275.071C441.105 275.013 441.175 275.013 441.175 275.059Z" fill="#263238"/>
<path d="M607.168 305.236C599.55 320.394 555.147 385.118 531.16 386.144C507.173 387.17 456.937 366.719 456.937 366.719L494.153 310.063C494.153 310.063 519.925 328.649 523.973 328.789C528.022 328.929 582.167 293.214 594.767 285.355C607.367 277.496 619.5 280.563 607.168 305.236Z" fill="#37B44D"/>
<path d="M490.922 367.138C490.742 365.414 490.785 363.674 491.05 361.961C491.265 360.243 491.696 358.558 492.333 356.948C492.513 358.672 492.47 360.412 492.205 362.125C491.987 363.843 491.556 365.527 490.922 367.138Z" fill="white"/>
<path d="M565.017 355.793C564.843 354.069 564.886 352.33 565.145 350.616C565.359 348.896 565.794 347.211 566.44 345.602C566.734 349.063 566.248 352.545 565.017 355.793Z" fill="white"/>
<path d="M569.123 312.686C567.398 312.862 565.657 312.815 563.943 312.546C562.222 312.34 560.536 311.909 558.927 311.264C560.652 311.09 562.392 311.133 564.107 311.392C565.827 311.607 567.514 312.042 569.123 312.686Z" fill="white"/>
<path d="M509.402 332.24C507.68 332.41 505.943 332.363 504.233 332.1C502.512 331.896 500.825 331.465 499.217 330.818C500.938 330.644 502.674 330.687 504.385 330.946C506.106 331.159 507.792 331.594 509.402 332.24Z" fill="white"/>
<path d="M518.117 384.873C518.049 384.968 517.975 385.057 517.895 385.141H517.592L518.117 384.873Z" fill="white"/>
<path d="M476 346.792C478.228 344.144 481.018 342.025 484.167 340.589C483.071 341.932 481.808 343.131 480.41 344.157C479.059 345.22 477.577 346.106 476 346.792Z" fill="white"/>
<path d="M538.102 333.919C539.201 332.578 540.463 331.38 541.858 330.351C543.227 329.288 544.724 328.403 546.315 327.716C545.222 329.062 543.959 330.261 542.558 331.284C541.19 332.347 539.693 333.232 538.102 333.919Z" fill="white"/>
<path d="M517.498 351.689C520.162 353.902 522.285 356.693 523.705 359.851C521.048 357.632 518.926 354.842 517.498 351.689Z" fill="white"/>
<path d="M576.462 325.116C579.115 327.335 581.233 330.125 582.657 333.278C581.314 332.189 580.117 330.931 579.098 329.535C578.035 328.18 577.149 326.695 576.462 325.116Z" fill="white"/>
<path d="M502.215 319.262C497.548 327.739 493.01 336.298 487.947 344.553C483.053 352.797 477.726 360.776 471.987 368.456C471.961 368.48 471.927 368.495 471.892 368.499C471.857 368.502 471.821 368.494 471.791 368.476C471.761 368.457 471.737 368.429 471.724 368.396C471.711 368.363 471.709 368.327 471.718 368.293C476.198 359.839 481.32 351.677 486.302 343.515C491.283 335.353 496.673 327.261 501.678 319.029C501.877 318.703 502.39 318.936 502.215 319.262Z" fill="#263238"/>
<path d="M607.168 305.235C599.55 320.393 555.147 385.118 531.16 386.144C525.327 386.389 517.965 385.375 510.16 383.684C528.827 363.757 580.942 307.556 605.08 281.542C612.395 281.099 616 287.722 607.168 305.235Z" fill="#263238"/>
<path d="M562.917 455.463H703.698C703.698 455.463 648.958 316.954 619.803 289.086C611.882 281.519 592.305 282.09 582.715 294.858C574.852 305.352 553.023 347.025 552.032 362.031C551.04 377.038 562.812 391.834 562.812 391.834L562.917 455.463Z" fill="#37B44D"/>
<path d="M580.907 403.564C580.733 401.844 580.776 400.109 581.035 398.399C581.249 396.679 581.684 394.994 582.33 393.385C582.506 395.106 582.459 396.842 582.19 398.55C581.975 400.269 581.544 401.954 580.907 403.564Z" fill="white"/>
<path d="M677.647 429.636C677.488 427.898 677.551 426.146 677.833 424.424C678.047 422.704 678.482 421.019 679.128 419.41C679.304 421.135 679.257 422.875 678.988 424.587C678.757 426.32 678.306 428.017 677.647 429.636Z" fill="white"/>
<path d="M616.91 452.408C616.736 450.688 616.779 448.952 617.038 447.243C617.252 445.523 617.687 443.837 618.333 442.229C618.509 443.949 618.462 445.686 618.193 447.394C617.978 449.113 617.547 450.797 616.91 452.408Z" fill="white"/>
<path d="M602.91 347.864C602.74 346.144 602.787 344.408 603.05 342.699C603.254 340.978 603.685 339.292 604.333 337.685C604.642 341.142 604.155 344.624 602.91 347.864Z" fill="white"/>
<path d="M640.325 389.969C640.165 388.239 640.224 386.495 640.5 384.78C640.71 383.06 641.141 381.375 641.783 379.766C642.093 383.227 641.606 386.713 640.36 389.957L640.325 389.969Z" fill="white"/>
<path d="M565.017 355.793C564.843 354.069 564.886 352.33 565.145 350.616C565.359 348.896 565.794 347.211 566.44 345.602C566.734 349.063 566.248 352.545 565.017 355.793Z" fill="white"/>
<path d="M614.53 397.186C611.068 397.492 607.582 397.009 604.333 395.775C606.058 395.596 607.799 395.639 609.513 395.904C611.233 396.12 612.918 396.551 614.53 397.186Z" fill="white"/>
<path d="M656.997 356.948C655.271 357.121 653.531 357.078 651.817 356.819C650.096 356.606 648.409 356.171 646.8 355.525C650.263 355.231 653.747 355.717 656.997 356.948Z" fill="white"/>
<path d="M581.222 444.514C579.5 444.684 577.763 444.637 576.053 444.374C574.332 444.17 572.645 443.739 571.037 443.092C572.758 442.918 574.494 442.961 576.205 443.22C577.926 443.433 579.612 443.868 581.222 444.514Z" fill="white"/>
<path d="M660.217 409.651C658.492 409.83 656.751 409.787 655.037 409.523C653.317 409.306 651.632 408.875 650.02 408.24C651.745 408.06 653.486 408.103 655.2 408.368C656.919 408.585 658.605 409.016 660.217 409.651Z" fill="white"/>
<path d="M593.565 428.773C594.664 427.436 595.926 426.241 597.322 425.217C598.687 424.15 600.185 423.264 601.778 422.582C599.553 425.23 596.763 427.345 593.612 428.773H593.565Z" fill="white"/>
<path d="M646.8 438.941C647.893 437.595 649.156 436.395 650.557 435.373C651.925 434.31 653.422 433.424 655.013 432.738C652.793 435.393 650.001 437.514 646.847 438.941H646.8Z" fill="white"/>
<path d="M660.893 389.164C661.993 387.827 663.255 386.632 664.65 385.608C666.015 384.541 667.513 383.655 669.107 382.973C668.016 384.318 666.753 385.514 665.35 386.529C663.985 387.596 662.487 388.482 660.893 389.164Z" fill="white"/>
<path d="M576.835 371.278C577.934 369.937 579.196 368.738 580.592 367.71C581.96 366.647 583.457 365.761 585.048 365.075C583.955 366.421 582.693 367.62 581.292 368.643C579.924 369.706 578.426 370.591 576.835 371.278Z" fill="white"/>
<path d="M631.272 336.974C632.371 335.633 633.633 334.435 635.028 333.406C636.397 332.343 637.894 331.457 639.485 330.771C638.392 332.117 637.129 333.316 635.728 334.339C634.36 335.402 632.863 336.287 631.272 336.974Z" fill="white"/>
<path d="M566.545 412.251C565.464 413.567 564.221 414.743 562.847 415.749V414.326C563.995 413.493 565.236 412.797 566.545 412.251Z" fill="white"/>
<path d="M603.54 315.077C604.639 313.736 605.901 312.537 607.297 311.509C608.665 310.445 610.162 309.56 611.753 308.873C609.533 311.529 606.741 313.649 603.587 315.077H603.54Z" fill="white"/>
<path d="M557.118 378.379C558.46 379.477 559.659 380.738 560.688 382.133C561.752 383.501 562.638 384.997 563.325 386.587C560.668 384.368 558.546 381.578 557.118 378.425V378.379Z" fill="white"/>
<path d="M576.462 325.116C579.115 327.335 581.233 330.125 582.657 333.278C581.314 332.189 580.117 330.931 579.098 329.535C578.035 328.18 577.149 326.695 576.462 325.116Z" fill="white"/>
<path d="M625.333 411.248C627.983 413.472 630.1 416.261 631.528 419.41C630.208 418.311 629.032 417.05 628.028 415.656C626.943 414.309 626.038 412.827 625.333 411.248Z" fill="white"/>
<path d="M675.967 445.074C677.308 446.172 678.507 447.434 679.537 448.828C680.6 450.196 681.486 451.692 682.173 453.283C680.824 452.193 679.623 450.931 678.603 449.528C677.537 448.162 676.651 446.665 675.967 445.074Z" fill="white"/>
<path d="M624.342 299.965C626.995 302.185 629.113 304.975 630.537 308.127C627.883 305.908 625.765 303.117 624.342 299.965Z" fill="white"/>
<path d="M615.253 365.611C616.6 366.703 617.8 367.965 618.823 369.365C619.893 370.729 620.78 372.226 621.46 373.82C618.803 371.6 616.681 368.81 615.253 365.658V365.611Z" fill="white"/>
<path d="M610.447 290.427C609.677 292.514 597.613 305.096 587.895 303.358C584.722 302.787 587.055 285.355 587.055 285.355L586.938 284.026L585.247 265.463L608.218 254.608L611.52 253.209C611.52 253.209 611.648 258.316 611.742 264.682C611.742 264.985 611.742 265.277 611.742 265.591C611.742 265.906 611.742 266.291 611.742 266.629C611.742 267.574 611.742 268.553 611.742 269.521C611.742 270.255 611.742 270.967 611.742 271.748V274.08C611.693 279.553 611.26 285.015 610.447 290.427Z" fill="#AD6359"/>
<path d="M611.742 264.682C609.261 269.513 605.757 273.746 601.474 277.087C597.191 280.428 592.23 282.796 586.938 284.026L585.247 265.463L608.218 254.608L611.52 253.209C611.52 253.209 611.648 258.316 611.742 264.682Z" fill="#263238"/>
<path d="M561.61 238.109C559.02 270.757 578.27 275.969 585.317 276.517C591.698 277.018 613.527 277.916 619.477 245.735C625.427 213.553 611.077 202.044 596.528 200.121C581.98 198.197 564.212 205.484 561.61 238.109Z" fill="#AD6359"/>
<path d="M567.117 231.171C567.863 231.065 568.603 230.917 569.333 230.728C570.136 230.684 570.9 230.372 571.503 229.842C571.66 229.638 571.746 229.388 571.746 229.131C571.746 228.873 571.66 228.623 571.503 228.419C571.136 228.061 570.679 227.807 570.181 227.684C569.683 227.561 569.16 227.573 568.668 227.72C567.622 227.868 566.667 228.395 565.985 229.201C565.84 229.394 565.754 229.626 565.739 229.867C565.724 230.108 565.78 230.349 565.901 230.559C566.021 230.769 566.201 230.938 566.417 231.047C566.633 231.156 566.876 231.199 567.117 231.171Z" fill="#263238"/>
<path d="M588.84 231.638C588.082 231.544 587.382 231.323 586.635 231.159C585.833 231.094 585.074 230.766 584.477 230.227C584.32 230.023 584.235 229.773 584.235 229.515C584.235 229.258 584.32 229.008 584.477 228.804C584.852 228.452 585.316 228.206 585.818 228.093C586.321 227.981 586.845 228.005 587.335 228.163C588.376 228.319 589.321 228.86 589.983 229.679C590.121 229.874 590.199 230.105 590.209 230.343C590.219 230.582 590.161 230.818 590.04 231.025C589.92 231.231 589.743 231.398 589.53 231.507C589.317 231.616 589.078 231.661 588.84 231.638Z" fill="#263238"/>
<path d="M583.73 239.87C583.73 239.776 583.905 239.974 583.893 240.068C583.753 242.295 583.963 244.86 585.958 245.665C586.017 245.665 585.958 245.804 585.958 245.793C583.485 245.361 583.24 241.945 583.73 239.87Z" fill="#263238"/>
<path d="M585.795 237.607C589.388 237.444 589.435 244.603 586.11 244.79C582.785 244.977 582.785 237.736 585.795 237.607Z" fill="#263238"/>
<path d="M587.207 237.981C587.848 238.377 588.467 239.147 589.225 239.147C589.983 239.147 590.753 238.47 591.325 237.747C591.325 237.677 591.442 237.747 591.453 237.829C591.453 239.205 590.952 240.627 589.482 240.837C588.012 241.047 587.148 239.823 586.798 238.435C586.74 238.19 586.962 237.864 587.207 237.981Z" fill="#263238"/>
<path d="M571.352 239.368C571.352 239.287 571.188 239.485 571.188 239.578C571.293 241.805 571.037 244.37 569.03 245.14C568.96 245.14 568.972 245.268 569.03 245.256C571.503 244.86 571.807 241.467 571.352 239.368Z" fill="#263238"/>
<path d="M569.333 237.071C565.74 236.85 565.565 244.067 568.89 244.254C572.215 244.44 572.343 237.258 569.333 237.071Z" fill="#263238"/>
<path d="M567.817 237.514C567.245 237.876 566.65 238.552 565.985 238.587C565.32 238.622 564.632 237.817 564.153 237.059C564.095 236.989 564.037 237.059 564.037 237.141C563.967 238.517 564.387 239.951 565.693 240.254C567 240.557 567.805 239.368 568.167 238.004C568.237 237.759 568.05 237.363 567.817 237.514Z" fill="#263238"/>
<path d="M583.893 257.499C583.392 258.047 582.89 258.794 582.085 258.899C581.259 258.924 580.436 258.777 579.67 258.467C579.655 258.463 579.639 258.464 579.623 258.469C579.608 258.474 579.595 258.483 579.585 258.495C579.575 258.507 579.569 258.522 579.568 258.538C579.566 258.554 579.569 258.57 579.577 258.584C579.917 259.003 580.365 259.323 580.872 259.509C581.379 259.696 581.927 259.743 582.458 259.645C582.911 259.509 583.312 259.239 583.608 258.87C583.904 258.502 584.081 258.052 584.115 257.581C584.138 257.453 583.963 257.418 583.893 257.499Z" fill="#263238"/>
<path d="M574.618 249.384C574.618 249.384 574.14 252.719 574.128 254.281C574.128 254.433 574.513 254.503 575.038 254.538C575.038 254.538 575.038 254.538 575.108 254.538C576.453 254.793 577.842 254.673 579.123 254.189C580.403 253.706 581.525 252.878 582.365 251.798C582.382 251.767 582.388 251.731 582.383 251.696C582.378 251.661 582.362 251.629 582.337 251.604C582.312 251.579 582.28 251.563 582.245 251.558C582.21 251.553 582.174 251.559 582.143 251.576C580.13 252.932 577.732 253.603 575.307 253.488C575.202 253.057 576.322 247.822 576.065 247.798C574.846 247.907 573.646 248.174 572.495 248.591C573.3 241.595 575.202 234.867 575.89 227.93C575.904 227.876 575.896 227.818 575.867 227.77C575.839 227.722 575.792 227.687 575.738 227.673C575.684 227.659 575.627 227.667 575.579 227.696C575.53 227.724 575.496 227.771 575.482 227.825C572.985 234.821 571.888 242.761 570.885 249.979C570.745 250.818 574 249.652 574.618 249.384Z" fill="#263238"/>
<path d="M575.377 254.188C576.319 255.443 577.568 256.435 579.005 257.068C579.794 257.387 580.663 257.453 581.49 257.255C583.31 256.8 583.368 255.144 583.053 253.757C582.877 253.002 582.615 252.271 582.272 251.576C580.312 253.161 577.895 254.076 575.377 254.188Z" fill="#263238"/>
<path d="M579.005 257.091C579.794 257.411 580.663 257.476 581.49 257.278C583.31 256.823 583.368 255.167 583.053 253.78C581.117 253.92 579.192 255.214 579.005 257.091Z" fill="#EB9481"/>
<path d="M618.03 248.988C615.942 247.964 614.155 246.416 612.846 244.494C611.537 242.573 610.751 240.344 610.563 238.027C604.877 235.512 599.967 231.522 596.342 226.472C596.552 227.148 598.103 231.999 598.978 234.448C578.328 230.495 572.005 214.626 572.005 214.626C565.273 221.284 563.92 225.551 562.94 227.673C562.94 227.673 562.847 215.01 569.403 206.557C577.43 196.203 604.403 193.521 616.782 207.128C630.14 221.832 618.03 248.988 618.03 248.988Z" fill="#263238"/>
<path d="M583.333 230.961C586.645 232.791 590.212 234.115 593.915 234.891C588.095 233.29 582.841 230.091 578.748 225.656C577.011 223.769 575.521 221.669 574.315 219.406C572.902 216.983 571.982 214.304 571.608 211.524C571.608 211.481 571.591 211.439 571.561 211.409C571.53 211.378 571.488 211.361 571.445 211.361C571.402 211.361 571.36 211.378 571.33 211.409C571.299 211.439 571.282 211.481 571.282 211.524C571.358 214.316 571.902 217.075 572.892 219.686C573.975 222.234 575.522 224.558 577.453 226.542C579.179 228.293 581.143 229.792 583.287 230.996" fill="#263238"/>
<path d="M614.098 247.833C614.098 247.833 621.168 237.561 625.765 240.079C630.362 242.598 625.147 257.441 619.722 259.505C619.043 259.817 618.308 259.989 617.561 260.01C616.814 260.031 616.071 259.901 615.376 259.628C614.68 259.355 614.047 258.943 613.515 258.419C612.983 257.895 612.562 257.269 612.278 256.578L614.098 247.833Z" fill="#AD6359"/>
<path d="M624.167 244.3C624.26 244.3 624.272 244.405 624.167 244.44C620.363 246.014 618.333 249.571 616.992 253.244C618.158 251.821 619.663 251.04 621.565 252.381C621.658 252.451 621.565 252.602 621.46 252.579C620.792 252.364 620.073 252.36 619.403 252.569C618.732 252.778 618.143 253.189 617.715 253.745C617.023 254.697 616.429 255.717 615.942 256.788C615.767 257.138 615.148 256.951 615.277 256.567V256.473C615.253 251.658 618.987 244.86 624.167 244.3Z" fill="#263238"/>
<path d="M615.23 258.759C615.23 259.22 615.367 259.671 615.623 260.054C615.88 260.438 616.244 260.737 616.67 260.913C617.097 261.09 617.566 261.136 618.019 261.046C618.471 260.956 618.887 260.734 619.213 260.408C619.54 260.082 619.762 259.666 619.852 259.214C619.942 258.761 619.896 258.292 619.719 257.866C619.542 257.44 619.243 257.076 618.86 256.82C618.476 256.564 618.025 256.427 617.563 256.427C616.949 256.442 616.364 256.692 615.93 257.126C615.495 257.56 615.245 258.145 615.23 258.759Z" fill="white"/>
<path d="M576.438 297.085C576.438 297.085 569.765 316.044 581.84 317.385C593.915 318.726 625.45 295.418 625.45 295.418C625.45 295.418 616.7 281.263 602.723 282.778C591.115 284.026 576.438 297.085 576.438 297.085Z" fill="#AD6359"/>
<path d="M633.5 319.286C633.5 342.699 620.037 412.904 607.11 422.36C581.245 441.284 520.59 439.978 503.86 440.27C496.638 440.387 487.153 392.336 492.532 386.809C497.91 381.282 571.865 379.23 575.598 376.396C578.223 374.426 599.083 340.25 611.158 318.283C627.445 288.585 633.5 307.486 633.5 319.286Z" fill="#AD6359"/>
<path d="M505.365 384.244C505.365 384.244 483.537 381.83 469.198 380.932C461.183 380.419 447.382 380.781 441.327 383.089C432.273 386.587 396.632 406.841 401.357 415.586C405.638 423.491 416.523 414.746 416.523 414.746C416.523 414.746 403.69 423.188 410.387 429.741C417.083 436.294 430.22 423.561 430.22 423.561C430.22 423.561 415.998 431.583 423.78 437.903C430.535 443.371 447.195 430.289 447.195 430.289C447.195 430.289 431.352 437.087 437.722 443.371C444.722 450.367 472.197 433.834 472.197 433.834C490.058 439.78 501.585 440.935 515.258 440.072C517.732 439.92 505.365 384.244 505.365 384.244Z" fill="#AD6359"/>
<path d="M426.207 426.441L429.438 423.596C431.496 421.7 433.662 419.925 435.925 418.279C438.165 416.705 440.463 415.248 442.808 413.86C445.153 412.473 447.93 411.155 450.368 409.616C450.387 409.602 450.408 409.592 450.43 409.587C450.453 409.581 450.476 409.581 450.499 409.585C450.522 409.59 450.543 409.599 450.562 409.613C450.581 409.626 450.597 409.643 450.609 409.663C450.62 409.683 450.628 409.706 450.63 409.729C450.632 409.752 450.63 409.775 450.623 409.797C450.615 409.819 450.603 409.839 450.588 409.856C450.572 409.873 450.553 409.887 450.532 409.896C448.109 411.388 445.772 413.015 443.532 414.77C441.28 416.414 439.04 418.093 436.8 419.76C434.56 421.427 432.343 422.873 430.115 424.424C428.948 425.205 427.922 426.045 426.848 426.873C425.874 427.737 424.828 428.517 423.722 429.205C423.617 429.263 423.512 429.111 423.582 429.018C424.365 428.07 425.245 427.207 426.207 426.441Z" fill="#263238"/>
<path d="M413.887 416.554C415.368 414.63 423.523 407.983 425.705 406.409C429.922 403.345 434.436 400.713 439.18 398.551C439.214 398.541 439.251 398.543 439.284 398.556C439.317 398.569 439.344 398.593 439.363 398.623C439.381 398.653 439.389 398.689 439.386 398.724C439.382 398.759 439.367 398.793 439.343 398.819C435.132 401.897 430.873 404.905 426.615 407.925C424.527 409.394 415.287 416.379 414.225 416.985C413.968 417.137 413.735 416.763 413.887 416.554Z" fill="#263238"/>
<path d="M437.5 436.084C441.049 432.728 444.818 429.612 448.782 426.756C453.085 424.208 457.574 421.986 462.21 420.11C462.385 420.052 462.525 420.285 462.373 420.378C458.08 422.932 453.763 425.392 449.54 428.144C447.51 429.484 439.74 435.303 437.687 436.41C437.593 436.469 437.407 436.201 437.5 436.084Z" fill="#263238"/>
<path d="M520.088 443.803L500.138 380.442C500.138 380.442 572.728 375.778 575.085 374.612C577.442 373.446 603.318 327.704 613.585 309.934C623.852 292.165 639.672 299.44 633.757 339.586C627.818 379.918 621.285 411.26 612.243 420.588C601.23 431.875 561.097 443.535 520.088 443.803Z" fill="#37B44D"/>
<path d="M580.907 403.564C580.733 401.844 580.776 400.109 581.035 398.399C581.249 396.679 581.684 394.994 582.33 393.385C582.506 395.106 582.459 396.842 582.19 398.55C581.975 400.269 581.544 401.954 580.907 403.564Z" fill="white"/>
<path d="M540.797 439.827C540.617 438.103 540.66 436.363 540.925 434.65C541.143 432.932 541.574 431.248 542.208 429.636C542.388 431.36 542.345 433.1 542.08 434.813C541.865 436.532 541.434 438.216 540.797 439.827Z" fill="white"/>
<path d="M602.91 347.864C602.74 346.144 602.787 344.408 603.05 342.699C603.254 340.978 603.685 339.292 604.333 337.685C604.642 341.142 604.155 344.624 602.91 347.864Z" fill="white"/>
<path d="M614.53 397.186C611.068 397.492 607.582 397.009 604.333 395.775C606.058 395.596 607.799 395.639 609.513 395.904C611.233 396.12 612.918 396.551 614.53 397.186Z" fill="white"/>
<path d="M544.833 399.18C543.108 399.36 541.367 399.317 539.653 399.052C537.934 398.837 536.248 398.406 534.637 397.769C536.362 397.59 538.103 397.633 539.817 397.897C541.536 398.115 543.221 398.546 544.833 399.18Z" fill="white"/>
<path d="M593.565 428.773C594.664 427.436 595.926 426.241 597.322 425.217C598.687 424.15 600.185 423.264 601.778 422.582C599.553 425.23 596.763 427.345 593.612 428.773H593.565Z" fill="white"/>
<path d="M509.903 391.065C511.003 389.728 512.265 388.533 513.66 387.508C515.025 386.441 516.523 385.555 518.117 384.873C517.026 386.219 515.763 387.414 514.36 388.43C512.995 389.497 511.497 390.383 509.903 391.065Z" fill="white"/>
<path d="M585.048 365.075C583.955 366.421 582.693 367.62 581.292 368.643C580.233 369.447 579.109 370.16 577.932 370.776C578.293 370.217 578.69 369.61 579.098 368.934C579.577 368.514 580.078 368.106 580.58 367.768C581.949 366.684 583.45 365.779 585.048 365.075Z" fill="white"/>
<path d="M634.422 333.931C634.422 334.42 634.328 334.91 634.27 335.412C633.328 336.048 632.323 336.587 631.272 337.021C632.203 335.876 633.259 334.84 634.422 333.931Z" fill="white"/>
<path d="M558.332 418.454C559.431 417.113 560.693 415.915 562.088 414.886C563.456 413.823 564.954 412.938 566.545 412.251C565.452 413.597 564.189 414.796 562.788 415.819C561.42 416.882 559.923 417.768 558.332 418.454Z" fill="white"/>
<path d="M557.118 378.379C558.46 379.477 559.659 380.738 560.688 382.133C561.752 383.501 562.638 384.997 563.325 386.587C560.668 384.368 558.546 381.578 557.118 378.425V378.379Z" fill="white"/>
<path d="M630.537 308.162C629.196 307.07 628.001 305.813 626.978 304.419C626.105 303.289 625.347 302.074 624.715 300.793C624.929 300.781 625.143 300.781 625.357 300.793C626.281 301.683 627.131 302.646 627.9 303.673C628.968 305.05 629.854 306.559 630.537 308.162Z" fill="white"/>
<path d="M615.253 365.611C616.6 366.703 617.8 367.965 618.823 369.365C619.893 370.729 620.78 372.226 621.46 373.82C618.803 371.6 616.681 368.81 615.253 365.658V365.611Z" fill="white"/>
<path d="M597.812 336.717C595.478 340.215 593.25 343.923 591.068 347.573L590.882 347.876C590.987 347.596 591.103 347.316 591.208 347.048C591.92 345.229 592.55 343.375 593.32 341.591C593.32 341.486 593.215 341.393 593.168 341.498C592.375 343.259 591.5 344.996 590.753 346.757C590.252 347.923 589.797 349.17 589.365 350.395C587.743 353.1 586.122 355.805 584.523 358.557C582.377 362.218 580.242 365.902 578.083 369.564C577.547 370.462 577.033 371.359 576.485 372.257C576.101 373.053 575.43 373.673 574.607 373.995C573.631 374.226 572.634 374.359 571.632 374.391C570.57 374.496 569.508 374.624 568.447 374.752C563.617 375.347 558.822 376.14 553.992 376.77C553.875 376.77 553.875 376.968 553.992 376.956C558.425 376.618 562.87 376.455 567.303 376.093C569.497 375.918 571.69 375.767 573.86 375.487C574.7 375.443 575.509 375.16 576.193 374.671C576.794 374.125 577.289 373.473 577.652 372.747C582.046 365.145 586.441 357.538 590.835 349.928C593.32 345.614 595.84 341.323 598.127 336.904C598.151 336.862 598.159 336.812 598.147 336.765C598.135 336.718 598.104 336.678 598.063 336.653C598.021 336.629 597.971 336.621 597.924 336.634C597.877 336.646 597.836 336.676 597.812 336.717Z" fill="#263238"/>
<path d="M633.862 353.636C633.637 355.089 633.29 356.521 632.823 357.915C632.473 359.163 632.135 360.411 631.762 361.647C631.388 362.883 630.84 364.433 630.362 365.821C631.342 359.649 632.119 353.43 632.695 347.165C632.695 346.978 632.392 346.943 632.357 347.165C631.19 355.875 629.592 364.55 627.76 373.132C625.928 381.713 623.712 390.284 621.203 398.714C619.967 402.865 618.66 407.004 617.213 411.085C616.083 414.66 614.364 418.021 612.127 421.031C609.481 424.035 606.169 426.379 602.455 427.875C598.588 429.654 594.622 431.211 590.578 432.539C581.385 435.548 571.912 437.46 562.508 439.71C562.403 439.71 562.427 439.909 562.508 439.897C571.138 438.692 579.686 436.963 588.105 434.72C592.369 433.584 596.558 432.182 600.647 430.522C604.392 428.96 608.253 427.269 611.275 424.494C614.041 421.771 616.175 418.476 617.528 414.84C619.103 411.027 620.34 407.062 621.565 403.179C624.248 394.574 626.488 385.899 628.32 377.073C628.841 374.515 629.327 371.954 629.778 369.389C630.827 366.95 631.678 364.432 632.322 361.856C632.672 360.516 633.01 359.175 633.278 357.81C633.547 356.446 633.628 355.024 634.013 353.706C634.072 353.531 633.873 353.496 633.862 353.636Z" fill="#263238"/>
<path d="M532.712 438.696C529.422 429.589 525.945 420.553 523.063 411.318C520.076 402.206 517.572 392.943 515.562 383.567C515.562 383.532 515.574 383.498 515.596 383.47C515.618 383.442 515.648 383.421 515.683 383.412C515.717 383.403 515.753 383.405 515.786 383.418C515.819 383.432 515.847 383.455 515.865 383.486C519.283 392.417 522.06 401.64 524.93 410.758C527.8 419.877 530.343 429.263 533.248 438.451C533.353 438.801 532.852 439.046 532.712 438.696Z" fill="#263238"/>
<path d="M520.485 378.95C518.748 378.857 517.007 378.857 515.27 378.95C513.532 378.95 511.77 379.067 510.055 379.137C506.555 379.288 503.113 379.545 499.648 379.836C499.581 379.839 499.514 379.857 499.454 379.889C499.395 379.921 499.343 379.966 499.304 380.021C499.264 380.077 499.238 380.14 499.227 380.207C499.216 380.274 499.22 380.343 499.24 380.408C499.662 381.692 500.259 382.912 501.013 384.034C501.072 384.092 501.188 384.034 501.188 383.975C501.036 382.839 500.73 381.729 500.278 380.676C503.592 380.454 506.905 380.256 510.218 379.999L515.422 379.626C517.113 379.486 518.84 379.44 520.52 379.172C520.66 379.172 520.602 378.95 520.485 378.95Z" fill="#263238"/>
<path d="M442.167 365.378C446.495 367.523 466.27 368.339 472.033 375.429C475.872 380.093 475.533 384.908 477.727 398.982C479.675 411.202 469.56 408.31 466.632 402.037C462.058 392.207 458.127 381.434 458.127 381.434C454.751 381.266 451.369 381.317 448 381.585L442.167 365.378Z" fill="#F7A9A0"/>
<path d="M456.377 411.598C463.225 407.261 485.123 434.918 474.18 442.206C463.237 449.493 448.618 416.495 456.377 411.598Z" fill="#F7A9A0"/>
<path d="M445.282 417.428C452.118 413.091 474.028 440.748 463.085 448.036C452.142 455.323 437.5 422.384 445.282 417.428Z" fill="#F7A9A0"/>
<path d="M437.418 418.594C444.243 415.597 460.308 443.756 449.342 448.91C438.375 454.064 429.695 421.94 437.418 418.594Z" fill="#F7A9A0"/>
<path d="M429.333 417.778C436.508 416.927 443.485 447.592 431.853 449.26C420.222 450.927 421.248 418.746 429.333 417.778Z" fill="#F7A9A0"/>
<path d="M454.813 421.148C456.069 422.532 457.209 424.018 458.22 425.59C459.387 427.234 460.472 428.901 461.452 430.65C462.407 432.317 463.264 434.038 464.018 435.804C464.788 437.681 465.325 439.687 466.153 441.541C466.164 441.561 466.17 441.584 466.171 441.606C466.172 441.629 466.168 441.652 466.16 441.673C466.152 441.695 466.139 441.714 466.123 441.73C466.107 441.746 466.088 441.759 466.066 441.767C466.045 441.775 466.022 441.779 465.999 441.778C465.977 441.776 465.954 441.771 465.934 441.76C465.913 441.75 465.895 441.735 465.881 441.718C465.867 441.7 465.856 441.68 465.85 441.658C465.052 439.851 464.124 438.105 463.073 436.434C462.105 434.743 461.23 433.006 460.285 431.303C459.34 429.601 458.488 427.969 457.543 426.325C456.598 424.681 455.467 423.048 454.592 421.311C454.577 421.281 454.574 421.248 454.582 421.216C454.59 421.184 454.608 421.156 454.635 421.137C454.661 421.118 454.693 421.108 454.726 421.11C454.759 421.112 454.79 421.125 454.813 421.148Z" fill="#263238"/>
<path d="M443.415 420.996C444.115 423.071 446.472 431 447.265 433.052C448.058 435.105 448.933 437.157 449.832 439.186C450.73 441.214 451.5 443.418 452.667 445.412C452.677 445.448 452.674 445.486 452.66 445.52C452.645 445.554 452.62 445.582 452.587 445.599C452.555 445.617 452.517 445.623 452.481 445.616C452.444 445.61 452.411 445.591 452.387 445.564C451.29 443.581 450.053 441.739 449.003 439.734C447.953 437.728 447.125 435.664 446.32 433.565C444.996 429.476 443.924 425.31 443.112 421.089C443.053 420.833 443.333 420.821 443.415 420.996Z" fill="#263238"/>
<path d="M434.817 422.966C435.365 425.928 435.727 428.925 436.287 431.886C436.555 433.344 436.847 434.801 437.115 436.271C437.243 436.97 437.36 437.681 437.488 438.393C437.556 439.215 437.709 440.027 437.943 440.818C438.025 441.016 437.652 441.109 437.628 440.818C437.414 439.931 437.133 439.062 436.788 438.218C436.59 437.53 436.392 436.854 436.217 436.154C435.855 434.708 435.563 433.262 435.33 431.781C434.805 428.878 434.501 425.939 434.42 422.99C434.42 422.803 434.782 422.745 434.817 422.966Z" fill="#263238"/>
<path d="M541.578 226.892C544.468 222.602 546.03 217.558 546.07 212.387C546.07 194.011 525.875 179.121 500.99 179.121C476.105 179.121 455.945 194.011 455.945 212.387C455.945 230.763 476.105 245.653 500.99 245.653C513.065 245.653 523.997 242.155 532.082 236.453L547.61 240.394L541.578 226.892Z" fill="#37B44D"/>
<path d="M484.785 212.387C484.785 213.309 484.511 214.211 483.999 214.978C483.486 215.745 482.757 216.343 481.904 216.696C481.051 217.049 480.113 217.141 479.208 216.961C478.303 216.781 477.471 216.337 476.819 215.685C476.166 215.033 475.721 214.202 475.541 213.297C475.361 212.392 475.454 211.454 475.807 210.602C476.16 209.75 476.758 209.021 477.526 208.509C478.293 207.996 479.195 207.723 480.118 207.723C481.356 207.723 482.543 208.214 483.418 209.089C484.293 209.964 484.785 211.15 484.785 212.387Z" fill="#263238"/>
<path d="M501.002 217.063C503.585 217.063 505.68 214.969 505.68 212.387C505.68 209.805 503.585 207.711 501.002 207.711C498.418 207.711 496.323 209.805 496.323 212.387C496.323 214.969 498.418 217.063 501.002 217.063Z" fill="#263238"/>
<path d="M526.552 212.387C526.552 213.309 526.278 214.211 525.765 214.978C525.252 215.745 524.524 216.343 523.671 216.696C522.818 217.049 521.88 217.141 520.975 216.961C520.069 216.781 519.238 216.337 518.585 215.685C517.933 215.033 517.488 214.202 517.308 213.297C517.128 212.392 517.22 211.454 517.574 210.602C517.927 209.75 518.525 209.021 519.292 208.509C520.06 207.996 520.962 207.723 521.885 207.723C523.123 207.723 524.31 208.214 525.185 209.089C526.06 209.964 526.552 211.15 526.552 212.387Z" fill="#263238"/>
<path d="M378.898 127.094C376.297 148.84 362.308 152.746 359.952 158.576C358.762 162.225 357.781 165.939 357.012 169.7H334.262C333.507 165.937 332.529 162.223 331.333 158.576C329 152.746 315 148.735 312.55 126.966C310.905 112.671 321.72 90.1201 345.788 90.1784C369.857 90.2367 380.59 112.81 378.898 127.094Z" fill="#37B44D"/>
<path d="M333.954 134.897L332.806 135.109L339.47 171.288L340.617 171.077L333.954 134.897Z" fill="white"/>
<path d="M357.471 134.938L350.643 171.087L351.789 171.304L358.617 135.155L357.471 134.938Z" fill="white"/>
<path d="M345.707 147.056C343.922 147.056 342.125 145.633 340.655 143.057C340.585 142.94 340.515 142.823 340.457 142.707C340.222 143.008 339.928 143.258 339.593 143.44C339.258 143.623 338.889 143.734 338.508 143.768C335.102 143.768 333.748 136.772 333.702 136.434L334.273 136.329C334.273 136.399 335.58 143.173 338.508 143.185C338.842 143.138 339.162 143.022 339.448 142.843C339.733 142.664 339.978 142.427 340.165 142.147C338.73 139.185 337.925 135.314 338.998 133.554C339.152 133.271 339.38 133.036 339.657 132.873C339.935 132.711 340.252 132.628 340.573 132.632C340.955 132.62 341.333 132.714 341.664 132.903C341.996 133.093 342.268 133.37 342.452 133.705C343.478 135.489 342.72 139.174 341.367 141.494C341.223 141.743 341.068 141.984 340.9 142.217C340.993 142.404 341.098 142.59 341.203 142.765C341.997 144.153 343.642 146.473 345.753 146.473C347.165 146.473 348.577 145.307 349.743 143.36C349.846 143.194 349.939 143.022 350.023 142.847C349.72 142.486 349.454 142.095 349.23 141.681C347.818 139.232 347.538 135.606 348.612 133.764C348.783 133.419 349.045 133.128 349.37 132.923C349.695 132.717 350.07 132.604 350.455 132.598C350.753 132.598 351.045 132.681 351.298 132.838C351.551 132.994 351.756 133.218 351.89 133.484C352.893 135.233 352.333 139.395 350.723 142.672C351.029 142.978 351.393 143.22 351.794 143.384C352.195 143.548 352.624 143.631 353.057 143.628C355.133 143.628 356.988 138.672 357.525 136.76L358.085 136.912C358.003 137.215 355.997 144.211 353.057 144.211C352.115 144.209 351.208 143.855 350.513 143.22L350.303 143.593C349.3 145.202 347.783 147.056 345.707 147.056ZM350.373 133.239C350.092 133.244 349.817 133.327 349.58 133.48C349.343 133.632 349.153 133.847 349.032 134.102C348.075 135.757 348.367 139.185 349.65 141.436C349.818 141.733 350.013 142.014 350.233 142.275C351.657 139.22 352.193 135.384 351.307 133.833C351.223 133.656 351.091 133.507 350.926 133.401C350.761 133.296 350.569 133.24 350.373 133.239ZM340.48 133.239C340.26 133.232 340.042 133.287 339.852 133.399C339.662 133.51 339.508 133.673 339.407 133.868C338.602 135.268 339.127 138.672 340.515 141.634L340.772 141.226C342.008 139.092 342.755 135.606 341.857 134.02C341.725 133.773 341.525 133.569 341.281 133.43C341.038 133.292 340.76 133.226 340.48 133.239Z" fill="white"/>
<path d="M359.666 168.793L331.608 168.725L331.595 174.205L359.653 174.274L359.666 168.793Z" fill="#455A64"/>
<path d="M359.639 175.16L331.581 175.091L331.568 180.571L359.626 180.64L359.639 175.16Z" fill="#455A64"/>
<path d="M359.655 181.475L331.597 181.411L331.585 186.892L359.643 186.955L359.655 181.475Z" fill="#455A64"/>
<path d="M346.873 72.292C347.605 75.2739 347.557 78.3939 346.733 81.3518C346.002 78.3699 346.05 75.2499 346.873 72.292Z" fill="#263238"/>
<path d="M321.428 78.5184C322.508 79.6043 323.424 80.8416 324.147 82.1913C324.914 83.5178 325.487 84.947 325.85 86.4356C324.784 85.3545 323.881 84.1253 323.167 82.786C322.383 81.4551 321.798 80.0176 321.428 78.5184Z" fill="#263238"/>
<path d="M302.517 96.6148C305.471 97.4702 308.152 99.0772 310.298 101.279C308.818 100.871 307.404 100.255 306.098 99.4482C304.774 98.6806 303.568 97.7263 302.517 96.6148Z" fill="#263238"/>
<path d="M295.167 121.73C298.15 120.999 301.272 121.047 304.232 121.87C301.248 122.602 298.126 122.553 295.167 121.73Z" fill="#263238"/>
<path d="M301.397 147.161C302.483 146.082 303.721 145.167 305.072 144.444C306.396 143.674 307.827 143.105 309.318 142.753C307.095 144.871 304.369 146.388 301.397 147.161Z" fill="#263238"/>
<path d="M388.99 149.096C386.041 148.229 383.363 146.624 381.208 144.432C384.162 145.288 386.844 146.895 388.99 149.096Z" fill="#263238"/>
<path d="M396.328 123.969C394.843 124.353 393.312 124.526 391.778 124.482C390.249 124.488 388.728 124.268 387.263 123.829C388.743 123.44 390.272 123.268 391.802 123.316C393.334 123.322 394.857 123.541 396.328 123.969Z" fill="#263238"/>
<path d="M390.11 98.5503C389.02 99.6222 387.783 100.533 386.435 101.255C385.11 102.027 383.679 102.6 382.188 102.958C383.277 101.891 384.515 100.988 385.863 100.276C387.189 99.501 388.619 98.9199 390.11 98.5503Z" fill="#263238"/>
<path d="M372.003 79.6378C371.147 82.5902 369.539 85.27 367.337 87.415C367.745 85.9396 368.361 84.5301 369.168 83.2291C369.939 81.9043 370.894 80.6953 372.003 79.6378Z" fill="#263238"/>
</svg>
