<svg width="193" height="44" viewBox="0 0 193 44" fill="none" xmlns="http://www.w3.org/2000/svg">
<path d="M7.942 30.6513C7.942 31.7349 7.57045 32.6571 6.82734 33.3948C6.08423 34.1326 5.16695 34.5014 4.06389 34.5014C3.52978 34.5014 3.01889 34.3977 2.53122 34.1902C2.04356 33.9827 1.61395 33.7176 1.23078 33.3718C0.847612 33.0375 0.557334 32.6225 0.336722 32.1614C0.116111 31.6888 0 31.1816 0 30.6513V13.5562C0 11.7464 0.359945 10.0288 1.07983 8.42651C1.79972 6.81268 2.77506 5.41787 4.01745 4.21902C5.27145 3.02017 6.71123 2.0634 8.36 1.36023C10.0088 0.657061 11.7388 0.311239 13.5734 0.311239C15.4776 0.311239 17.2541 0.668588 18.9261 1.39481C20.5981 2.12104 22.0611 3.11239 23.3267 4.36888C24.5923 3.11239 26.0786 2.12104 27.7738 1.39481C29.469 0.668588 31.2687 0.311239 33.1614 0.311239C35.0075 0.311239 36.7492 0.645533 38.3515 1.32565C39.9655 2.00576 41.3704 2.93948 42.5896 4.11527C43.8087 5.30259 44.7841 6.68588 45.5156 8.2536C46.2471 9.82133 46.6535 11.5043 46.7231 13.3026C46.7231 13.3487 46.7231 13.4063 46.7464 13.464C46.758 13.5216 46.7696 13.5793 46.7696 13.6254V30.6513C46.7696 31.1816 46.6651 31.6888 46.4561 32.1614C46.2471 32.634 45.9684 33.0375 45.6201 33.3718C45.2717 33.7061 44.8537 33.9827 44.4009 34.1902C43.9365 34.3977 43.4372 34.5014 42.9031 34.5014C42.3457 34.5014 41.8232 34.3977 41.3356 34.1902C40.8479 33.9827 40.4183 33.7176 40.0584 33.3718C39.6984 33.0375 39.3965 32.6225 39.1759 32.1614C38.9553 31.6888 38.8508 31.1931 38.8508 30.6513V13.7406V13.6369V13.5331C38.8044 12.7608 38.6302 12.0461 38.3167 11.389C38.0148 10.732 37.5968 10.1787 37.0743 9.70605C36.5518 9.23343 35.948 8.86455 35.263 8.59942C34.5779 8.33429 33.858 8.19597 33.1033 8.19597C32.3254 8.19597 31.5822 8.34582 30.874 8.63401C30.1657 8.92219 29.5503 9.31412 29.0278 9.8098C28.5053 10.3055 28.0873 10.8934 27.7854 11.5735C27.4835 12.2536 27.3326 12.9683 27.3326 13.7176V30.6513C27.3326 31.7349 26.961 32.6571 26.2179 33.3948C25.4748 34.1326 24.5575 34.5014 23.4545 34.5014C22.9203 34.5014 22.4095 34.3977 21.9218 34.1902C21.4341 33.9827 21.0045 33.7176 20.6213 33.3718C20.2382 33.0375 19.9479 32.6225 19.7273 32.1614C19.5067 31.6888 19.4022 31.1931 19.4022 30.6513V13.6715V13.5677C19.379 12.7954 19.2164 12.0692 18.9029 11.4121C18.601 10.7435 18.1946 10.1787 17.6837 9.70605C17.1728 9.23343 16.5691 8.86455 15.8956 8.59942C15.2106 8.33429 14.4791 8.19597 13.7011 8.19597C12.9232 8.19597 12.1801 8.33429 11.495 8.61095C10.7983 8.88761 10.1946 9.27954 9.67206 9.77522C9.14956 10.2709 8.73156 10.8473 8.42967 11.5043C8.12778 12.1614 7.97684 12.8646 7.97684 13.6138V13.6484V30.6513H7.942ZM51.0541 22.0634C51.0541 20.2997 51.3908 18.6398 52.0759 17.0951C52.7609 15.5504 53.6782 14.2017 54.8509 13.0375C56.0236 11.8732 57.3821 10.9625 58.938 10.2939C60.4939 9.62536 62.1543 9.29107 63.9076 9.29107C65.6841 9.29107 67.3561 9.62536 68.912 10.2939C70.4679 10.9625 71.8264 11.8732 72.9875 13.0375C74.1486 14.2017 75.0659 15.5504 75.7393 17.0951C76.4128 18.6398 76.7495 20.2882 76.7495 22.0634C76.7495 23.8156 76.4128 25.464 75.7393 27.0086C75.0659 28.5648 74.1486 29.9135 72.9875 31.0778C71.8264 32.2421 70.4679 33.1527 68.912 33.8213C67.3561 34.4899 65.6957 34.8242 63.9076 34.8242C62.1427 34.8242 60.4939 34.4899 58.938 33.8213C57.3821 33.1527 56.0236 32.2421 54.8509 31.0778C53.6782 29.9135 52.7609 28.5648 52.0759 27.0086C51.3908 25.4524 51.0541 23.804 51.0541 22.0634ZM56.9061 22.0634C56.9061 23.0086 57.0919 23.9078 57.4634 24.7493C57.835 25.6023 58.3343 26.3401 58.9729 26.9741C59.6115 27.6081 60.3546 28.1037 61.2022 28.4726C62.0498 28.8415 62.9555 29.0259 63.9192 29.0259C64.8829 29.0259 65.8002 28.8415 66.6594 28.4726C67.507 28.1037 68.2501 27.6081 68.8888 26.9741C69.5158 26.3401 70.015 25.6023 70.375 24.7493C70.7349 23.9078 70.9091 23.0086 70.9091 22.0634C70.9091 21.0951 70.7349 20.196 70.375 19.3429C70.015 18.5014 69.5158 17.7637 68.8888 17.1297C68.2618 16.5072 67.5186 16.0115 66.6594 15.6427C65.8002 15.2738 64.8945 15.0893 63.9192 15.0893C62.9671 15.0893 62.0614 15.2738 61.2138 15.6427C60.3546 16.0115 59.6115 16.5072 58.9729 17.1297C58.3343 17.7522 57.835 18.4899 57.4634 19.3429C57.0919 20.1844 56.9061 21.0951 56.9061 22.0634ZM104.454 31.6888C104.454 32.1037 104.372 32.4726 104.221 32.83C104.07 33.1758 103.861 33.487 103.618 33.7406C103.362 33.9942 103.06 34.2017 102.712 34.3401C102.364 34.4784 101.992 34.5591 101.597 34.5591C101.179 34.5591 100.796 34.4899 100.436 34.3401C100.076 34.2017 99.7627 33.9942 99.4957 33.7406C99.2286 33.487 99.008 33.1758 98.8454 32.83C98.6829 32.4841 98.6016 32.1037 98.6016 31.6888V21.7291C98.6016 21.5908 98.6132 21.4755 98.6248 21.4063C98.59 20.5303 98.4042 19.7118 98.0675 18.9395C97.7308 18.1671 97.2896 17.4986 96.7438 16.9337C96.1981 16.3573 95.5479 15.9078 94.7932 15.585C94.0384 15.2507 93.2257 15.0893 92.3432 15.0893C91.4259 15.0893 90.5783 15.2507 89.812 15.585C89.034 15.9193 88.3838 16.3689 87.8265 16.9683C87.2808 17.5562 86.8512 18.2478 86.5377 19.0432C86.2242 19.8386 86.0616 20.6916 86.0616 21.6023V31.6888C86.0616 32.1037 85.9919 32.4726 85.841 32.83C85.7017 33.1758 85.4927 33.487 85.2372 33.7406C84.9818 33.9942 84.6683 34.2017 84.3199 34.3401C83.9716 34.4784 83.6 34.5591 83.2053 34.5591C82.8105 34.5591 82.4273 34.4899 82.079 34.3401C81.719 34.2017 81.4055 33.9942 81.1269 33.7406C80.8482 33.487 80.6276 33.1758 80.465 32.83C80.3025 32.4841 80.2212 32.1037 80.2212 31.6888V21.7291V21.6254V21.6023C80.2212 19.8847 80.5347 18.2939 81.1501 16.7954C81.7655 15.3084 82.6247 14.0058 83.7162 12.8876C84.8076 11.7695 86.0848 10.8934 87.571 10.2478C89.0573 9.60231 90.648 9.27954 92.3548 9.27954C94.0849 9.27954 95.6756 9.60231 97.1502 10.2478C98.6248 10.8934 99.9021 11.7695 100.982 12.8876C102.062 14.0058 102.909 15.3084 103.525 16.7954C104.14 18.2824 104.454 19.8847 104.454 21.6023V21.6254V21.7291V31.6888ZM133.609 22.0288V22.1671C133.586 23.3314 133.435 24.4496 133.121 25.5216C132.82 26.6052 132.378 27.6081 131.809 28.5418C131.24 29.4755 130.567 30.3285 129.789 31.1009C129.011 31.8732 128.14 32.5303 127.188 33.0836C126.236 33.6369 125.214 34.0634 124.134 34.3631C123.043 34.6628 121.917 34.8127 120.756 34.8127C118.979 34.8127 117.307 34.4784 115.751 33.8098C114.195 33.1412 112.837 32.2305 111.676 31.0663C110.515 29.902 109.597 28.5533 108.924 26.9971C108.25 25.4409 107.914 23.7925 107.914 22.0519C107.914 20.2882 108.25 18.6282 108.924 17.072C109.597 15.5158 110.515 14.1671 111.676 13.0144C112.837 11.8617 114.195 10.951 115.751 10.2824C117.307 9.61383 118.968 9.27954 120.756 9.27954C122.044 9.27954 123.287 9.46398 124.46 9.83285C125.632 10.2017 126.735 10.7089 127.757 11.366V3.0317C127.757 2.60519 127.827 2.20173 127.978 1.84438C128.117 1.4755 128.326 1.15274 128.582 0.876081C128.837 0.599424 129.15 0.380403 129.499 0.230547C129.847 0.0806914 130.242 0 130.672 0C131.09 0 131.473 0.0806914 131.833 0.230547C132.193 0.380403 132.506 0.599424 132.762 0.876081C133.017 1.15274 133.226 1.4755 133.377 1.84438C133.528 2.21326 133.609 2.60519 133.609 3.0317V22.0288ZM127.769 22.0634C127.769 21.0951 127.583 20.196 127.211 19.3429C126.84 18.5014 126.341 17.7637 125.702 17.1297C125.063 16.5072 124.32 16.0115 123.473 15.6427C122.625 15.2738 121.719 15.0893 120.756 15.0893C119.78 15.0893 118.875 15.2738 118.039 15.6427C117.191 16.0115 116.448 16.5072 115.809 17.1297C115.171 17.7522 114.671 18.4899 114.311 19.3429C113.951 20.196 113.777 21.0951 113.777 22.0634C113.777 23.0086 113.951 23.9078 114.311 24.7493C114.671 25.6023 115.159 26.3401 115.798 26.9741C116.425 27.6081 117.168 28.1037 118.027 28.4726C118.886 28.8415 119.792 29.0259 120.767 29.0259C121.743 29.0259 122.648 28.8415 123.484 28.4726C124.332 28.1037 125.075 27.6081 125.714 26.9741C126.352 26.3401 126.851 25.6023 127.223 24.7493C127.583 23.8963 127.769 23.0086 127.769 22.0634ZM137.743 22.0634C137.743 20.2997 138.079 18.6398 138.764 17.0951C139.45 15.5504 140.367 14.2017 141.54 13.0375C142.712 11.8732 144.071 10.9625 145.627 10.2939C147.183 9.62536 148.843 9.29107 150.596 9.29107C152.373 9.29107 154.045 9.62536 155.601 10.2939C157.156 10.9625 158.515 11.8732 159.676 13.0375C160.837 14.2017 161.754 15.5504 162.428 17.0951C163.101 18.6398 163.438 20.2882 163.438 22.0634V31.5389C163.438 31.9539 163.357 32.3343 163.206 32.6916C163.055 33.049 162.846 33.3602 162.567 33.6254C162.3 33.8905 161.975 34.1095 161.615 34.2709C161.244 34.4323 160.86 34.513 160.442 34.513C159.746 34.513 159.154 34.3055 158.666 33.902C158.178 33.487 157.853 32.9798 157.691 32.3458C156.669 33.1182 155.554 33.7176 154.358 34.1671C153.162 34.6167 151.908 34.8357 150.596 34.8357C148.831 34.8357 147.183 34.5014 145.627 33.8329C144.071 33.1643 142.712 32.2536 141.54 31.0893C140.367 29.9251 139.45 28.5764 138.764 27.0202C138.079 25.4524 137.743 23.804 137.743 22.0634ZM143.583 22.0634C143.583 23.0086 143.769 23.9078 144.14 24.7493C144.512 25.6023 145.011 26.3401 145.65 26.9741C146.288 27.6081 147.032 28.1037 147.879 28.4726C148.727 28.8415 149.632 29.0259 150.596 29.0259C151.572 29.0259 152.477 28.8415 153.336 28.4726C154.184 28.1037 154.927 27.6081 155.566 26.9741C156.193 26.3401 156.692 25.6023 157.052 24.7493C157.412 23.9078 157.586 23.0086 157.586 22.0634C157.586 21.0951 157.412 20.196 157.052 19.3429C156.692 18.5014 156.193 17.7637 155.566 17.1297C154.939 16.5072 154.196 16.0115 153.336 15.6427C152.477 15.2738 151.572 15.0893 150.596 15.0893C149.644 15.0893 148.738 15.2738 147.891 15.6427C147.032 16.0115 146.288 16.5072 145.65 17.1297C145.011 17.7522 144.512 18.4899 144.14 19.3429C143.769 20.1844 143.583 21.0951 143.583 22.0634ZM170.3 9.91354C171.194 9.91354 172.019 10.2133 172.75 10.8242C173.482 11.4352 173.853 12.219 173.853 13.1758V22.8588C173.853 23.6772 174.004 24.4496 174.306 25.1643C174.608 25.879 175.038 26.5014 175.572 27.0432C176.106 27.585 176.744 28.0115 177.488 28.3228C178.219 28.6455 179.02 28.8069 179.891 28.8069C180.646 28.8069 181.389 28.6686 182.132 28.3804C182.863 28.0922 183.514 27.7003 184.071 27.2046C184.628 26.7089 185.081 26.1095 185.418 25.4063C185.755 24.7147 185.929 23.9539 185.929 23.1354V13.3372C185.929 12.415 186.266 11.6081 186.927 10.928C187.589 10.2478 188.425 9.91354 189.435 9.91354C190.364 9.91354 191.2 10.2248 191.92 10.8473C192.64 11.4697 193 12.2536 193 13.1758V40.6801C193 41.6023 192.64 42.3977 191.92 43.0317C191.2 43.6772 190.376 44 189.435 44C188.541 44 187.729 43.6772 187.009 43.0317C186.289 42.3862 185.929 41.5447 185.929 40.5187V34.3631C185.104 34.8588 184.164 35.2277 183.096 35.4582C182.039 35.6888 180.971 35.804 179.891 35.804C178.126 35.804 176.454 35.4697 174.875 34.7896C173.296 34.1095 171.903 33.1873 170.695 32.0115C169.487 30.8357 168.535 29.4294 167.839 27.8156C167.142 26.1902 166.782 24.415 166.782 22.4899V13.3372C166.782 12.415 167.119 11.6081 167.781 10.928C168.454 10.2478 169.29 9.91354 170.3 9.91354Z" fill="#37B44C"/>
</svg>
