<svg width="56" height="504" viewBox="0 0 56 504" fill="none" xmlns="http://www.w3.org/2000/svg">
<circle cx="28.5" cy="477.5" r="18.5" fill="#E5E5E5"/>
<path d="M29.5313 473.715C30.7373 473.715 31.7993 473.976 32.7173 474.498C33.6353 475.002 34.3463 475.722 34.8503 476.658C35.3543 477.576 35.6063 478.638 35.6063 479.844C35.6063 481.104 35.3183 482.22 34.7423 483.192C34.1663 484.146 33.3383 484.893 32.2583 485.433C31.1783 485.955 29.9273 486.216 28.5053 486.216C27.2993 486.216 26.1113 486.018 24.9413 485.622C23.7713 485.208 22.8083 484.659 22.0523 483.975L23.2133 481.437C24.9593 482.769 26.7413 483.435 28.5593 483.435C29.7653 483.435 30.6833 483.138 31.3133 482.544C31.9613 481.932 32.2853 481.068 32.2853 479.952C32.2853 478.89 31.9523 478.044 31.2863 477.414C30.6383 476.766 29.7653 476.442 28.6673 476.442C27.9113 476.442 27.2003 476.586 26.5343 476.874C25.8683 477.144 25.2833 477.549 24.7793 478.089H22.6733V466.776H34.7153V469.476H26.0753V474.714C27.0473 474.048 28.1993 473.715 29.5313 473.715Z" fill="white"/>
<circle cx="28.5" cy="369.5" r="18.5" fill="#E5E5E5"/>
<path d="M35.9573 371.52V374.247H33.2303V378H29.8283V374.247H21.4583V371.655L30.4493 358.776H33.2303V371.52H35.9573ZM24.7523 371.52H29.8283V364.203L24.7523 371.52Z" fill="white"/>
<line x1="29.5" y1="387.994" x2="29.5" y2="428.006" stroke="#E5E5E5" stroke-width="4"/>
<line x1="29.5" y1="427.994" x2="29.5" y2="468.006" stroke="#E5E5E5" stroke-width="4"/>
<circle cx="28.5" cy="261.5" r="18.5" fill="#E5E5E5"/>
<path d="M35.9573 263.52V266.247H33.2303V270H29.8283V266.247H21.4583V263.655L30.4493 250.776H33.2303V263.52H35.9573ZM24.7523 263.52H29.8283V256.203L24.7523 263.52Z" fill="white"/>
<line x1="29.5" y1="279.994" x2="29.5" y2="320.006" stroke="#E5E5E5" stroke-width="4"/>
<line x1="29.5" y1="319.994" x2="29.5" y2="360.006" stroke="#E5E5E5" stroke-width="4"/>
<circle cx="28.5" cy="153.5" r="18.5" fill="#E5E5E5"/>
<path d="M35.2151 159.165V162H22.3091V159.435L28.8431 152.388C29.6171 151.542 30.1841 150.768 30.5441 150.066C30.9041 149.364 31.0841 148.671 31.0841 147.987C31.0841 147.105 30.8231 146.439 30.3011 145.989C29.7971 145.539 29.0681 145.314 28.1141 145.314C26.4221 145.314 24.6851 145.98 22.9031 147.312L21.7421 144.774C22.4981 144.09 23.4701 143.55 24.6581 143.154C25.8461 142.74 27.0431 142.533 28.2491 142.533C30.1751 142.533 31.6961 143.01 32.8121 143.964C33.9461 144.9 34.5131 146.169 34.5131 147.771C34.5131 148.869 34.2701 149.904 33.7841 150.876C33.3161 151.848 32.5241 152.937 31.4081 154.143L26.6831 159.165H35.2151Z" fill="white"/>
<line x1="29.5" y1="171.994" x2="29.5" y2="212.006" stroke="#E5E5E5" stroke-width="4"/>
<line x1="29.5" y1="211.994" x2="29.5" y2="252.006" stroke="#E5E5E5" stroke-width="4"/>
<circle cx="28" cy="30" r="26" fill="white" stroke="#37B44D" stroke-width="3"/>
<circle cx="28.5" cy="29.5" r="18.5" fill="#37B44D"/>
<path d="M31.0973 35.165H35.2823V38H23.4293V35.165H27.6413V22.772L23.7263 25.121V22.016L29.0723 18.776H31.0973V35.165Z" fill="white"/>
<line x1="29.5" y1="55.9937" x2="29.5" y2="96.0061" stroke="#37B44D" stroke-width="4"/>
<line x1="29.5" y1="95.9937" x2="29.5" y2="136.006" stroke="#E5E5E5" stroke-width="4"/>
</svg>
