<svg width="548" height="548" viewBox="0 0 548 548" fill="none" xmlns="http://www.w3.org/2000/svg">
<path d="M476.201 111.803C479.565 84.1689 459.89 59.0404 432.256 55.6767C404.622 52.3131 379.493 71.988 376.129 99.622C372.766 127.256 392.441 152.384 420.075 155.748C447.709 159.112 472.837 139.437 476.201 111.803Z" fill="#EBEBEB"/>
<path d="M428.481 154.93C455.048 154.93 476.585 133.394 476.585 106.827C476.585 80.2603 455.048 58.7236 428.481 58.7236C401.914 58.7236 380.378 80.2603 380.378 106.827C380.378 133.394 401.914 154.93 428.481 154.93Z" fill="#DBDBDB"/>
<path d="M428.481 151.895C453.371 151.895 473.549 131.717 473.549 106.827C473.549 81.9371 453.371 61.7596 428.481 61.7596C403.591 61.7596 383.414 81.9371 383.414 106.827C383.414 131.717 403.591 151.895 428.481 151.895Z" fill="white"/>
<path opacity="0.5" d="M472.518 97.27C452.001 109.699 418.277 130.15 399.426 141.274C394.095 136.785 389.878 131.12 387.107 124.725L449.459 66.9437C455.283 70.0093 460.365 74.3127 464.349 79.5518C468.333 84.7908 471.121 90.8385 472.518 97.27Z" fill="#EBEBEB"/>
<path opacity="0.5" d="M473.472 108.405C473.314 113.419 472.31 118.369 470.502 123.048L414.288 149.626C411.836 148.821 409.459 147.802 407.186 146.579C424.207 136.77 455.235 118.916 473.472 108.405Z" fill="#EBEBEB"/>
<path d="M428.909 65.0366H428.043V71.8647H428.909V65.0366Z" fill="#C7C7C7"/>
<path d="M407.953 70.3979L407.194 70.8363L410.608 76.7496L411.367 76.3112L407.953 70.3979Z" fill="#C7C7C7"/>
<path d="M392.482 85.5456L392.049 86.2954L397.962 89.7094L398.395 88.9596L392.482 85.5456Z" fill="#C7C7C7"/>
<path d="M393.519 106.4H386.691V107.265H393.519V106.4Z" fill="#C7C7C7"/>
<path d="M397.988 123.957L392.075 127.371L392.508 128.121L398.421 124.707L397.988 123.957Z" fill="#C7C7C7"/>
<path d="M410.637 136.914L407.226 142.829L407.986 143.267L411.397 137.352L410.637 136.914Z" fill="#C7C7C7"/>
<path d="M428.909 141.79H428.043V148.618H428.909V141.79Z" fill="#C7C7C7"/>
<path d="M446.338 136.886L445.579 137.324L448.993 143.238L449.753 142.799L446.338 136.886Z" fill="#C7C7C7"/>
<path d="M458.952 123.921L458.52 124.671L464.433 128.085L464.866 127.335L458.952 123.921Z" fill="#C7C7C7"/>
<path d="M470.272 106.4H463.444V107.265H470.272V106.4Z" fill="#C7C7C7"/>
<path d="M466.331 85.9712L460.39 89.3853L460.823 90.1385L466.764 86.7245L466.331 85.9712Z" fill="#C7C7C7"/>
<path d="M449.002 70.4256L445.591 76.3407L446.35 76.7787L449.761 70.8636L449.002 70.4256Z" fill="#C7C7C7"/>
<path d="M429.139 68.1274L430.618 109.874L426.344 109.819L427.977 68.1165L429.139 68.1274Z" fill="#C7C7C7"/>
<path d="M455.136 92.2722L427.045 110.203L425.007 106.444L454.577 91.2529L455.136 92.2722Z" fill="#A6A6A6"/>
<path d="M428.481 108.285C429.286 108.285 429.939 107.632 429.939 106.827C429.939 106.022 429.286 105.369 428.481 105.369C427.676 105.369 427.023 106.022 427.023 106.827C427.023 107.632 427.676 108.285 428.481 108.285Z" fill="#C7C7C7"/>
<path d="M307.494 340.757H58.3181V46.6567H307.494V340.757ZM64.3023 334.762H301.499V52.608H64.3023V334.762Z" fill="#EBEBEB"/>
<path d="M183.569 54.2081H177.574V337.754H183.569V54.2081Z" fill="#EBEBEB"/>
<path d="M312.93 58.7676H52.882V67.1081H312.93V58.7676Z" fill="#EBEBEB"/>
<path d="M312.93 68.1603H52.882V76.5008H312.93V68.1603Z" fill="#EBEBEB"/>
<path d="M312.93 77.542H52.882V85.8825H312.93V77.542Z" fill="#EBEBEB"/>
<path d="M312.93 86.9347H52.882V95.2753H312.93V86.9347Z" fill="#EBEBEB"/>
<path d="M312.93 96.3165H52.882V104.657H312.93V96.3165Z" fill="#EBEBEB"/>
<path d="M312.93 105.709H52.882V114.05H312.93V105.709Z" fill="#EBEBEB"/>
<path d="M312.93 115.091H52.882V123.431H312.93V115.091Z" fill="#EBEBEB"/>
<path d="M312.93 124.484H52.882V132.824H312.93V124.484Z" fill="#EBEBEB"/>
<path d="M312.93 133.876H52.882V142.217H312.93V133.876Z" fill="#EBEBEB"/>
<path d="M295.131 57.0797H293.629V219.463H295.131V57.0797Z" fill="#263238"/>
<path d="M297.038 226.434H291.722L293.059 218.795H295.712L297.038 226.434Z" fill="#263238"/>
<path d="M300.534 57.0797H299.033V305.368H300.534V57.0797Z" fill="#263238"/>
<path d="M302.43 310.979H297.115L298.452 303.34H301.104L302.43 310.979Z" fill="#263238"/>
<path d="M322.235 45.484H43.5879V62.9433H322.235V45.484Z" fill="#DBDBDB"/>
<path d="M469.767 338.927H399.349V406.594H469.767V338.927Z" fill="#EBEBEB"/>
<path d="M496.532 338.927H469.767V406.594H496.532V338.927Z" fill="#C7C7C7"/>
<path d="M399.349 372.761H469.767L414.77 374.503L399.349 372.761Z" fill="#C7C7C7"/>
<path d="M469.767 398.418H399.349L454.347 400.161L469.767 398.418Z" fill="#C7C7C7"/>
<path d="M399.349 353.854H443.957L404.303 355.268L399.349 353.854Z" fill="#C7C7C7"/>
<path d="M469.767 388.455H425.171L464.814 389.88L469.767 388.455Z" fill="#C7C7C7"/>
<path d="M416.25 346.314H466.556L458.172 347.169L416.25 346.314Z" fill="#C7C7C7"/>
<path d="M406.199 380.016H456.506L448.121 380.871L406.199 380.016Z" fill="#C7C7C7"/>
<path d="M437.14 360.288H469.767L475.598 362.568L437.14 360.288Z" fill="#EBEBEB"/>
<path d="M390.362 360.288H423.001L428.832 362.568L390.362 360.288Z" fill="#EBEBEB"/>
<path d="M432.24 390.702H399.602L393.771 392.982L432.24 390.702Z" fill="#EBEBEB"/>
<path d="M469.767 382.986H495.984L501.815 385.255L469.767 382.986Z" fill="#C7C7C7"/>
<path d="M478.919 372.761H499.239L496.532 370.908L478.919 372.761Z" fill="#C7C7C7"/>
<path d="M33.6143 406.309L93.708 406.046L153.813 405.947L274 405.761L394.187 405.947L454.292 406.046L514.386 406.309L454.292 406.583L394.187 406.682L274 406.857L153.813 406.671L93.708 406.583L33.6143 406.309Z" fill="#263238"/>
<path d="M274 491.019C392.997 491.019 489.463 474.09 489.463 453.207C489.463 432.324 392.997 415.395 274 415.395C155.003 415.395 58.5374 432.324 58.5374 453.207C58.5374 474.09 155.003 491.019 274 491.019Z" fill="#EBEBEB"/>
<path d="M339.683 218.948C337.743 214.805 325.435 181.98 310.88 168.192C303.208 160.882 279.732 143.192 274.712 147.368C270.12 151.138 275.348 157.561 275.348 157.561C275.348 157.561 264.783 149.823 258.459 155.139C252.135 160.454 261.528 170.844 261.528 170.844C261.528 170.844 250.096 163.698 244.167 169.452C238.238 175.206 249.439 184.062 249.439 184.062C249.439 184.062 239.29 177.037 236.396 183.832C232.922 192.008 253.099 202.848 260.059 212.328C261.648 214.52 289.026 258.174 289.026 258.174L339.683 218.948Z" fill="#EB9481"/>
<path d="M249.34 184.49C264.158 192.501 269.254 198.562 277.376 212.986C277.54 213.271 277.989 213.095 277.847 212.788C271.183 197.905 265.89 189.378 249.691 183.722C248.902 183.481 248.639 184.128 249.34 184.49Z" fill="#263238"/>
<path d="M261.374 171.272C276.039 180.928 281.617 187.46 291.24 201.96C291.372 202.168 291.733 201.96 291.613 201.741C283.371 186.714 277.891 178.33 262.021 170.592C261.254 170.253 260.706 170.822 261.374 171.272Z" fill="#263238"/>
<path d="M275.787 158.229C289.3 168.609 295.734 175.513 303.263 190.792C303.302 190.857 303.364 190.906 303.436 190.93C303.509 190.954 303.587 190.951 303.658 190.922C303.728 190.893 303.786 190.839 303.82 190.771C303.854 190.703 303.863 190.624 303.844 190.551C297.685 174.264 289.717 165.551 276.192 157.824C275.217 157.331 274.932 157.583 275.787 158.229Z" fill="#263238"/>
<path d="M287.152 271.578C287.152 271.578 270.098 259.171 263.807 252.08C257.516 244.989 243.794 209.862 251.214 206.475C260.782 202.091 272.696 220.8 277.332 230.73C277.332 230.73 299.471 220.57 310.924 232.144C322.377 243.717 287.152 271.578 287.152 271.578Z" fill="#EB9481"/>
<path d="M254.272 206.125C265.879 208.426 271.128 221.841 276.345 231.135C276.416 231.277 276.519 231.399 276.647 231.492C276.775 231.585 276.923 231.645 277.08 231.668C277.236 231.69 277.395 231.675 277.544 231.622C277.693 231.569 277.827 231.481 277.935 231.366C287.492 227.727 302.047 225.381 310.957 231.475C311.009 231.506 311.07 231.517 311.129 231.507C311.188 231.497 311.242 231.466 311.28 231.419C311.319 231.373 311.339 231.315 311.338 231.255C311.337 231.194 311.315 231.137 311.275 231.092C302.595 223.255 288.117 224.395 277.891 229.053C272.696 219.441 266.843 206.212 254.283 206.037C254.271 206.048 254.263 206.063 254.261 206.079C254.259 206.095 254.263 206.111 254.272 206.125Z" fill="#263238"/>
<path d="M224.373 269.452C240.167 303.428 307.549 411.131 348.057 404.577C394.396 397.07 347.246 225.425 336.757 213.325C331.102 206.749 273.792 250.984 279.623 264.925C282.012 270.635 292.95 288.774 291.426 289.311C290.133 289.76 272.948 269.309 243.696 247.981C215.649 227.53 217.315 254.272 224.373 269.452Z" fill="#EB9481"/>
<path d="M223.661 271.424C242.194 313.456 308.272 398.56 333.042 403.854C357.811 409.148 362.94 401.552 369.56 376.783C376.18 352.013 353.12 248.332 353.12 248.332L279.688 269.419L282.001 277.288C282.001 277.288 262.514 261.253 245.296 247.367C228.078 233.481 208.24 236.484 223.661 271.424Z" fill="#37B44D"/>
<path opacity="0.1" d="M223.08 240.594V270.076C222.598 268.98 222.159 267.884 221.754 266.788C221.469 266.043 221.206 265.309 220.954 264.596L220.888 264.399V242.216L221.184 241.92C221.746 241.385 222.385 240.938 223.08 240.594ZM229.513 239.739V283.272C229.711 283.656 229.919 284.039 230.127 284.423V239.827C229.919 239.783 229.711 239.761 229.513 239.739ZM237.942 242.512C237.525 242.293 237.109 242.095 236.692 241.909L236.561 241.843V295.92H236.791C237.218 296.643 237.668 297.378 238.128 298.112C238.325 298.448 238.533 298.788 238.753 299.131V242.939C238.479 242.786 238.216 242.643 237.942 242.512ZM245.296 247.345L245.186 247.257V309.247L245.789 310.157V247.696L245.296 247.345ZM252.233 252.957V319.648C252.365 319.857 252.507 320.065 252.661 320.262C252.814 320.459 252.935 320.679 253.088 320.876L254.415 322.772V254.721L252.233 252.957ZM260.859 259.971V331.715C261.056 331.989 261.254 332.263 261.462 332.526V260.464C261.265 260.289 261.067 260.135 260.848 259.971H260.859ZM269.254 266.81L267.906 265.714V341.097C268.389 341.733 268.871 342.368 269.375 342.993L270.087 343.914V267.49L269.254 266.81ZM277.113 273.244L276.532 272.772V352.221H276.685L277.135 352.78V273.244H277.113ZM283.579 268.312V360.847H283.864C284.5 361.603 285.146 362.359 285.793 363.105V267.687L283.579 268.312ZM292.205 265.835V370.448L292.807 371.116V265.681L292.205 265.835ZM299.252 263.818V378.01L301.444 380.257V263.182L299.252 263.818ZM307.877 261.341V386.592L308.48 387.162V261.122L307.877 261.341ZM314.925 259.313V392.894C315.659 393.519 316.382 394.111 317.117 394.68V258.656L314.925 259.313ZM323.55 399.393L324.153 399.777V256.661L323.55 256.836V399.393ZM330.598 254.809V403.12C331.313 403.389 332.045 403.612 332.79 403.788V254.184L330.598 254.809ZM339.223 252.332V404.961L339.826 405.049V252.157L339.223 252.332ZM346.27 405.454C347.027 405.454 347.75 405.454 348.462 405.334V249.702L346.27 250.337V405.454ZM355.268 258.185C355.268 257.976 355.181 257.779 355.148 257.582C355.06 257.176 354.973 256.782 354.896 256.398V403.668L355.499 403.372V259.281L355.268 258.185ZM364.036 304.589C363.678 302.397 363.313 300.253 362.94 298.156C362.82 297.421 362.688 296.687 362.557 295.964C362.338 294.747 362.118 293.542 361.91 292.347V397.179C362.734 395.888 363.466 394.54 364.102 393.146V304.589H364.036ZM370.678 360.847C370.678 360.135 370.678 359.4 370.612 358.655C370.547 357.91 370.558 357.406 370.525 356.759V370.13C370.525 369.407 370.623 368.661 370.656 367.938C370.656 367.741 370.656 367.544 370.656 367.335C370.766 365.304 370.784 363.141 370.711 360.847H370.678ZM221.184 241.909L220.888 242.205C220.787 242.302 220.692 242.404 220.603 242.512H237.942C237.525 242.293 237.109 242.095 236.692 241.909H221.184ZM218.203 248.956C218.135 249.685 218.113 250.417 218.137 251.148H249.998L247.291 248.956H218.203ZM353.307 248.956H350.994L348.451 249.68L346.259 250.315L343.388 251.137H353.767C353.57 250.162 353.405 249.428 353.307 248.956ZM257.955 257.582H218.937L219.069 258.185H258.656L257.955 257.582ZM355.17 257.582H320.975L318.87 258.185H355.29C355.225 257.976 355.181 257.779 355.104 257.56L355.17 257.582ZM266.591 264.618H220.954C221.206 265.331 221.469 266.065 221.754 266.81H269.254L267.906 265.714L266.591 264.618ZM356.617 264.618H296.446L292.807 265.659L292.205 265.835L288.818 266.81H357.033C356.891 266.065 356.737 265.331 356.595 264.618H356.617ZM277.157 273.244H224.472C224.57 273.452 224.669 273.649 224.757 273.857H277.858L277.135 273.266L277.157 273.244ZM358.348 273.244H280.861L281.036 273.857H358.392C358.392 273.649 358.392 273.452 358.326 273.244H358.348ZM359.718 280.291H227.968C228.33 281.014 228.713 281.738 229.064 282.483H360.113C359.97 281.749 359.828 281.014 359.696 280.291H359.718ZM361.329 288.916H232.637L232.988 289.53H361.417C361.384 289.344 361.34 289.125 361.307 288.916H361.329ZM236.791 295.92C237.218 296.643 237.668 297.378 238.128 298.112H362.962C362.842 297.378 362.71 296.643 362.579 295.92H236.791ZM364.124 304.896V304.545H242.216C242.337 304.743 242.468 304.951 242.611 305.159H364.267C364.223 305.083 364.176 305.01 364.124 304.94V304.896ZM365.22 311.593H246.764C247.258 312.316 247.74 313.05 248.244 313.785H365.571C365.461 313.105 365.341 312.36 365.22 311.637V311.593ZM366.557 320.218H252.661C252.792 320.426 252.935 320.635 253.088 320.832H366.645C366.623 320.679 366.59 320.47 366.557 320.262V320.218ZM367.566 327.266H260.848V329.458H367.851L367.566 327.266ZM368.662 335.891H263.983L264.454 336.505H368.749C368.727 336.351 368.705 336.143 368.673 335.935L368.662 335.891ZM369.451 342.938H269.375L270.087 343.859C270.405 344.286 270.734 344.714 271.074 345.13H369.714C369.615 344.451 369.549 343.716 369.462 342.982L369.451 342.938ZM370.229 351.564H276.192L276.543 351.991V352.178H370.284L370.229 351.564ZM370.634 358.611H281.99L283.579 360.507V360.803H370.711C370.7 360.135 370.667 359.4 370.645 358.655L370.634 358.611ZM289.388 367.237C289.563 367.434 289.739 367.642 289.925 367.839H370.678C370.678 367.642 370.678 367.445 370.678 367.237H289.388ZM295.767 374.284C296.446 375.018 297.137 375.753 297.816 376.476H369.615C369.802 375.753 369.952 375.022 370.064 374.284H295.767ZM304.107 382.909C304.304 383.107 304.513 383.304 304.71 383.512H367.631C367.697 383.315 367.752 383.118 367.807 382.909H304.107ZM311.571 389.957C312.426 390.713 313.259 391.447 314.081 392.149H364.552C364.858 391.447 365.154 390.724 365.439 389.957H311.571ZM322.388 398.582L323.287 399.185H360.442C360.595 398.999 360.759 398.791 360.913 398.582H322.388Z" fill="black"/>
<path d="M353.635 267.216C348.945 269.134 344.133 270.668 339.311 272.192C330.817 274.877 322.246 277.288 313.686 279.699C309.357 280.916 305.006 282.012 300.644 283.097C296.282 284.182 291.931 284.96 287.634 286.056C287.536 286.056 287.492 285.935 287.634 285.902C290.089 285.267 292.501 284.423 294.923 283.656C297.345 282.888 299.69 282.154 302.091 281.464C310.617 278.91 319.177 276.488 327.715 273.956C332.022 272.685 336.341 271.457 340.659 270.219C344.977 268.98 349.229 267.797 353.581 266.843C353.622 266.85 353.66 266.869 353.69 266.899C353.72 266.929 353.739 266.968 353.745 267.009C353.751 267.051 353.744 267.093 353.724 267.13C353.704 267.168 353.673 267.197 353.635 267.216ZM322.52 383.6C318.881 377.024 315.571 370.393 312.316 363.675C309.061 356.956 306.113 350.249 303.285 343.442C297.575 329.763 292.656 315.766 288.555 301.52C287.459 297.542 286.363 293.542 285.267 289.541C284.171 285.541 283.272 281.354 282.286 277.244C282.143 276.652 281.88 276.652 281.979 277.244C283.217 284.587 284.302 292.204 286.199 299.394C288.095 306.584 290.254 313.741 292.643 320.799C295.032 327.857 297.685 334.828 300.578 341.689C303.471 348.55 306.518 355.345 309.993 361.921C313.905 369.308 318.004 376.564 322.356 383.71C322.432 383.83 322.575 383.731 322.52 383.6Z" fill="#263238"/>
<path opacity="0.1" d="M338.894 404.917C337.075 404.665 335.124 404.303 333.042 403.821C308.272 398.506 242.216 313.456 223.661 271.424C215.178 252.179 217.381 242.61 223.946 240.232C243.663 269.386 307.297 360.003 338.894 404.917Z" fill="black"/>
<path d="M272.005 405.641L111.792 406.068C111.792 406.068 129.986 287.338 188.852 230.807C196.129 223.814 213.205 224.647 224.538 229.711C228.582 231.519 243.63 250.852 248.463 269.517C253.297 288.182 272.433 405.06 272.005 405.641Z" fill="#37B44D"/>
<path opacity="0.1" d="M113.37 397.114V406.068H111.792L111.858 405.673C111.989 404.818 112.362 402.594 112.954 399.229C112.954 399.032 113.03 398.834 113.063 398.626C113.173 398.107 113.275 397.603 113.37 397.114ZM119.815 367.28V406.046H120.418V366.327C120.33 366.645 120.253 366.963 120.165 367.28H119.815ZM126.862 342.982V406.024H129.054V337.119C128.407 339.091 127.772 341.053 127.158 342.982H126.862ZM135.488 318.98V406.002H136.09V317.391L135.488 318.98ZM144.113 298.156C143.576 299.35 143.017 300.556 142.524 301.751V405.991H144.716V296.851C144.519 297.279 144.321 297.717 144.113 298.112V298.156ZM151.719 282.483C151.533 282.845 151.347 283.217 151.149 283.579V405.958H151.763V282.406L151.719 282.483ZM158.197 270.767V405.947H160.389V267.095C159.643 268.312 158.92 269.539 158.197 270.767ZM166.822 405.925H167.436V256.245L166.822 257.143V405.925ZM173.869 247.488V405.903H176.061V244.791C175.36 245.646 174.593 246.6 173.869 247.488ZM182.495 237.284V405.882H183.109V236.615L182.495 237.284ZM189.542 230.171V405.86H191.734V228.691C190.959 229.111 190.225 229.602 189.542 230.16V230.171ZM198.168 226.236V405.838H198.782V226.236H198.168ZM205.215 225.732V405.816H207.407V225.776C206.673 225.776 205.938 225.776 205.215 225.776V225.732ZM213.841 226.51V405.794H214.454V226.62L213.841 226.51ZM220.888 228.308V405.772H223.08V229.064C222.367 228.823 221.633 228.56 220.888 228.308ZM229.513 234.347V405.75H230.16V235.07L229.513 234.347ZM236.561 243.882V405.739H238.753V247.411C238.029 246.194 237.295 245.011 236.561 243.882ZM245.186 260.059V405.717H245.789V261.538C245.603 261.045 245.394 260.552 245.186 260.059ZM254.13 298.112C253.998 297.378 253.856 296.643 253.724 295.92C253.315 293.684 252.92 291.54 252.54 289.486C252.54 289.278 252.464 289.081 252.42 288.873C252.376 288.664 252.299 288.204 252.233 287.864V405.695H254.425V299.745C254.272 299.208 254.272 298.682 254.13 298.112ZM260.848 336.592V405.64H261.451V340.122C261.265 338.949 261.056 337.765 260.848 336.592ZM270.033 392.182C269.923 391.48 269.802 390.757 269.693 389.99C269.364 387.995 269.024 385.836 268.597 383.545L268.498 382.942C268.29 381.616 268.071 380.257 267.841 378.854V405.662H270.033V392.182ZM212.153 226.236H198.168V226.412C197.554 226.532 196.951 226.675 196.37 226.839H215.528L214.432 226.62L213.819 226.51L212.153 226.236ZM230.127 235.07L229.513 234.347C229.185 233.974 228.878 233.612 228.571 233.251H186.32C185.608 233.963 184.906 234.686 184.205 235.443H230.456L230.127 235.07ZM235.256 241.909H178.418C178.242 242.106 178.067 242.304 177.903 242.512H235.64C235.519 242.315 235.388 242.106 235.256 241.909ZM239.64 248.956H172.741C172.193 249.669 171.645 250.403 171.097 251.148H240.89C240.484 250.392 240.079 249.669 239.662 248.956H239.64ZM166.515 257.56C166.384 257.757 166.241 257.954 166.11 258.163H244.408L244.145 257.56H166.515ZM246.94 264.596H161.923C161.463 265.32 161.013 266.054 160.564 266.788H247.696C247.433 266.076 247.192 265.341 246.94 264.618V264.596ZM249.296 273.222H156.728C156.607 273.419 156.498 273.627 156.377 273.835H249.406C249.395 273.649 249.351 273.441 249.296 273.244V273.222ZM250.765 280.269H152.87L151.774 282.384V282.461H251.247C251.05 281.727 250.907 280.992 250.765 280.291V280.269ZM252.42 288.895H148.475L148.168 289.508H252.54C252.497 289.344 252.464 289.125 252.42 288.916V288.895ZM253.724 295.92H145.121L144.716 296.808C144.519 297.235 144.321 297.673 144.113 298.112H254.13C253.998 297.421 253.856 296.687 253.724 295.92ZM255.291 304.545H141.307L141.044 305.159H255.368C255.368 304.995 255.368 304.787 255.291 304.589V304.545ZM256.541 311.593H138.37L137.482 313.785H256.946C256.793 313.094 256.672 312.36 256.541 311.637V311.593ZM258.042 320.218H134.994L134.764 320.832H258.152C258.119 320.668 258.086 320.459 258.042 320.262V320.218ZM259.27 327.265H132.408C132.156 328 131.893 328.734 131.641 329.457H259.642C259.522 328.8 259.39 328.044 259.27 327.309V327.265ZM260.749 335.891H129.438L129.24 336.505H260.848L260.749 335.891ZM261.944 342.938H126.862V343.87L126.467 345.13H262.371C262.196 344.451 262.065 343.716 261.944 342.982V342.938ZM263.391 351.564H124.517C124.517 351.772 124.396 351.98 124.341 352.178H263.533C263.467 352.024 263.435 351.816 263.391 351.608V351.564ZM264.574 358.611H122.489C122.292 359.345 122.083 360.08 121.886 360.803H264.936L264.574 358.611ZM266.01 367.237H119.815V367.839H266.109L266.01 367.237ZM267.106 374.284H118.368C118.182 375.029 118.006 375.753 117.831 376.476H267.523L267.106 374.284ZM268.509 382.909H116.351L116.176 383.6H268.663L268.509 382.909ZM269.605 389.957H114.806L114.357 392.149H269.989C269.934 391.48 269.813 390.757 269.704 390.001L269.605 389.957ZM270.942 398.582H113.074C113.074 398.79 113.009 398.988 112.965 399.185H271.139C271.107 399.032 271.085 398.834 271.041 398.626L270.942 398.582ZM111.792 405.673L111.726 406.068H113.326H119.771H120.374H126.818H129.01H135.455H144.672H151.106H183.065H189.498H191.69H198.124H198.738H205.171H207.363H213.797H214.411H220.844H223.036H229.47H111.792V405.673Z" fill="black"/>
<path d="M250.129 277.288C251.543 281.442 252.76 285.76 253.779 290.111C253.779 289.936 253.779 289.771 253.779 289.596C253.779 287.141 253.658 284.62 253.779 282.165C253.779 282.034 253.998 281.99 254.02 282.165C254.438 284.634 254.61 287.137 254.535 289.64C254.535 290.813 254.535 291.996 254.436 293.169C254.853 295.12 255.236 297.082 255.532 299.022C256.157 302.715 259.752 327.244 259.916 329.995C259.916 330.575 259.621 330.586 259.434 329.995C258.568 327.244 253.954 302.419 253.121 298.77C251.654 291.673 250.574 284.502 249.888 277.288C249.888 277.124 250.074 277.113 250.129 277.288Z" fill="#263238"/>
<path d="M221.852 267.336C212.043 267.906 198.409 250.677 194.069 237.898C193.773 237.021 196.48 228.801 199.297 218.663C200.984 212.514 202.716 205.61 203.834 199.209L242.304 216.022C242.304 216.022 236.002 228.757 234.106 239.936C233.965 240.824 233.903 241.723 233.919 242.622C233.919 242.742 233.919 242.896 233.919 243.06C233.843 248.2 231.333 266.777 221.852 267.336Z" fill="#EB9481"/>
<path d="M233.919 242.61C233.919 242.742 233.919 242.895 233.919 243.06C232.52 243.003 231.127 242.835 229.755 242.556C207.067 238.051 205.643 209.073 205.73 200.031L242.326 216.022C242.326 216.022 236.024 228.768 234.128 239.947C233.974 240.826 233.904 241.718 233.919 242.61Z" fill="#263238"/>
<path d="M268.783 156.881C268.783 156.881 278.592 165.923 276.4 178.451C274.208 190.978 267.008 202.322 265.769 202.563C264.531 202.804 268.783 156.881 268.783 156.881Z" fill="#263238"/>
<path d="M211.934 151.873C203.516 164.433 198.705 206.673 205.851 218.542C216.208 235.793 239.213 244.112 255.39 230.281C271.074 216.866 276.367 161.748 267.819 150.273C255.236 133.471 224.362 133.306 211.934 151.873Z" fill="#EB9481"/>
<path d="M236.736 178.396C237.953 177.947 239.147 177.727 240.397 177.398C241.646 177.07 242.885 176.587 244.32 177.092C244.711 177.274 245.03 177.58 245.229 177.963C245.427 178.345 245.493 178.783 245.416 179.207C244.978 181.004 243.367 181.892 241.69 182.396C240.016 182.973 238.188 182.906 236.561 182.21C236.201 182.028 235.901 181.745 235.698 181.397C235.495 181.049 235.397 180.649 235.415 180.246C235.434 179.843 235.568 179.454 235.803 179.126C236.037 178.798 236.361 178.544 236.736 178.396Z" fill="#263238"/>
<path d="M268.52 185.783C267.621 184.851 266.635 184.139 265.659 183.295C264.684 182.451 263.763 181.498 262.251 181.322C261.82 181.321 261.4 181.463 261.058 181.724C260.715 181.986 260.468 182.353 260.355 182.769C259.971 184.577 261.045 186.057 262.328 187.252C263.591 188.495 265.27 189.225 267.04 189.301C267.443 189.291 267.835 189.164 268.167 188.937C268.5 188.71 268.76 188.391 268.917 188.02C269.073 187.648 269.119 187.24 269.048 186.843C268.978 186.446 268.794 186.078 268.52 185.783Z" fill="#263238"/>
<path d="M235.761 214.323C236.331 215.101 236.857 216.12 237.876 216.361C238.929 216.509 240.001 216.431 241.021 216.131C241.042 216.125 241.065 216.125 241.086 216.133C241.107 216.141 241.124 216.156 241.135 216.175C241.147 216.194 241.151 216.216 241.149 216.238C241.146 216.26 241.136 216.28 241.12 216.296C240.63 216.789 240.015 217.139 239.341 217.309C238.668 217.479 237.96 217.462 237.295 217.26C236.74 217.022 236.27 216.623 235.944 216.115C235.618 215.608 235.451 215.014 235.465 214.41C235.443 214.246 235.64 214.213 235.761 214.323Z" fill="#263238"/>
<path d="M251.817 205.719C251.817 205.719 251.214 210.772 250.721 212.777C250.721 212.964 244.408 209.972 238.884 209.204C238.643 209.204 238.533 208.678 239.202 208.591C243.038 208.13 249.636 210.717 249.636 210.717C249.713 210.399 250.151 203.176 250.48 203.231C252 203.751 253.445 204.47 254.776 205.368C255.971 196.25 255.708 187.021 257.034 177.968C257.047 177.904 257.082 177.846 257.133 177.804C257.184 177.762 257.247 177.739 257.313 177.739C257.379 177.739 257.443 177.762 257.494 177.804C257.545 177.846 257.58 177.904 257.593 177.968C258.557 187.624 257.407 198.146 256.409 207.56C256.3 208.766 252.54 206.256 251.817 205.719Z" fill="#263238"/>
<path d="M243.586 190.539C243.586 190.43 243.345 190.638 243.334 190.748C242.928 193.608 241.997 196.82 239.268 197.324C239.18 197.324 239.169 197.477 239.268 197.477C242.479 197.576 243.674 193.312 243.586 190.539Z" fill="#263238"/>
<path d="M237.043 189.959C237.099 191.198 237.37 192.418 237.843 193.565C238.028 194.042 238.366 194.445 238.804 194.711C239.242 194.976 239.756 195.09 240.265 195.033C241.208 194.924 241.964 193.937 242.457 192.841C242.983 191.7 243.373 190.501 243.619 189.268C243.867 190.579 243.784 191.932 243.378 193.203C243.175 193.884 242.844 194.52 242.402 195.077C241.904 195.694 241.2 196.111 240.419 196.25C239.647 196.345 238.867 196.154 238.227 195.713C237.606 195.269 237.154 194.627 236.944 193.893C236.575 192.602 236.609 191.229 237.043 189.959Z" fill="#263238"/>
<path d="M259.127 192.578C259.127 192.479 259.325 192.742 259.314 192.863C258.842 195.713 258.777 199.044 261.243 200.338C261.319 200.338 261.243 200.524 261.243 200.491C258.097 199.636 258.218 195.198 259.127 192.578Z" fill="#263238"/>
<path d="M265.539 193.992C265.583 195.35 265.2 196.688 264.443 197.817C264.023 198.455 263.402 198.933 262.678 199.176C261.918 199.429 261.089 199.375 260.368 199.025C259.647 198.675 259.091 198.056 258.82 197.302C258.571 196.644 258.444 195.945 258.448 195.241C258.438 193.904 258.762 192.586 259.39 191.405C259.242 192.654 259.242 193.916 259.39 195.165C259.41 195.7 259.554 196.223 259.811 196.693C260.068 197.163 260.43 197.566 260.87 197.872C261.339 198.082 261.865 198.13 262.365 198.009C262.865 197.888 263.31 197.605 263.632 197.203C264.452 196.254 265.098 195.167 265.539 193.992Z" fill="#263238"/>
<path d="M209.106 186.123C216.876 188.019 224.384 153.44 224.384 153.44C224.384 153.44 231.398 159.106 237.81 161.167C242.829 162.715 248.005 163.7 253.242 164.104C254.404 164.104 242.161 155.479 242.161 155.479C242.161 155.479 274.504 170.077 277.836 164.247C278.998 162.186 269.2 135.202 245.383 131.114C227.847 128.1 213.83 143.587 213.83 143.587C213.83 143.587 203.231 150.864 202.289 156.399C201.039 163.775 200.875 184.128 209.106 186.123Z" fill="#263238"/>
<path d="M211.298 187.252C211.298 187.252 205.818 171.688 199.045 173.277C192.271 174.867 193.762 195.636 199.976 200.162C200.729 200.8 201.603 201.278 202.545 201.569C203.487 201.86 204.479 201.957 205.46 201.855C206.441 201.753 207.391 201.453 208.253 200.973C209.115 200.494 209.871 199.846 210.476 199.066L211.298 187.252Z" fill="#EB9481"/>
<path d="M199.636 179.218C199.527 179.218 199.461 179.327 199.538 179.393C203.845 182.681 205.138 187.953 205.621 193.126C204.678 190.934 202.99 189.389 200.141 190.43C199.987 190.485 200.053 190.715 200.195 190.726C201.132 190.686 202.057 190.939 202.843 191.449C203.629 191.96 204.236 192.703 204.579 193.575C205.141 195.029 205.541 196.539 205.774 198.08C205.884 198.584 206.728 198.562 206.706 198.08C206.711 198.036 206.711 197.992 206.706 197.949C208.492 191.734 206.114 181.706 199.636 179.218Z" fill="#263238"/>
<path d="M270.383 193.444C268.947 199.264 267.599 205.116 265.923 210.881C264.495 216.053 262.277 220.974 259.347 225.469C258.543 226.633 257.649 227.733 256.672 228.757C255.675 229.853 253.264 231.957 253.384 231.892C254.36 231.102 255.445 230.467 256.409 229.7C257.385 228.882 258.298 227.992 259.138 227.036C260.856 225.11 262.328 222.978 263.522 220.69C266.24 215.452 267.599 209.588 268.75 203.834C269.43 200.393 270.011 196.918 270.646 193.455C270.647 193.438 270.644 193.42 270.638 193.404C270.632 193.388 270.623 193.373 270.612 193.36C270.6 193.348 270.586 193.337 270.57 193.33C270.555 193.323 270.538 193.319 270.52 193.318C270.503 193.317 270.486 193.32 270.47 193.326C270.453 193.332 270.438 193.341 270.426 193.353C270.413 193.364 270.403 193.378 270.395 193.394C270.388 193.41 270.384 193.427 270.383 193.444Z" fill="#263238"/>
<path d="M234.215 240.232L223.88 263.785L195.198 232.659L186.484 242.084C186.484 242.084 213.961 290.955 214.213 288.796L224.68 268.52L238.424 283.283V247.345L234.215 240.232Z" fill="#37B44D"/>
<path d="M239.432 265.528C239.235 259.599 239.191 253.614 238.72 247.696C238.72 247.477 238.38 247.378 238.314 247.619C236.955 253.307 237.843 275.995 237.646 281.431L237.58 281.365C237.01 280.729 224.822 268.356 224.691 268.542C222.499 271.742 214.827 286.483 214.235 287.831C209.851 280.072 191.384 249.472 186.178 242.052C186.147 242.015 186.105 241.99 186.059 241.98C186.012 241.971 185.964 241.977 185.922 241.999C185.88 242.021 185.846 242.056 185.827 242.1C185.807 242.143 185.804 242.192 185.816 242.238C189.619 250.414 213.501 290.845 213.862 290.747C214.104 290.944 223.65 272.783 224.822 269.331C226.861 272.005 239.07 285.913 239.191 285.037C239.606 278.542 239.686 272.031 239.432 265.528Z" fill="#263238"/>
<path d="M118.554 403.482C106.772 410.43 88.0856 406.769 86.2443 390.439C80.0957 335.639 124.604 225.557 132.463 216.252C138.118 209.621 191.471 245.745 188.95 254.71C184.895 269.178 144.782 388.039 118.554 403.482Z" fill="#EB9481"/>
<path d="M129.547 223.584C129.547 223.584 135.685 197.192 143.203 184.336C153.265 167.107 169.047 156.377 175.93 152.278C190.299 143.729 230.949 132.989 236.089 144.157C240.736 154.273 198.628 163.15 198.628 163.15C198.628 163.15 240.068 147.017 243.433 160.213C246.797 173.409 197.28 180.96 197.28 180.96C197.28 180.96 240.232 165.331 241.537 179.492C242.534 190.2 198.102 199.538 198.102 199.538C198.102 199.538 235.114 186.386 236.616 197.346C238.26 209.402 197.795 220.647 197.795 220.647C196.896 249.143 184.808 262.371 175.097 270.745C172.784 272.75 129.547 223.584 129.547 223.584Z" fill="#EB9481"/>
<path d="M228.264 173.519C230.631 172.664 245.12 169.2 244.068 160.63C243.301 154.306 236.024 155.073 233.569 155.084H233.908C234.423 155.084 226.149 154.876 213.643 157.747C208.547 158.92 203.516 160.378 198.551 162.022C193.586 163.666 188.687 165.792 183.942 167.863C183.821 167.863 183.865 168.094 183.942 168.05C188.896 166.417 193.937 165.036 198.891 163.403C203.845 161.77 220.877 156.443 232.966 155.172C235.265 155.125 237.548 155.554 239.673 156.432C240.588 156.829 241.385 157.453 241.989 158.245C242.594 159.038 242.985 159.972 243.126 160.959C243.509 165.518 238.665 168.247 235.256 170.088C232.96 171.369 230.567 172.468 228.1 173.376C228.088 173.384 228.079 173.395 228.073 173.407C228.066 173.42 228.063 173.434 228.063 173.447C228.063 173.461 228.066 173.475 228.073 173.487C228.079 173.5 228.088 173.511 228.1 173.519H227.365C227.292 173.51 227.219 173.51 227.146 173.519C220.691 175.174 214.52 176.609 208.196 178.703C201.872 180.796 195.735 183.405 189.498 185.783C189.4 185.783 189.444 185.969 189.498 185.936C195.746 183.744 202.201 181.98 208.536 180.007C214.871 178.034 220.592 175.755 227.004 173.847C227.166 173.818 227.311 173.728 227.409 173.595C230.153 173.497 232.899 173.737 235.585 174.308C237.974 174.878 240.199 176.303 240.824 178.834C241.493 181.53 239.224 183.646 237.317 185.125C235.275 186.649 233.07 187.939 230.741 188.972C229.294 189.663 227.804 190.277 226.357 190.89C224.91 191.504 222.214 192.721 220.669 193.258C220.559 193.258 220.669 193.367 220.8 193.334C239.739 188.742 242.797 182.374 242.249 178.812C241.295 172.302 231.256 173.332 228.264 173.519Z" fill="#263238"/>
<path d="M191.537 202.223C200.93 198.272 210.708 195.304 220.712 193.367C221.217 193.258 221.041 193.641 220.548 193.784C210.684 196.469 203.22 198.727 191.679 202.552C191.504 202.607 191.34 202.311 191.537 202.223Z" fill="#263238"/>
<path d="M235.782 194.134C232.045 191.011 223.496 192.874 220.756 193.345C220.614 193.345 220.647 193.641 220.756 193.619C223.127 193.256 225.527 193.117 227.924 193.203C229.991 193.197 232.041 193.568 233.974 194.299C234.784 194.622 235.473 195.189 235.947 195.921C236.206 196.409 236.362 196.944 236.408 197.494C236.453 198.044 236.386 198.598 236.21 199.121C235.605 201.066 234.466 202.802 232.922 204.13C223.507 212.799 197.718 220.46 197.653 220.482C197.587 220.504 197.181 227.76 196.787 231.037C196.59 232.626 196.337 234.204 196.042 235.771C195.819 237.43 195.452 239.065 194.946 240.66C194.946 240.758 195.077 240.813 195.11 240.66C195.603 239.049 196.272 237.503 196.754 235.892C197.233 234.286 197.621 232.654 197.916 231.004C198.344 227.646 198.531 224.262 198.475 220.877C243.597 208.93 239.114 196.929 235.782 194.134Z" fill="#263238"/>
<path d="M124.429 218.203L191.449 264.015C191.449 264.015 140.803 403.065 112.537 407.252C99.6045 409.159 92.3051 405.246 87.1211 396.292C81.937 387.337 75.2295 341.283 124.429 218.203Z" fill="#37B44D"/>
<path opacity="0.1" d="M137.066 226.872H121.02C121.097 226.675 121.174 226.466 121.261 226.269H136.178L137.066 226.872ZM148.519 234.697L146.491 233.316H118.532C118.247 234.051 117.973 234.774 117.699 235.508H149.681L148.519 234.697ZM159.106 241.942H114.992V242.545H160.016L159.106 241.942ZM171.239 250.239L170.625 249.811L169.42 248.989H112.691L111.902 251.181H172.609L171.239 250.239ZM182.035 257.615H109.6C109.523 257.812 109.458 258.02 109.392 258.218H182.922L182.035 257.615ZM107.189 264.618C106.937 265.352 106.685 266.087 106.444 266.81H190.419L191.23 264.618H107.189ZM104.317 273.244C104.241 273.452 104.175 273.66 104.109 273.857H187.745C187.832 273.649 187.909 273.441 187.986 273.244H104.317ZM102.049 280.291C101.862 280.872 101.687 281.442 101.501 282.012C101.501 282.165 101.402 282.329 101.347 282.483H184.402L185.268 280.291H102.049ZM99.3853 288.916L99.3195 289.147C99.3195 289.278 99.2428 289.399 99.2099 289.53H181.618C181.695 289.322 181.783 289.114 181.859 288.916H99.3853ZM97.3248 295.92C97.1056 296.654 96.8974 297.389 96.7001 298.112H178.122L179.021 295.92H97.3248ZM94.9246 304.545C94.8588 304.754 94.804 304.962 94.7602 305.159H175.207L175.459 304.545H94.9246ZM93.0723 311.593L92.875 312.371C92.7545 312.853 92.6449 313.313 92.5243 313.785H171.557C171.875 313.05 172.182 312.316 172.489 311.593H93.0723ZM90.968 320.262C90.9132 320.47 90.8694 320.679 90.8255 320.876H168.488C168.576 320.679 168.674 320.47 168.751 320.262H90.968ZM89.4007 327.309C89.2363 328.044 89.0829 328.778 88.9294 329.501H164.663L165.638 327.309H89.4007ZM87.68 335.935C87.68 336.143 87.6033 336.351 87.5594 336.549H161.441C161.539 336.34 161.638 336.143 161.726 335.935H87.68ZM86.4306 342.982C86.31 343.727 86.2004 344.451 86.0908 345.174H157.331C157.692 344.451 158.043 343.716 158.427 342.982H86.4306ZM85.1592 351.608C85.1592 351.816 85.1592 352.013 85.0825 352.221H153.933L154.24 351.608H85.1592ZM84.392 358.655C84.3262 359.4 84.2495 360.135 84.1838 360.847H149.582L150.678 358.655H84.392ZM83.7454 367.28C83.7454 367.489 83.7454 367.686 83.7454 367.883H145.768L146.097 367.28H83.7454ZM83.57 374.328C83.57 375.073 83.57 375.796 83.57 376.52H140.836C141.263 375.796 141.691 375.073 142.107 374.328H83.57ZM83.9317 382.953C83.9317 383.161 83.9317 383.359 83.9317 383.556H136.54L136.923 382.953H83.9317ZM84.9619 390.001C85.1373 390.79 85.3126 391.513 85.499 392.193H130.72V391.984C131.202 391.341 131.684 390.684 132.167 390.011L84.9619 390.001ZM88.6116 398.626C88.7431 398.834 88.8966 399.032 89.039 399.229H124.703L125.262 398.626H88.6116ZM96.5795 405.673C97.4815 406.11 98.4159 406.477 99.3743 406.769C100.095 406.982 100.827 407.158 101.566 407.295C103.692 407.678 105.854 407.814 108.011 407.701C108.212 407.712 108.413 407.712 108.614 407.701C109.863 407.635 111.178 407.504 112.559 407.295C113.416 407.162 114.255 406.931 115.058 406.605C115.694 406.35 116.313 406.053 116.91 405.717L96.5795 405.673ZM85.1483 351.608C85.1483 351.816 85.1483 352.013 85.0715 352.221C84.7866 354.457 84.5418 356.602 84.3372 358.655C84.2714 359.4 84.1947 360.135 84.129 360.847C83.9426 363.116 83.7892 365.231 83.6906 367.28C83.6906 367.489 83.6906 367.686 83.6906 367.883V379.545C83.7454 380.75 83.833 381.89 83.9207 382.953C83.9207 383.161 83.9207 383.359 83.9207 383.556C84.1296 385.72 84.4552 387.871 84.8962 390.001C85.0715 390.79 85.2469 391.513 85.4332 392.193C85.5647 392.631 85.6853 393.047 85.8168 393.431V346.785C85.5757 348.44 85.3565 350.051 85.1483 351.608ZM92.5243 313.829C92.4366 314.168 92.3599 314.508 92.2723 314.848V402.846C92.4695 403.032 92.6668 403.196 92.875 403.361V312.393C92.7545 312.897 92.6449 313.357 92.5243 313.829ZM101.292 282.483C100.627 284.675 99.9735 286.819 99.3305 288.916L99.2647 289.147V406.758C99.9859 406.971 100.718 407.147 101.457 407.284V282.012C101.457 282.165 101.402 282.329 101.347 282.483H101.292ZM107.868 262.415V407.712C108.069 407.723 108.27 407.723 108.471 407.712V260.662C108.34 261.253 108.142 261.834 107.945 262.415H107.868ZM115.201 241.909H114.916V406.616C115.552 406.361 116.17 406.064 116.768 405.728H117.097V236.944C116.527 238.555 115.902 240.243 115.277 241.909H115.201ZM123.618 220.296V400.292L124.221 399.678V219.792H123.848L123.618 220.296ZM130.665 222.488V391.973C131.147 391.33 131.63 390.673 132.112 390.001C132.353 389.661 132.605 389.321 132.846 388.97V223.957L130.665 222.488ZM139.291 228.384V379.084L139.893 378.087V228.779L139.291 228.384ZM146.327 233.196V366.908C147.061 365.571 147.785 364.212 148.519 362.842V234.664L146.491 233.284L146.327 233.196ZM154.952 239.092V350.161C155.15 349.744 155.358 349.328 155.566 348.911V239.487L154.952 239.092ZM162 243.904V335.376C162.73 333.783 163.461 332.19 164.192 330.597V245.383L162 243.904ZM170.625 249.8V316.01L171.239 314.596V250.206L170.625 249.8ZM177.673 254.623V299.208C177.826 298.835 177.968 298.474 178.122 298.112L179.021 295.92C179.306 295.218 179.58 294.528 179.865 293.848V256.091L177.673 254.623ZM186.298 277.639L186.912 276.038V260.914L186.298 260.497V277.639Z" fill="black"/>
<path d="M192.786 264.136C192.786 264.191 191.625 266.953 191.099 268.279C186.901 279.053 182.331 289.673 177.705 300.271C173.08 310.869 168.433 321.391 163.589 331.869C158.745 342.346 153.835 352.791 148.782 363.17C144.65 371.643 140.354 380.06 134.907 387.776C132.236 391.558 129.224 395.087 125.908 398.319C122.563 401.454 118.888 404.217 114.948 406.561C114.928 406.573 114.904 406.576 114.881 406.57C114.859 406.563 114.84 406.549 114.828 406.528C114.816 406.508 114.813 406.484 114.819 406.461C114.826 406.439 114.84 406.419 114.861 406.408C115.873 405.795 116.85 405.125 117.787 404.402C124.856 398.512 130.881 391.472 135.608 383.578C140.554 375.31 145.043 366.778 149.056 358.019C154.039 347.673 158.909 337.268 163.666 326.805C168.422 316.349 173.157 305.883 177.738 295.361C182.32 284.839 186.726 274.416 191.263 263.972C191.055 263.851 187.69 261.527 186.879 260.925C186.813 260.925 186.879 260.738 186.945 260.771C187.909 261.034 192.896 263.84 192.786 264.136ZM182.922 273.901C179.196 271.03 175.25 268.421 171.382 265.747C167.513 263.073 163.49 260.442 159.523 257.834C151.654 252.672 143.861 247.4 135.981 242.249C133.789 240.802 131.531 239.388 129.295 237.985C127.059 236.583 124.703 235.18 122.511 233.601C122.491 233.588 122.466 233.584 122.442 233.589C122.419 233.594 122.398 233.608 122.385 233.629C122.372 233.649 122.367 233.674 122.372 233.697C122.378 233.721 122.392 233.742 122.412 233.755C126.292 236.429 129.898 239.498 133.723 242.26C137.548 245.022 141.395 247.827 145.362 250.502C153.155 255.784 160.948 261.067 168.916 266.087C173.431 268.947 177.958 271.775 182.692 274.241C182.741 274.26 182.794 274.26 182.843 274.243C182.892 274.226 182.933 274.192 182.959 274.147C182.986 274.103 182.995 274.05 182.987 273.999C182.978 273.948 182.951 273.902 182.911 273.868L182.922 273.901Z" fill="#263238"/>
<path d="M372.366 434.904L405.432 415.373L447.442 429.435L412.951 450.401L372.366 434.904Z" fill="white"/>
<path d="M411.636 444.976C413.663 443.474 415.768 442.072 417.872 440.691C419.976 439.31 422.113 437.984 424.251 436.668C426.388 435.353 428.569 434.071 430.827 432.854L434.115 431.024C435.211 430.443 436.307 429.84 437.479 429.292C436.46 430.048 435.419 430.75 434.389 431.484L431.243 433.578C429.139 434.97 427.002 436.296 424.853 437.611C422.705 438.926 420.535 440.197 418.332 441.425C416.129 442.652 413.904 443.88 411.636 444.976Z" fill="#DBDBDB"/>
<path d="M417.094 437.03C419.439 435.149 421.911 433.431 424.492 431.89C427.047 430.308 429.71 428.905 432.46 427.692C430.114 429.573 427.643 431.29 425.062 432.832C422.503 434.408 419.841 435.81 417.094 437.03Z" fill="#DBDBDB"/>
<path d="M401.673 441.787C403.701 440.285 405.805 438.893 407.909 437.512C410.014 436.131 412.151 434.794 414.288 433.479C416.425 432.164 418.606 430.881 420.809 429.665L424.097 427.834C425.193 427.254 426.289 426.651 427.462 426.103C426.454 426.859 425.401 427.56 424.371 428.295L421.226 430.388C419.121 431.78 416.984 433.095 414.836 434.41C412.688 435.726 410.518 437.008 408.315 438.225C406.112 439.441 403.942 440.68 401.673 441.787Z" fill="#DBDBDB"/>
<path d="M400.402 437.951C403.854 435.342 407.493 433.019 411.164 430.761C414.836 428.503 418.595 426.377 422.497 424.514C419.045 427.122 415.406 429.446 411.734 431.703C408.063 433.961 404.303 436.076 400.402 437.951Z" fill="#DBDBDB"/>
<path d="M404.72 430.728C408.59 427.531 412.902 424.91 417.521 422.946C415.61 424.577 413.564 426.044 411.406 427.33C409.275 428.646 407.039 429.783 404.72 430.728Z" fill="#DBDBDB"/>
<path d="M316.612 453.295L368.859 432.887L419.264 463.279L367.292 484.41L316.612 453.295Z" fill="white"/>
<path d="M366.557 478.218C369.955 476.596 373.407 475.083 376.86 473.582C380.312 472.08 383.797 470.633 387.272 469.198C390.746 467.762 394.264 466.381 397.782 465.055L403.076 463.071C404.851 462.446 406.616 461.789 408.413 461.197C406.715 462.019 404.983 462.775 403.273 463.575L398.1 465.844C394.648 467.345 391.173 468.781 387.688 470.228C384.203 471.675 380.696 473.045 377.177 474.371C373.659 475.697 370.13 477.012 366.557 478.218Z" fill="#DBDBDB"/>
<path d="M379.939 467.4C383.666 465.427 387.513 463.75 391.393 462.15C395.272 460.55 399.207 459.103 403.262 457.92C399.535 459.861 395.712 461.613 391.809 463.17C387.918 464.704 383.995 466.216 379.939 467.4Z" fill="#DBDBDB"/>
<path d="M361.406 469.559C364.376 468.112 367.401 466.764 370.426 465.438C373.451 464.112 376.498 462.852 379.556 461.591C382.614 460.331 385.682 459.125 388.773 457.974L393.42 456.254C394.987 455.717 396.533 455.158 398.111 454.643C396.631 455.377 395.119 456.045 393.628 456.747L389.08 458.764C386.055 460.09 383.008 461.35 379.95 462.611C376.893 463.871 373.824 465.066 370.733 466.216C367.642 467.367 364.552 468.529 361.406 469.559Z" fill="#DBDBDB"/>
<path d="M358.973 465.175C361.724 463.816 364.508 462.567 367.313 461.328C370.119 460.09 372.936 458.917 375.764 457.755C378.591 456.594 381.441 455.476 384.301 454.413L388.609 452.834C390.066 452.341 391.502 451.815 392.993 451.355C391.623 452.045 390.231 452.67 388.85 453.328L384.652 455.202C381.857 456.44 379.03 457.613 376.202 458.775C373.374 459.936 370.536 461.043 367.664 462.063C364.793 463.082 361.888 464.233 358.973 465.175Z" fill="#DBDBDB"/>
<path d="M345.952 465.088C349.361 463.455 352.813 461.942 356.266 460.441C359.718 458.939 363.192 457.503 366.678 456.057C370.163 454.61 373.659 453.251 377.188 451.925L382.482 449.941C384.258 449.316 386.022 448.648 387.809 448.056C386.11 448.878 384.389 449.645 382.679 450.434L377.506 452.703C374.054 454.215 370.58 455.64 367.094 457.087C363.609 458.534 360.102 459.893 356.584 461.219C353.065 462.545 349.536 463.882 345.952 465.088Z" fill="#DBDBDB"/>
<path d="M345.525 459.882C348.539 458.413 351.586 457.065 354.655 455.717C357.723 454.369 360.803 453.097 363.894 451.826C366.985 450.555 370.086 449.338 373.221 448.165L377.923 446.423C379.501 445.875 381.068 445.327 382.668 444.79C381.167 445.535 379.632 446.204 378.12 446.927L373.539 448.954C370.481 450.303 367.39 451.574 364.299 452.845C361.209 454.117 358.096 455.333 354.973 456.495C351.849 457.657 348.703 458.84 345.525 459.882Z" fill="#DBDBDB"/>
<path d="M335.661 458.522C339.059 456.889 342.511 455.377 345.963 453.875C349.416 452.374 352.901 450.938 356.386 449.491C359.872 448.045 363.368 446.675 366.897 445.36L372.18 443.365C373.955 442.74 375.72 442.083 377.517 441.491C375.818 442.313 374.098 443.069 372.388 443.869L367.215 446.138C363.762 447.65 360.277 449.075 356.792 450.522C353.307 451.968 349.81 453.327 346.281 454.654C342.752 455.98 339.234 457.306 335.661 458.522Z" fill="#DBDBDB"/>
<path d="M347.629 448.264C351.586 446.192 355.674 444.417 359.795 442.729C363.916 441.041 368.081 439.441 372.366 438.203C368.409 440.285 364.321 442.05 360.2 443.737C356.079 445.425 351.915 446.993 347.629 448.264Z" fill="#DBDBDB"/>
<path d="M141.428 437.425L295.164 417.291L359.609 463.235L207.933 493.09L141.428 437.425Z" fill="#455A64"/>
<path d="M150.744 437.94L211.605 489.057L353.745 461.175L291.404 417.094C291.404 417.094 249.91 417.236 247.937 417.587C245.964 417.938 227.014 423.067 227.014 423.067C227.014 423.067 201.204 424.229 199.417 424.59C197.631 424.952 150.744 437.94 150.744 437.94Z" fill="white"/>
<path d="M227.014 423.1L234.434 429.391L241.81 435.737L256.453 448.538L270.975 461.482L278.187 468.003L285.355 474.59L277.924 468.31L270.559 461.953L255.916 449.152L241.394 436.208L234.171 429.687L227.014 423.1Z" fill="#DBDBDB"/>
<path d="M235.695 455.793C237.492 455.454 239.301 455.202 241.109 454.96C242.917 454.719 244.737 454.522 246.589 454.336C248.441 454.149 250.228 454.007 252.069 453.908C253.91 453.81 255.719 453.711 257.549 453.7C255.752 454.051 253.943 454.303 252.135 454.544C250.326 454.785 248.518 454.971 246.655 455.158C244.792 455.344 243.027 455.487 241.175 455.585C239.323 455.684 237.547 455.782 235.695 455.793Z" fill="#DBDBDB"/>
<path d="M203.012 469.647C207.78 468.091 212.569 466.611 217.359 465.153C222.148 463.696 226.982 462.304 231.793 460.901C234.204 460.188 236.615 459.542 239.06 458.917C239.685 458.757 240.323 458.654 240.967 458.61L242.841 458.413L246.6 458.128C251.598 457.733 256.596 457.35 261.604 457.087C256.628 457.722 251.642 458.248 246.666 458.807L242.928 459.202C241.694 459.287 240.467 459.459 239.257 459.717C236.846 460.342 234.445 461.065 232.023 461.723L217.545 465.778C212.701 467.071 207.867 468.397 203.012 469.647Z" fill="#DBDBDB"/>
<path d="M207.265 473.297C211.89 471.74 216.526 470.25 221.184 468.792C225.842 467.334 230.511 465.942 235.18 464.54C237.51 463.809 239.856 463.14 242.216 462.534C242.808 462.37 243.389 462.205 244.024 462.074C244.66 461.942 245.252 461.92 245.866 461.854L249.504 461.504C254.371 461.109 259.226 460.747 264.103 460.506C259.259 461.142 254.414 461.657 249.57 462.205L245.942 462.589C245.34 462.665 244.726 462.72 244.156 462.83C243.586 462.939 243.005 463.126 242.424 463.279L235.399 465.296C230.708 466.633 226.05 468.047 221.348 469.362C216.646 470.677 211.977 472.025 207.265 473.297Z" fill="#DBDBDB"/>
<path d="M211.528 476.409C216.219 475.028 220.921 473.724 225.634 472.453C230.346 471.181 235.081 469.965 239.805 468.737C242.183 468.134 244.518 467.521 246.973 467.038L254.217 465.942C259.062 465.285 263.895 464.616 268.75 464.068C263.961 465 259.138 465.811 254.327 466.633L247.093 467.729C244.759 468.2 242.369 468.825 240.002 469.417C235.256 470.568 230.533 471.806 225.754 472.935C220.976 474.064 216.318 475.324 211.528 476.409Z" fill="#DBDBDB"/>
<path d="M281.157 462.874C285.541 461.412 289.965 460.079 294.429 458.873C295.525 458.577 296.621 458.27 297.794 458.007C298.364 457.876 298.89 457.744 299.526 457.657L301.247 457.426L308.108 456.506C312.689 455.881 317.27 455.333 321.851 454.752C326.433 454.171 331.014 453.656 335.606 453.108C331.047 453.839 326.484 454.544 321.917 455.224C317.347 455.892 312.776 456.594 308.206 457.229L301.345 458.183L299.635 458.435C299.098 458.523 298.539 458.665 297.98 458.796L294.627 459.618C290.155 460.758 285.683 461.887 281.157 462.874Z" fill="#DBDBDB"/>
<path d="M277.124 458.797C281.442 457.591 285.786 456.517 290.155 455.574C292.347 455.092 294.539 454.577 296.731 454.281L303.373 453.349C307.757 452.714 312.228 452.155 316.656 451.563C321.084 450.971 325.523 450.467 329.962 449.886C325.578 450.631 321.139 451.366 316.722 452.078C312.305 452.79 307.888 453.47 303.471 454.106L296.841 455.092C295.745 455.235 294.649 455.476 293.553 455.695L290.265 456.341C285.935 457.218 281.54 458.062 277.124 458.797Z" fill="#DBDBDB"/>
<path d="M273.2 455.114C277.496 453.952 281.803 452.922 286.144 451.958C288.336 451.497 290.462 450.982 292.72 450.631L299.296 449.886C303.68 449.382 308.129 448.944 312.535 448.483C316.941 448.023 321.369 447.617 325.797 447.223C321.413 447.837 317.029 448.421 312.645 448.976C308.261 449.535 303.877 450.072 299.438 450.609C297.246 450.873 295.054 451.114 292.862 451.41L286.297 452.648C281.95 453.569 277.584 454.391 273.2 455.114Z" fill="#DBDBDB"/>
<path d="M269.802 452.33C273.978 450.73 278.231 449.393 282.549 448.187C283.086 448.045 283.645 447.902 284.182 447.793C284.741 447.67 285.309 447.59 285.881 447.552L289.223 447.256L295.887 446.697C304.787 446.006 313.686 445.349 322.597 444.812C313.719 445.754 304.83 446.576 295.953 447.398L289.289 448.001L286.001 448.319C284.913 448.443 283.839 448.663 282.79 448.976C278.439 450.083 274.164 451.344 269.802 452.33Z" fill="#DBDBDB"/>
<path d="M266.109 448.998C270.285 447.387 274.537 446.061 278.855 444.855C279.392 444.702 279.951 444.57 280.488 444.45C281.048 444.327 281.616 444.247 282.187 444.209L285.475 443.913L292.139 443.365C301.038 442.663 309.938 442.006 318.848 441.469C309.971 442.411 301.082 443.244 292.205 444.066L285.541 444.669L282.253 444.976C281.165 445.1 280.091 445.32 279.042 445.634C274.745 446.752 270.471 448.001 266.109 448.998Z" fill="#DBDBDB"/>
<path d="M262.415 445.656C266.591 444.055 270.844 442.718 275.151 441.513C275.699 441.37 276.247 441.228 276.795 441.118C277.354 440.996 277.922 440.915 278.494 440.877L281.782 440.581L288.445 440.022C297.345 439.332 306.244 438.674 315.155 438.137C306.277 439.069 297.389 439.902 288.511 440.724L281.847 441.326L278.559 441.644C277.472 441.768 276.397 441.988 275.348 442.302C271.052 443.409 266.777 444.669 262.415 445.656Z" fill="#DBDBDB"/>
<path d="M258.722 442.324C262.898 440.712 267.15 439.386 271.457 438.181C272.005 438.027 272.553 437.896 273.101 437.775C273.661 437.653 274.229 437.572 274.8 437.534L278.143 437.238L284.807 436.69C293.706 435.989 302.606 435.331 311.516 434.794C302.638 435.737 293.75 436.57 284.872 437.392L278.209 437.994L274.921 438.312C273.832 438.427 272.757 438.644 271.709 438.959C267.358 440.077 263.04 441.326 258.722 442.324Z" fill="#DBDBDB"/>
<path d="M253.779 439.386C257.955 437.786 262.207 436.449 266.525 435.243C267.062 435.09 267.621 434.959 268.158 434.849C268.721 434.722 269.293 434.638 269.868 434.597L273.156 434.312L279.831 433.753C288.719 433.062 297.619 432.405 306.529 431.868C297.652 432.799 288.774 433.632 279.886 434.454L273.222 435.057L269.934 435.375C268.845 435.492 267.77 435.712 266.723 436.033C262.426 437.14 258.141 438.4 253.779 439.386Z" fill="#DBDBDB"/>
<path d="M248.978 436.493C253.154 434.893 257.406 433.556 261.725 432.35C262.262 432.208 262.821 432.065 263.358 431.955C263.921 431.832 264.492 431.752 265.068 431.714L268.356 431.418L275.03 430.859C283.919 430.169 292.818 429.511 301.729 428.974C292.851 429.906 283.974 430.739 275.085 431.561L268.421 432.164L265.133 432.482C264.042 432.605 262.963 432.825 261.911 433.139C257.626 434.246 253.34 435.507 248.978 436.493Z" fill="#DBDBDB"/>
<path d="M245.285 433.161C249.45 431.561 253.702 430.224 258.009 429.018C258.546 428.876 259.105 428.733 259.642 428.624C260.204 428.495 260.776 428.414 261.352 428.382L264.64 428.141L271.304 427.703C280.203 427.166 289.092 426.673 298.002 426.311C289.125 427.078 280.236 427.736 271.359 428.404L264.695 428.887L261.407 429.15C260.322 429.269 259.251 429.489 258.207 429.807C253.91 430.914 249.636 432.164 245.285 433.161Z" fill="#DBDBDB"/>
<path d="M241.591 429.818C245.756 428.218 249.998 426.892 254.294 425.686C254.831 425.544 255.39 425.401 255.927 425.292C256.489 425.162 257.061 425.082 257.637 425.051L260.925 424.875L267.588 424.557C276.477 424.207 285.365 423.911 294.265 423.724C285.387 424.305 276.499 424.82 267.621 425.27L260.969 425.621L257.681 425.829C256.598 425.933 255.529 426.15 254.491 426.475C250.206 427.582 245.931 428.832 241.591 429.818Z" fill="#DBDBDB"/>
<path d="M237.898 426.486C242.052 424.886 246.282 423.56 250.567 422.366C251.115 422.212 251.663 422.07 252.201 421.96C252.764 421.823 253.341 421.746 253.921 421.73L257.209 421.642L263.873 421.555C268.257 421.5 272.751 421.555 277.189 421.555C281.628 421.555 286.056 421.554 290.495 421.675C281.628 421.938 272.751 422.113 263.884 422.3L257.231 422.442L253.943 422.552C252.864 422.649 251.798 422.862 250.765 423.188C246.49 424.251 242.216 425.5 237.898 426.486Z" fill="#DBDBDB"/>
<path d="M215.759 480.925C220.526 479.664 225.316 478.481 230.116 477.319C234.917 476.157 239.728 475.061 244.539 473.954C246.951 473.395 249.34 472.858 251.795 472.398L259.105 471.181C263.972 470.414 268.849 469.647 273.748 468.989C268.915 470.009 264.059 470.929 259.204 471.839L251.916 473.154C249.537 473.625 247.115 474.25 244.715 474.732L230.248 477.911C225.425 478.952 220.603 479.971 215.759 480.925Z" fill="#DBDBDB"/>
<path d="M284.061 466.742C288.873 465.581 293.706 464.496 298.55 463.454C303.395 462.413 308.239 461.394 313.083 460.386C315.516 459.882 317.928 459.41 320.405 458.983L327.748 457.887C332.658 457.218 337.612 456.55 342.489 455.991C337.623 456.922 332.735 457.733 327.846 458.544L320.503 459.706C318.103 460.134 315.67 460.682 313.248 461.142L298.671 464.013C293.805 464.967 288.938 465.899 284.061 466.742Z" fill="#DBDBDB"/>
<path d="M319.922 400.884H164.499V407.854H319.922V400.884Z" fill="#455A64"/>
<path d="M319.933 400.884H241.701V407.854H319.933V400.884Z" fill="#37474F"/>
<path d="M250.118 407.843H401.585L421.39 304.973H269.923L250.118 407.843Z" fill="#455A64"/>
<path d="M326.531 356.408C326.404 357.582 326.527 358.77 326.894 359.892C327.261 361.014 327.862 362.046 328.658 362.918C329.455 363.79 330.427 364.482 331.512 364.949C332.596 365.416 333.768 365.646 334.949 365.625C337.458 365.582 339.865 364.62 341.713 362.921C343.561 361.223 344.723 358.905 344.977 356.408C345.105 355.234 344.981 354.047 344.614 352.924C344.248 351.802 343.646 350.771 342.85 349.899C342.054 349.027 341.081 348.334 339.996 347.867C338.912 347.4 337.74 347.17 336.56 347.191C334.051 347.237 331.645 348.199 329.798 349.898C327.95 351.596 326.788 353.912 326.531 356.408Z" fill="#A6A6A6"/>
<path d="M408.698 370.908L401.585 407.843H284.127L408.698 370.908Z" fill="#37474F"/>
<path d="M439.748 294.824C458.139 312.831 461.23 340.67 457.35 365.067C457.251 365.615 456.396 365.461 456.396 364.946C456.396 359.389 456.561 353.887 456.55 348.407C456.44 348.155 456.363 347.914 456.254 347.662C451.464 344.177 447.047 340.231 444.318 334.839C441.25 328.8 440.044 321.983 437.742 315.681C437.523 315.078 438.17 315.253 438.597 315.56C449.776 323.813 453.338 332.691 456.55 344.549C456.482 338.346 455.828 332.163 454.599 326.082C452.188 314.826 447.409 303.669 439.321 295.317C438.97 295.01 439.43 294.517 439.748 294.824Z" fill="#263238"/>
<path d="M436.296 296.939C433.139 297.049 431.155 302.101 428.689 303.57C428.431 303.782 428.131 303.938 427.809 304.026C427.486 304.114 427.149 304.133 426.818 304.081C426.488 304.029 426.172 303.908 425.892 303.726C425.612 303.543 425.374 303.303 425.193 303.022C422.76 299.613 426.103 295.35 429.259 293.059C427.002 293.98 425.138 295.613 422.683 296.073C422.372 296.176 422.043 296.21 421.717 296.174C421.392 296.137 421.078 296.031 420.797 295.863C420.517 295.694 420.275 295.467 420.09 295.197C419.905 294.927 419.78 294.62 419.724 294.298C418.628 289.651 424.481 287.59 428.492 287.492C426.552 286.144 420.996 282.472 423.955 280.674C426.914 278.877 433.468 284.105 435.594 285.837C438.718 288.368 442.444 292.161 442.587 296.128C442.784 300.753 438.729 297.904 436.296 296.939Z" fill="#37B44D"/>
<path opacity="0.1" d="M436.296 296.939C433.139 297.049 431.155 302.101 428.689 303.57C428.431 303.782 428.131 303.938 427.809 304.026C427.486 304.114 427.149 304.133 426.818 304.081C426.488 304.029 426.172 303.908 425.892 303.726C425.612 303.543 425.374 303.303 425.193 303.022C422.76 299.613 426.103 295.35 429.259 293.059C427.002 293.98 425.138 295.613 422.683 296.073C422.372 296.176 422.043 296.21 421.717 296.174C421.392 296.137 421.078 296.031 420.797 295.863C420.517 295.694 420.275 295.467 420.09 295.197C419.905 294.927 419.78 294.62 419.724 294.298C418.628 289.651 424.481 287.59 428.492 287.492C426.552 286.144 420.996 282.472 423.955 280.674C426.914 278.877 433.468 284.105 435.594 285.837C438.718 288.368 442.444 292.161 442.587 296.128C442.784 300.753 438.729 297.904 436.296 296.939Z" fill="black"/>
<path d="M437.216 297.717C433.172 295.876 425.401 298.528 424.744 296.994C423.407 293.881 429.61 291.744 432.964 291.328C429.873 290.495 423.966 289.136 424.141 286.188C424.36 282.549 433.216 285.672 437.688 289.114C443.332 293.432 443.299 297.608 442.368 298.441C441.085 299.592 437.885 298.024 437.216 297.717Z" fill="#37B44D"/>
<path d="M481.626 293.059C462.567 310.343 458.424 338.05 461.372 362.568C461.449 363.127 462.304 363.006 462.326 362.491C462.534 356.945 462.578 351.432 462.808 345.952C462.918 345.711 463.005 345.481 463.115 345.229C468.047 341.941 472.606 338.16 475.544 332.855C478.832 326.948 480.3 320.185 482.887 313.971C483.128 313.379 482.481 313.533 482.054 313.818C470.557 321.643 466.71 330.378 463.005 342.105C463.305 335.909 464.19 329.755 465.647 323.725C468.496 312.568 473.691 301.597 482.087 293.564C482.404 293.257 481.955 292.753 481.626 293.059Z" fill="#263238"/>
<path d="M484.991 295.284C488.147 295.514 489.945 300.644 492.345 302.211C492.595 302.432 492.889 302.597 493.207 302.697C493.525 302.796 493.861 302.827 494.192 302.788C494.523 302.749 494.842 302.64 495.128 302.469C495.414 302.297 495.661 302.068 495.852 301.794C498.428 298.506 495.239 294.122 492.181 291.678C494.373 292.687 496.203 294.386 498.614 294.966C498.922 295.079 499.249 295.124 499.576 295.099C499.902 295.074 500.219 294.979 500.506 294.821C500.792 294.664 501.042 294.446 501.237 294.184C501.433 293.921 501.57 293.62 501.639 293.3C502.878 288.697 497.135 286.418 493.145 286.166C495.129 284.894 500.817 281.442 497.946 279.524C495.074 277.606 488.301 282.593 486.109 284.237C482.898 286.648 479.029 290.297 478.733 294.254C478.371 298.857 482.525 296.161 484.991 295.284Z" fill="#37B44D"/>
<path opacity="0.1" d="M484.991 295.284C488.147 295.514 489.945 300.644 492.345 302.211C492.595 302.432 492.889 302.597 493.207 302.697C493.525 302.796 493.861 302.827 494.192 302.788C494.523 302.749 494.842 302.64 495.128 302.469C495.414 302.297 495.661 302.068 495.852 301.794C498.428 298.506 495.239 294.122 492.181 291.678C494.373 292.687 496.203 294.386 498.614 294.966C498.922 295.079 499.249 295.124 499.576 295.099C499.902 295.074 500.219 294.979 500.506 294.821C500.792 294.664 501.042 294.446 501.237 294.184C501.433 293.921 501.57 293.62 501.639 293.3C502.878 288.697 497.135 286.418 493.145 286.166C495.129 284.894 500.817 281.442 497.946 279.524C495.074 277.606 488.301 282.593 486.109 284.237C482.898 286.648 479.029 290.297 478.733 294.254C478.371 298.857 482.525 296.161 484.991 295.284Z" fill="black"/>
<path d="M484.048 296.029C488.158 294.342 495.819 297.29 496.543 295.777C498.001 292.72 491.874 290.352 488.542 289.804C491.666 289.092 497.617 287.985 497.551 285.004C497.463 281.365 488.509 284.149 483.906 287.404C478.097 291.514 477.977 295.69 478.875 296.555C480.114 297.75 483.336 296.303 484.048 296.029Z" fill="#37B44D"/>
<path d="M462.139 338.664C460.846 347.909 458.868 357.046 456.221 365.998C456.186 366.176 456.082 366.332 455.932 366.432C455.782 366.533 455.598 366.57 455.421 366.535C455.244 366.5 455.087 366.397 454.987 366.246C454.886 366.096 454.849 365.913 454.884 365.735C456.144 357.307 458.424 349.043 459.673 340.615C461.04 332.095 461.529 323.457 461.131 314.837C460.331 300.644 456.484 285.541 447.223 274.438C447.015 274.175 447.442 273.803 447.661 274.044C466.195 295.668 463.246 322.18 463.235 324.548C465.855 315.604 468.562 305.346 478.492 296.227C478.919 295.832 479.259 296.019 479.182 296.687C477.407 313.292 472.792 321.961 463.17 330.828C462.899 333.502 462.556 336.114 462.139 338.664Z" fill="#263238"/>
<path d="M447.047 276.97C443.759 275.491 439.112 279.732 435.813 280.028C434.071 280.181 432.778 279.491 432.471 277.693C431.649 272.926 437.238 270.252 441.699 269.397C438.893 269.221 436.131 269.978 433.38 269.232C433.01 269.181 432.656 269.052 432.339 268.854C432.023 268.655 431.752 268.392 431.545 268.081C431.338 267.77 431.199 267.419 431.138 267.051C431.076 266.683 431.093 266.305 431.188 265.944C432.416 260.585 439.507 261.374 443.705 263.292C442.378 260.914 438.455 254.316 442.422 253.932C446.39 253.549 450.566 262.273 451.903 265.144C453.876 269.342 455.837 275.151 453.985 279.392C451.848 284.193 449.086 279.206 447.047 276.97Z" fill="#37B44D"/>
<path opacity="0.1" d="M447.047 276.97C443.759 275.491 439.112 279.732 435.813 280.028C434.071 280.181 432.778 279.491 432.471 277.693C431.649 272.926 437.238 270.252 441.699 269.397C438.893 269.221 436.131 269.978 433.38 269.232C433.01 269.181 432.656 269.052 432.339 268.854C432.023 268.655 431.752 268.392 431.545 268.081C431.338 267.77 431.199 267.419 431.138 267.051C431.076 266.683 431.093 266.305 431.188 265.944C432.416 260.585 439.507 261.374 443.705 263.292C442.378 260.914 438.455 254.316 442.422 253.932C446.39 253.549 450.566 262.273 451.903 265.144C453.876 269.342 455.837 275.151 453.985 279.392C451.848 284.193 449.086 279.206 447.047 276.97Z" fill="black"/>
<path d="M447.606 278.241C444.318 274.296 434.948 273.134 435.035 271.205C435.211 267.303 442.707 268.213 446.412 269.473C443.628 267.051 438.17 262.689 439.836 259.697C441.896 256.036 449.502 263.73 452.429 269.561C456.1 276.882 453.963 281.201 452.571 281.617C450.675 282.132 448.143 278.888 447.606 278.241Z" fill="#37B44D"/>
<path d="M474.338 343.706L482.514 406.178H432.745C433.775 400.643 443.036 343.629 443.036 343.629L474.338 343.706Z" fill="#37B44D"/>
<path d="M107.835 449.382H80.282V453.678H107.835V449.382Z" fill="#455A64"/>
<path d="M107.835 449.382H80.282V452.221H107.835V449.382Z" fill="#263238"/>
<path d="M140.551 437.819C138.869 440.287 136.512 442.219 133.763 443.385C131.013 444.551 127.986 444.901 125.043 444.395C124.088 444.218 123.152 443.95 122.248 443.595C120.873 443.064 119.563 442.377 118.346 441.546L121.853 436.351C122.5 436.811 123.19 437.207 123.914 437.534C130.49 440.504 134.633 435.342 135.455 434.148C139.225 428.843 140.584 416.71 136.748 412.052C136.496 411.702 135.4 411.154 130.95 412.107C130.139 412.282 129.207 412.491 128.155 412.787C127.339 413.064 126.493 413.244 125.635 413.324L125.525 410.211L125.218 407.098C125.503 407.044 125.952 406.923 126.533 406.759C128.585 406.158 130.681 405.722 132.802 405.454C136.09 405.115 139.488 405.509 141.57 408.085C147.807 415.757 145.286 431.156 140.551 437.819Z" fill="#455A64"/>
<path d="M121.853 436.405C122.5 436.865 123.19 437.262 123.914 437.589L122.248 443.65C120.873 443.119 119.563 442.432 118.346 441.6L121.853 436.405Z" fill="#263238"/>
<path d="M132.802 405.52L130.95 412.173C130.139 412.348 129.207 412.556 128.155 412.852C127.339 413.13 126.493 413.31 125.634 413.389L125.525 410.277L125.218 407.164C125.503 407.109 125.952 406.989 126.533 406.824C128.585 406.224 130.681 405.788 132.802 405.52Z" fill="#263238"/>
<path d="M57.4085 397.388C57.4085 397.388 60.6965 425.467 66.4286 437.293C72.1607 449.119 80.1067 450.445 85.0606 450.445H103.079C108.022 450.445 116.001 449.119 121.711 437.293C127.421 425.467 130.72 397.388 130.72 397.388H57.4085Z" fill="#455A64"/>
<path d="M61.0253 414.014C61.0231 413.662 61.1254 413.318 61.3192 413.025C61.513 412.731 61.7895 412.502 62.1137 412.366C62.438 412.23 62.7953 412.193 63.1404 412.26C63.4856 412.328 63.803 412.496 64.0524 412.744C64.3018 412.992 64.472 413.308 64.5414 413.653C64.6108 413.997 64.5763 414.355 64.4422 414.68C64.3082 415.005 64.0806 415.283 63.7884 415.479C63.4962 415.674 63.1525 415.779 62.8008 415.779C62.3318 415.779 61.8819 415.593 61.5492 415.262C61.2165 414.932 61.0282 414.483 61.0253 414.014ZM61.3541 414.014C61.3541 414.3 61.439 414.58 61.5979 414.818C61.7569 415.056 61.9828 415.241 62.2472 415.351C62.5115 415.46 62.8024 415.489 63.0831 415.433C63.3637 415.377 63.6215 415.239 63.8238 415.037C64.0261 414.835 64.1639 414.577 64.2197 414.296C64.2756 414.016 64.2469 413.725 64.1374 413.46C64.0279 413.196 63.8425 412.97 63.6046 412.811C63.3667 412.652 63.087 412.567 62.8008 412.567C62.4209 412.573 62.0586 412.728 61.792 412.999C61.5254 413.269 61.376 413.634 61.376 414.014H61.3541ZM113.272 404.939C113.272 404.59 113.375 404.249 113.569 403.959C113.763 403.669 114.038 403.442 114.361 403.309C114.683 403.175 115.038 403.14 115.38 403.209C115.723 403.277 116.037 403.445 116.284 403.691C116.531 403.938 116.699 404.253 116.767 404.595C116.835 404.937 116.8 405.292 116.666 405.614C116.533 405.937 116.307 406.212 116.016 406.406C115.726 406.6 115.385 406.704 115.036 406.704C114.568 406.704 114.119 406.518 113.788 406.187C113.458 405.856 113.272 405.407 113.272 404.939ZM113.6 404.939C113.6 405.226 113.686 405.506 113.845 405.744C114.004 405.982 114.231 406.168 114.496 406.277C114.761 406.386 115.052 406.414 115.333 406.357C115.614 406.301 115.872 406.162 116.074 405.958C116.276 405.755 116.413 405.496 116.467 405.215C116.522 404.933 116.492 404.642 116.381 404.378C116.269 404.114 116.082 403.889 115.843 403.731C115.604 403.573 115.323 403.49 115.036 403.492C114.847 403.492 114.659 403.53 114.484 403.603C114.309 403.676 114.15 403.782 114.017 403.917C113.884 404.051 113.778 404.211 113.707 404.386C113.635 404.562 113.599 404.75 113.6 404.939ZM110.696 430.816C110.694 430.464 110.796 430.119 110.991 429.825C111.185 429.532 111.462 429.302 111.787 429.167C112.112 429.031 112.47 428.995 112.815 429.063C113.161 429.131 113.478 429.3 113.727 429.549C113.976 429.798 114.145 430.116 114.213 430.461C114.282 430.807 114.245 431.164 114.11 431.489C113.974 431.814 113.745 432.091 113.451 432.286C113.157 432.48 112.813 432.582 112.461 432.58C111.993 432.577 111.546 432.391 111.216 432.06C110.886 431.73 110.699 431.283 110.696 430.816ZM111.025 430.816C111.025 431.102 111.11 431.382 111.269 431.621C111.429 431.859 111.655 432.044 111.92 432.153C112.185 432.262 112.477 432.29 112.758 432.234C113.039 432.177 113.297 432.038 113.498 431.835C113.7 431.631 113.837 431.373 113.892 431.091C113.946 430.81 113.916 430.519 113.805 430.254C113.694 429.99 113.507 429.765 113.267 429.607C113.028 429.45 112.747 429.367 112.461 429.369C112.269 429.366 112.078 429.401 111.9 429.473C111.722 429.544 111.56 429.65 111.423 429.785C111.287 429.92 111.178 430.08 111.104 430.257C111.03 430.434 110.992 430.624 110.992 430.816H111.025ZM125.086 400.314C125.084 399.962 125.187 399.618 125.38 399.325C125.574 399.031 125.851 398.802 126.175 398.666C126.499 398.53 126.856 398.493 127.202 398.56C127.547 398.628 127.864 398.796 128.114 399.044C128.363 399.292 128.533 399.608 128.603 399.953C128.672 400.297 128.637 400.655 128.503 400.98C128.369 401.305 128.142 401.583 127.85 401.779C127.557 401.974 127.214 402.079 126.862 402.079C126.627 402.083 126.393 402.041 126.175 401.954C125.956 401.867 125.757 401.738 125.589 401.574C125.421 401.41 125.287 401.214 125.195 400.998C125.103 400.781 125.055 400.549 125.054 400.314H125.086ZM125.415 400.314C125.415 400.6 125.5 400.88 125.659 401.118C125.818 401.356 126.044 401.541 126.308 401.651C126.573 401.76 126.864 401.789 127.144 401.733C127.425 401.677 127.683 401.539 127.885 401.337C128.087 401.135 128.225 400.877 128.281 400.596C128.337 400.316 128.308 400.025 128.199 399.76C128.089 399.496 127.904 399.27 127.666 399.111C127.428 398.952 127.148 398.867 126.862 398.867C126.669 398.863 126.478 398.897 126.298 398.968C126.119 399.039 125.956 399.144 125.818 399.279C125.68 399.414 125.57 399.575 125.496 399.753C125.421 399.93 125.382 400.121 125.382 400.314H125.415ZM100.503 411.274C100.501 410.922 100.604 410.577 100.798 410.284C100.992 409.99 101.269 409.761 101.594 409.625C101.919 409.489 102.277 409.453 102.622 409.521C102.968 409.589 103.285 409.759 103.534 410.008C103.783 410.257 103.952 410.574 104.021 410.919C104.089 411.265 104.053 411.623 103.917 411.948C103.781 412.273 103.552 412.55 103.258 412.744C102.965 412.938 102.62 413.041 102.268 413.039C101.801 413.044 101.35 412.866 101.013 412.542C100.677 412.218 100.482 411.774 100.47 411.307L100.503 411.274ZM100.832 411.274C100.817 411.565 100.889 411.853 101.041 412.102C101.192 412.351 101.415 412.548 101.68 412.668C101.946 412.788 102.241 412.825 102.528 412.775C102.814 412.724 103.079 412.589 103.287 412.385C103.496 412.182 103.638 411.92 103.695 411.635C103.752 411.349 103.722 411.053 103.609 410.785C103.495 410.517 103.303 410.29 103.058 410.132C102.813 409.975 102.526 409.896 102.235 409.904C101.865 409.912 101.513 410.063 101.252 410.324C100.991 410.586 100.84 410.937 100.832 411.307V411.274ZM81.2794 430.081C81.2728 429.729 81.3714 429.382 81.5625 429.086C81.7536 428.79 82.0285 428.557 82.3523 428.418C82.6761 428.278 83.0341 428.238 83.3807 428.303C83.7272 428.368 84.0467 428.534 84.2983 428.781C84.5499 429.028 84.7223 429.345 84.7935 429.69C84.8647 430.035 84.8315 430.394 84.6982 430.72C84.5648 431.047 84.3373 431.326 84.0447 431.522C83.752 431.719 83.4074 431.824 83.0549 431.824C82.5896 431.824 82.1429 431.642 81.8109 431.316C81.4788 430.99 81.288 430.547 81.2794 430.081ZM81.6082 430.081C81.6082 430.368 81.693 430.647 81.852 430.885C82.011 431.123 82.2369 431.308 82.5013 431.418C82.7656 431.527 83.0565 431.556 83.3371 431.5C83.6178 431.444 83.8755 431.307 84.0779 431.104C84.2802 430.902 84.418 430.644 84.4738 430.364C84.5296 430.083 84.501 429.792 84.3915 429.528C84.282 429.263 84.0966 429.037 83.8586 428.878C83.6207 428.72 83.341 428.635 83.0549 428.635C82.6712 428.635 82.3032 428.787 82.0319 429.058C81.7606 429.33 81.6082 429.698 81.6082 430.081ZM93.0175 400.314C93.0175 399.965 93.121 399.624 93.3149 399.334C93.5088 399.044 93.7844 398.817 94.1068 398.684C94.4292 398.55 94.784 398.515 95.1263 398.583C95.4686 398.651 95.783 398.82 96.0298 399.066C96.2766 399.313 96.4447 399.628 96.5127 399.97C96.5808 400.312 96.5459 400.667 96.4123 400.989C96.2788 401.312 96.0526 401.587 95.7624 401.781C95.4722 401.975 95.1311 402.079 94.7821 402.079C94.3141 402.079 93.8653 401.893 93.5344 401.562C93.2034 401.231 93.0175 400.782 93.0175 400.314ZM93.3354 400.314C93.3354 400.6 93.4202 400.88 93.5792 401.118C93.7382 401.356 93.9641 401.541 94.2285 401.651C94.4928 401.76 94.7837 401.789 95.0643 401.733C95.345 401.677 95.6027 401.539 95.8051 401.337C96.0074 401.135 96.1452 400.877 96.201 400.596C96.2568 400.316 96.2282 400.025 96.1187 399.76C96.0092 399.496 95.8238 399.27 95.5858 399.111C95.3479 398.952 95.0682 398.867 94.7821 398.867C94.3984 398.867 94.0304 399.02 93.7591 399.291C93.4878 399.562 93.3354 399.93 93.3354 400.314ZM95.1986 423.056C95.1964 422.704 95.2987 422.36 95.4925 422.067C95.6862 421.773 95.9628 421.544 96.287 421.408C96.6112 421.272 96.9686 421.235 97.3137 421.302C97.6588 421.37 97.9762 421.538 98.2256 421.786C98.4751 422.034 98.6452 422.35 98.7146 422.695C98.784 423.039 98.7495 423.397 98.6155 423.722C98.4814 424.047 98.2539 424.325 97.9616 424.521C97.6694 424.716 97.3257 424.821 96.9741 424.821C96.506 424.818 96.0576 424.631 95.7256 424.301C95.3935 423.971 95.2043 423.524 95.1986 423.056ZM95.5274 423.056C95.5274 423.342 95.6122 423.622 95.7712 423.86C95.9301 424.098 96.1561 424.283 96.4205 424.393C96.6848 424.502 96.9757 424.531 97.2563 424.475C97.537 424.419 97.7947 424.281 97.9971 424.079C98.1994 423.877 98.3372 423.619 98.393 423.338C98.4488 423.058 98.4202 422.767 98.3107 422.502C98.2012 422.238 98.0158 422.012 97.7778 421.853C97.5399 421.694 97.2602 421.609 96.9741 421.609C96.5904 421.609 96.2224 421.762 95.9511 422.033C95.6798 422.304 95.5274 422.672 95.5274 423.056ZM112.702 444.176C112.702 443.827 112.805 443.486 112.999 443.196C113.193 442.905 113.469 442.679 113.791 442.546C114.113 442.412 114.468 442.377 114.81 442.445C115.153 442.513 115.467 442.681 115.714 442.928C115.961 443.175 116.129 443.489 116.197 443.832C116.265 444.174 116.23 444.529 116.096 444.851C115.963 445.174 115.737 445.449 115.447 445.643C115.156 445.837 114.815 445.94 114.466 445.94C114.231 445.939 113.999 445.891 113.782 445.799C113.566 445.707 113.37 445.573 113.206 445.405C113.042 445.237 112.913 445.038 112.826 444.819C112.74 444.601 112.697 444.367 112.702 444.132V444.176ZM113.03 444.176C113.03 444.463 113.116 444.743 113.275 444.981C113.435 445.219 113.661 445.404 113.926 445.514C114.191 445.623 114.483 445.651 114.763 445.594C115.044 445.537 115.302 445.398 115.504 445.195C115.706 444.992 115.843 444.733 115.897 444.451C115.952 444.17 115.922 443.879 115.811 443.615C115.699 443.351 115.512 443.125 115.273 442.968C115.034 442.81 114.753 442.727 114.466 442.729C114.091 442.729 113.731 442.876 113.462 443.138C113.194 443.4 113.039 443.757 113.03 444.132V444.176ZM69.7823 402.955C69.7845 402.607 69.8898 402.267 70.085 401.978C70.2802 401.689 70.5566 401.465 70.8792 401.333C71.2018 401.201 71.5562 401.168 71.8978 401.237C72.2394 401.306 72.5528 401.475 72.7984 401.723C73.0441 401.97 73.2111 402.284 73.2783 402.626C73.3455 402.968 73.3099 403.322 73.1761 403.644C73.0422 403.966 72.816 404.241 72.5261 404.434C72.2362 404.628 71.8954 404.731 71.5469 404.731C71.0779 404.728 70.6291 404.54 70.2985 404.207C69.9679 403.874 69.7823 403.424 69.7823 402.955ZM70.1111 402.955C70.109 403.242 70.1922 403.524 70.3504 403.763C70.5085 404.003 70.7343 404.19 70.9991 404.301C71.2639 404.412 71.5557 404.441 71.8374 404.386C72.119 404.33 72.3778 404.192 72.5808 403.989C72.7838 403.786 72.9218 403.528 72.9773 403.246C73.0327 402.964 73.0032 402.672 72.8923 402.408C72.7815 402.143 72.5943 401.917 72.3547 401.759C72.1152 401.601 71.834 401.517 71.5469 401.52C71.1727 401.531 70.8175 401.687 70.5559 401.955C70.2943 402.222 70.1467 402.581 70.144 402.955H70.1111ZM119.026 418.201C119.023 417.849 119.126 417.505 119.319 417.211C119.513 416.918 119.79 416.689 120.114 416.553C120.438 416.417 120.796 416.38 121.141 416.447C121.486 416.514 121.803 416.683 122.053 416.93C122.302 417.178 122.472 417.495 122.542 417.839C122.611 418.184 122.577 418.542 122.443 418.867C122.308 419.192 122.081 419.47 121.789 419.665C121.496 419.861 121.153 419.965 120.801 419.965C120.333 419.962 119.885 419.776 119.553 419.446C119.221 419.116 119.031 418.669 119.026 418.201ZM119.354 418.201C119.354 418.487 119.439 418.767 119.598 419.004C119.757 419.242 119.983 419.428 120.247 419.537C120.512 419.647 120.803 419.675 121.083 419.62C121.364 419.564 121.622 419.426 121.824 419.224C122.026 419.021 122.164 418.764 122.22 418.483C122.276 418.202 122.247 417.911 122.138 417.647C122.028 417.383 121.843 417.157 121.605 416.998C121.367 416.839 121.087 416.754 120.801 416.754C120.417 416.754 120.049 416.906 119.778 417.178C119.507 417.449 119.354 417.817 119.354 418.201ZM82.8905 412.907C82.8905 412.558 82.994 412.217 83.1879 411.927C83.3818 411.637 83.6574 411.41 83.9798 411.277C84.3022 411.143 84.657 411.108 84.9993 411.176C85.3416 411.245 85.656 411.413 85.9028 411.659C86.1496 411.906 86.3176 412.221 86.3857 412.563C86.4538 412.905 86.4188 413.26 86.2853 413.582C86.1517 413.905 85.9256 414.18 85.6354 414.374C85.3452 414.568 85.004 414.672 84.655 414.672C84.1871 414.672 83.7382 414.486 83.4073 414.155C83.0764 413.824 82.8905 413.375 82.8905 412.907ZM83.2083 412.907C83.2062 413.194 83.2892 413.474 83.4468 413.714C83.6044 413.953 83.8296 414.14 84.0938 414.251C84.3579 414.363 84.6492 414.393 84.9305 414.338C85.2119 414.284 85.4707 414.147 85.6741 413.945C85.8775 413.743 86.0164 413.485 86.0731 413.204C86.1298 412.923 86.1018 412.632 85.9927 412.367C85.8835 412.102 85.6981 411.875 85.4599 411.716C85.2218 411.556 84.9416 411.471 84.655 411.471C84.2732 411.471 83.9069 411.622 83.6359 411.891C83.3649 412.16 83.2112 412.525 83.2083 412.907ZM95.1986 441.469C95.1964 441.117 95.2987 440.773 95.4925 440.479C95.6862 440.186 95.9628 439.957 96.287 439.821C96.6112 439.685 96.9686 439.648 97.3137 439.715C97.6588 439.782 97.9762 439.951 98.2256 440.199C98.4751 440.446 98.6452 440.763 98.7146 441.107C98.784 441.452 98.7495 441.81 98.6155 442.135C98.4814 442.46 98.2539 442.738 97.9616 442.933C97.6694 443.129 97.3257 443.233 96.9741 443.233C96.5051 443.233 96.0551 443.048 95.7225 442.717C95.3898 442.387 95.2015 441.938 95.1986 441.469ZM95.5274 441.469C95.5274 441.755 95.6122 442.035 95.7712 442.273C95.9301 442.51 96.1561 442.696 96.4205 442.805C96.6848 442.915 96.9757 442.944 97.2563 442.888C97.537 442.832 97.7947 442.694 97.9971 442.492C98.1994 442.289 98.3372 442.032 98.393 441.751C98.4488 441.47 98.4202 441.18 98.3107 440.915C98.2012 440.651 98.0158 440.425 97.7778 440.266C97.5399 440.107 97.2602 440.022 96.9741 440.022C96.5904 440.022 96.2224 440.174 95.9511 440.446C95.6798 440.717 95.5274 441.085 95.5274 441.469ZM80.3478 447.848C80.3478 447.499 80.4513 447.157 80.6452 446.867C80.8391 446.577 81.1146 446.351 81.4371 446.217C81.7595 446.084 82.1143 446.049 82.4566 446.117C82.7989 446.185 83.1133 446.353 83.3601 446.6C83.6068 446.847 83.7749 447.161 83.843 447.503C83.9111 447.846 83.8761 448.2 83.7426 448.523C83.609 448.845 83.3828 449.121 83.0927 449.315C82.8025 449.509 82.4613 449.612 82.1123 449.612C81.6452 449.609 81.1981 449.422 80.8678 449.092C80.5375 448.762 80.3506 448.315 80.3478 447.848ZM80.6766 447.848C80.6766 448.134 80.7617 448.414 80.9212 448.652C81.0806 448.891 81.3072 449.076 81.5722 449.185C81.8372 449.294 82.1287 449.322 82.4096 449.266C82.6905 449.209 82.9483 449.07 83.1502 448.867C83.352 448.663 83.489 448.404 83.5435 448.123C83.5981 447.842 83.5679 447.55 83.4567 447.286C83.3455 447.022 83.1584 446.797 82.9191 446.639C82.6797 446.482 82.3989 446.399 82.1123 446.401C81.9229 446.401 81.7353 446.438 81.5604 446.511C81.3854 446.584 81.2267 446.691 81.0932 446.825C80.9597 446.96 80.8542 447.119 80.7827 447.295C80.7112 447.47 80.6751 447.658 80.6766 447.848ZM69.7823 421.401C69.7823 421.052 69.8858 420.711 70.0797 420.421C70.2736 420.131 70.5492 419.904 70.8716 419.771C71.1941 419.637 71.5489 419.602 71.8911 419.67C72.2334 419.739 72.5479 419.907 72.7946 420.153C73.0414 420.4 73.2095 420.715 73.2775 421.057C73.3456 421.399 73.3107 421.754 73.1771 422.076C73.0436 422.399 72.8174 422.674 72.5272 422.868C72.2371 423.062 71.8959 423.166 71.5469 423.166C71.0789 423.166 70.6301 422.98 70.2992 422.649C69.9682 422.318 69.7823 421.869 69.7823 421.401ZM70.1111 421.401C70.109 421.688 70.1922 421.969 70.3504 422.209C70.5085 422.448 70.7343 422.636 70.9991 422.746C71.2639 422.857 71.5557 422.887 71.8374 422.831C72.119 422.776 72.3778 422.638 72.5808 422.435C72.7838 422.232 72.9218 421.973 72.9773 421.692C73.0327 421.41 73.0032 421.118 72.8923 420.853C72.7815 420.589 72.5943 420.363 72.3547 420.205C72.1152 420.046 71.834 419.963 71.5469 419.965C71.1727 419.977 70.8175 420.133 70.5559 420.4C70.2943 420.668 70.1467 421.027 70.144 421.401H70.1111ZM68.1822 437.304C68.1822 436.955 68.2857 436.614 68.4796 436.324C68.6735 436.033 68.949 435.807 69.2715 435.674C69.5939 435.54 69.9487 435.505 70.291 435.573C70.6333 435.641 70.9477 435.81 71.1945 436.056C71.4412 436.303 71.6093 436.617 71.6774 436.96C71.7455 437.302 71.7105 437.657 71.577 437.979C71.4434 438.302 71.2173 438.577 70.9271 438.771C70.6369 438.965 70.2957 439.069 69.9467 439.069C69.4787 439.069 69.0299 438.883 68.699 438.552C68.3681 438.221 68.1822 437.772 68.1822 437.304ZM68.5 437.304C68.5 437.59 68.5849 437.87 68.7438 438.108C68.9028 438.346 69.1287 438.531 69.3931 438.641C69.6575 438.75 69.9483 438.779 70.229 438.723C70.5096 438.667 70.7674 438.529 70.9697 438.327C71.172 438.125 71.3098 437.867 71.3657 437.586C71.4215 437.306 71.3928 437.015 71.2833 436.75C71.1738 436.486 70.9884 436.26 70.7505 436.101C70.5126 435.942 70.2329 435.857 69.9467 435.857C69.563 435.857 69.1951 436.01 68.9238 436.281C68.6524 436.552 68.5 436.92 68.5 437.304Z" fill="white"/>
<path d="M273.825 81.5205C274.666 78.6211 274.464 75.5187 273.255 72.7525C271.457 68.8836 267.567 67.2725 263.61 66.4505C259.095 65.541 254.492 65.1403 249.888 65.2559C240.708 65.4677 231.683 67.6624 223.431 71.6894C219.483 73.5347 215.839 75.9701 212.624 78.912L212.273 79.2518C211.375 79.8436 210.498 80.4574 209.654 81.0931C206.361 83.4675 203.515 86.4064 201.248 89.7734C200.581 90.8087 199.988 91.889 199.472 93.0066C198.593 94.5959 197.93 96.295 197.499 98.0591C197.009 100.026 197.071 102.09 197.678 104.023C198.285 105.957 199.414 107.686 200.941 109.019C204.229 111.956 208.613 112.976 212.931 113.173C216.64 113.302 220.353 113.13 224.033 112.658C226.171 112.537 228.286 112.318 230.335 112.033C231.683 111.847 233.021 111.628 234.369 111.408C234.993 116.812 237.152 122.16 239.158 127.125C239.158 127.246 239.41 127.191 239.355 127.059C237.372 122.04 235.377 116.691 234.971 111.299C241.823 110.252 248.5 108.28 254.82 105.435C258.619 103.663 262.117 101.308 265.188 98.4537C267.775 95.9987 270.394 92.5243 270.219 88.7651C271.432 87.4 272.414 85.8449 273.123 84.1619C273.466 83.3141 273.702 82.4268 273.825 81.5205ZM224.877 110.915C218.937 111.332 211.999 110.915 206.552 108C210.334 108.964 214.205 109.533 218.104 109.699C222.468 109.884 226.839 109.612 231.146 108.888C231.629 108.888 232.111 108.888 232.571 108.8C233.032 108.712 233.667 108.668 234.128 108.592V109.436C231.826 109.94 229.502 110.356 227.179 110.696C226.434 110.773 225.655 110.86 224.877 110.915ZM247.104 70.977C251.049 71.1833 254.926 72.0849 258.557 73.6403C261.747 75.1199 264.794 77.6845 264.783 81.4986C264.783 81.663 264.783 81.8164 264.728 81.9808C263.516 81.4914 262.251 81.1492 260.958 80.9616C260.618 80.9068 260.267 80.8848 259.927 80.8519C258.452 80.0101 256.876 79.3583 255.236 78.912C253.072 76.2463 250.177 74.2696 246.907 73.2238C243.944 72.2224 240.839 71.7043 237.711 71.6894C238.917 71.4044 240.112 71.1523 241.328 70.9112C243.253 70.8126 245.182 70.8346 247.104 70.977ZM263.544 90.705C263.222 90.2989 262.854 89.9312 262.448 89.609C262.854 89.1706 263.226 88.6993 263.599 88.2061C263.727 89.0268 263.727 89.8624 263.599 90.6831L263.544 90.705ZM238.577 107.759C240.55 107.379 242.516 106.944 244.474 106.455C241.34 107.582 238.141 108.519 234.895 109.26C234.895 108.997 234.895 108.723 234.895 108.46C236.133 108.252 237.35 108 238.577 107.759ZM236.122 102.213C236.143 102.149 236.169 102.087 236.199 102.027C236.281 102.125 236.391 102.195 236.515 102.228C236.638 102.262 236.769 102.256 236.889 102.213C241.354 100.931 245.744 99.4052 250.041 97.6427C254.112 96.0167 257.886 93.728 261.21 90.8694C261.869 91.3809 262.365 92.0744 262.634 92.8641C261.703 93.4669 260.738 94.0259 259.774 94.5629C252.261 98.6339 244.177 101.546 235.793 103.199C235.903 102.871 236.002 102.542 236.122 102.213ZM236.736 100.832C238.169 97.8604 240.5 95.4143 243.4 93.8396C246.993 92.0118 250.838 90.73 254.809 90.0364C256.494 89.602 258.267 89.6475 259.927 90.1679C259.555 90.4858 259.182 90.7927 258.831 91.0776C252.299 95.9439 244.408 98.4208 236.736 100.832ZM238.194 104.383C242.887 103.337 247.487 101.911 251.948 100.12C247.978 102.212 243.816 103.918 239.52 105.216C238.687 105.468 237.843 105.698 236.999 105.928L235.191 106.301H235.103C235.18 105.83 235.256 105.348 235.355 104.865C236.298 104.723 237.24 104.547 238.172 104.339L238.194 104.383ZM234.226 106.575C232.912 106.829 231.576 106.958 230.237 106.959C229.016 106.976 227.808 106.709 226.708 106.181C229.283 105.95 231.848 105.622 234.38 105.172C234.292 105.556 234.248 106.027 234.204 106.498L234.226 106.575ZM260.673 96.7111C260.541 96.8755 260.41 97.0508 260.278 97.2043C260.147 97.3577 259.818 97.6975 259.577 97.9386C259.062 98.2783 258.535 98.5962 258.053 98.9031C256.396 99.9545 254.655 100.867 252.847 101.632L252.233 101.862C255.154 100.307 257.966 98.5571 260.651 96.6234L260.673 96.7111ZM261.319 88.8637L261.177 88.787C258.989 87.9316 256.578 87.8313 254.327 88.502C250.162 89.333 246.153 90.8124 242.446 92.886C238.973 94.9008 236.357 98.1171 235.092 101.928C234.939 102.421 234.807 102.914 234.686 103.408C231.531 104.015 228.344 104.447 225.14 104.701C224.523 103.614 224.346 102.331 224.647 101.117C225.104 99.2577 225.978 97.5265 227.201 96.0535C234.996 95.0191 242.499 92.4088 249.252 88.3815C251.101 87.2764 252.876 86.0537 254.568 84.7208C255.332 84.1698 255.918 83.408 256.256 82.5288C257.499 82.4192 258.75 82.4192 259.993 82.5288C261.416 83.4672 262.53 84.8057 263.193 86.3758C262.643 87.237 262.008 88.0411 261.297 88.776L261.319 88.8637ZM209.621 84.9729L209.818 84.6551C215.262 80.2929 221.397 76.8702 227.968 74.528C228.121 74.4623 228.286 74.4184 228.439 74.3636C234.796 72.9607 241.876 72.7306 247.86 75.35C249.42 76.0222 250.869 76.9276 252.157 78.0352L252.442 78.2873C248.913 77.6015 245.307 77.395 241.723 77.6736C233.784 78.3003 226.184 81.1615 219.803 85.9264C216.554 88.1975 213.802 91.1061 211.714 94.4752C210.906 94.2932 210.153 93.917 209.522 93.3792C207.056 91.3187 208.24 87.2745 209.599 84.8852L209.621 84.9729ZM254.678 81.0383C252.113 81.3778 249.581 81.9239 247.104 82.6713C239.377 84.8633 231.409 88.2499 226.16 94.5958L226.028 94.7492C224.472 94.9355 222.904 95.078 221.337 95.1219C219.272 95.1896 217.205 95.142 215.145 94.9794C214.564 94.9794 213.928 94.8917 213.282 94.8259C213.896 93.835 214.597 92.8998 215.375 92.0311C217.845 89.2851 220.703 86.9146 223.858 84.9948C230.131 81.1519 237.326 79.0732 244.682 78.9778C247.895 78.92 251.101 79.2885 254.217 80.0738C254.4 80.3464 254.547 80.641 254.656 80.9506L254.678 81.0383ZM254.436 82.759C253.792 83.396 253.066 83.9451 252.277 84.392C251.411 85.0277 250.513 85.6415 249.603 86.2223C247.948 87.2874 246.236 88.2606 244.474 89.1377C239.538 91.6071 234.264 93.3319 228.823 94.256C229.565 93.484 230.348 92.7523 231.168 92.064C234.149 89.6815 237.475 87.7671 241.032 86.3867C244.706 84.8769 248.516 83.7209 252.409 82.9343C253.055 82.8686 253.735 82.7699 254.414 82.6713L254.436 82.759ZM212.525 96.2398C216.572 96.8366 220.679 96.914 224.746 96.4699C223.058 99.0017 221.83 102.125 222.981 104.931L221.721 104.997C218.816 105.074 215.09 104.832 212.953 102.487C211.342 100.514 211.528 98.2455 212.503 96.1521L212.525 96.2398ZM263.292 83.8111C263.106 83.57 262.898 83.3618 262.7 83.1426C263.294 83.3206 263.876 83.5366 264.443 83.7892C264.328 84.1633 264.189 84.5294 264.026 84.8852C263.809 84.4764 263.556 84.0877 263.27 83.7235L263.292 83.8111ZM202.344 104.854C201.076 103.612 200.18 102.041 199.757 100.317C199.387 98.2963 199.748 96.2099 200.776 94.4314C202.452 91.5725 204.606 89.0221 207.144 86.8909C206.972 87.4352 206.844 87.9923 206.76 88.5568C206.467 90.1195 206.69 91.7354 207.396 93.16C207.799 93.8399 208.338 94.4293 208.979 94.8914C209.62 95.3534 210.35 95.6781 211.122 95.8452C210.468 97.3051 210.266 98.9274 210.542 100.503C210.732 101.348 211.088 102.147 211.588 102.855C212.088 103.562 212.724 104.163 213.457 104.624C216.449 106.586 220.384 106.52 223.814 106.334H223.946C224.485 106.984 225.148 107.52 225.897 107.912C222.864 108.17 219.816 108.203 216.778 108.011C212.96 107.75 209.18 107.089 205.5 106.038C204.517 105.793 203.553 105.474 202.618 105.084C202.497 104.997 202.409 104.931 202.344 104.854ZM264.816 91.3297C265.158 89.7601 265.109 88.1303 264.673 86.584C265.077 85.8882 265.411 85.154 265.67 84.392C266.334 84.7797 266.912 85.2968 267.371 85.9125C267.831 86.5281 268.162 87.2299 268.345 87.9759C267.449 88.9924 266.49 89.9515 265.473 90.8475L264.816 91.3297ZM269.616 86.3867C268.879 84.7823 267.63 83.4679 266.065 82.6494C266.186 81.8318 266.186 81.001 266.065 80.1834C265.473 76.3584 262.317 73.7718 258.974 72.2703C255.979 70.9535 252.807 70.082 249.559 69.6837L250.228 69.607C254.491 69.1686 258.941 68.774 263.139 69.881C264.901 70.2792 266.557 71.0533 267.993 72.1505C269.428 73.2476 270.61 74.6418 271.457 76.2378C272.381 78.2857 272.471 80.6127 271.709 82.7261C271.182 84.0248 270.497 85.2541 269.671 86.3867H269.616ZM228.582 71.0427C236.48 67.9616 244.922 66.5186 253.395 66.8012C257.631 66.8372 261.843 67.453 265.912 68.6315C267.804 69.1639 269.496 70.2429 270.778 71.7332C271.276 72.3788 271.682 73.0908 271.983 73.8485C271.808 73.6074 271.655 73.3663 271.468 73.1252C265.659 66.0669 255.324 67.2396 247.269 68.3028C244.894 68.6242 242.516 69.0225 240.134 69.4974C237.925 69.6737 235.729 69.9811 233.558 70.418C229.806 71.1948 226.136 72.325 222.598 73.7937C224.558 72.7615 226.574 71.8395 228.637 71.0318L228.582 71.0427ZM200.316 106.115C200.107 105.814 199.92 105.499 199.757 105.172C199.845 105.271 199.91 105.369 199.998 105.457C200.48 105.898 201.023 106.267 201.609 106.553C202.501 107.404 203.478 108.161 204.525 108.811C206.528 110.03 208.694 110.96 210.958 111.573L210.246 111.496C206.497 110.86 202.639 109.315 200.371 106.049L200.316 106.115ZM258.667 101.391C256.647 102.654 254.528 103.754 252.332 104.679C253.253 104.208 254.162 103.715 255.05 103.167C255.774 102.728 256.486 102.246 257.242 101.742C259.189 100.713 261.004 99.4505 262.645 97.9824C263.294 97.4505 263.818 96.7816 264.178 96.0237C264.538 95.2657 264.726 94.4375 264.728 93.5984H264.783L265.002 93.4121C266.153 92.6146 267.251 91.7433 268.29 90.8036C268.013 91.7947 267.6 92.7426 267.062 93.6203C265.1 96.7768 261.867 99.3086 258.722 101.325L258.667 101.391Z" fill="#263238"/>
</svg>
